<svg xmlns="http://www.w3.org/2000/svg" xmlns:xlink="http://www.w3.org/1999/xlink" width="1000" zoomAndPan="magnify" viewBox="0 0 750 749.999995" height="1000" preserveAspectRatio="xMidYMid meet" version="1.0"><defs><g/><clipPath id="aa102eef69"><path d="M 17 60 L 689 60 L 689 730 L 17 730 Z M 17 60 " clip-rule="nonzero"/></clipPath><clipPath id="fc9d85062b"><path d="M 11.308594 165.882812 L 11.308594 623.953125 C 11.308594 686.085938 61.675781 736.453125 123.808594 736.453125 L 581.878906 736.453125 C 644.011719 736.453125 694.378906 686.085938 694.378906 623.953125 L 694.378906 165.882812 C 694.378906 103.75 644.011719 53.382812 581.878906 53.382812 L 123.808594 53.382812 C 61.675781 53.382812 11.308594 103.75 11.308594 165.882812 Z M 11.308594 165.882812 " clip-rule="nonzero"/></clipPath><clipPath id="e84329b85a"><path d="M 11.308594 53.382812 L 694.558594 53.382812 L 694.558594 736.632812 L 11.308594 736.632812 Z M 11.308594 53.382812 " clip-rule="nonzero"/></clipPath><clipPath id="7d609376cd"><path d="M 11.308594 165.882812 L 11.308594 623.953125 C 11.308594 686.085938 61.675781 736.453125 123.808594 736.453125 L 581.878906 736.453125 C 644.011719 736.453125 694.378906 686.085938 694.378906 623.953125 L 694.378906 165.882812 C 694.378906 103.75 644.011719 53.382812 581.878906 53.382812 L 123.808594 53.382812 C 61.675781 53.382812 11.308594 103.75 11.308594 165.882812 Z M 11.308594 165.882812 " clip-rule="nonzero"/></clipPath><clipPath id="7d7aabb5b2"><path d="M 36 20 L 733 20 L 733 716 L 36 716 Z M 36 20 " clip-rule="nonzero"/></clipPath><clipPath id="9f69795353"><path d="M 30.09375 141.046875 L 30.09375 594.640625 C 30.09375 665.058594 87.179688 722.140625 157.59375 722.140625 L 611.191406 722.140625 C 681.609375 722.140625 738.691406 665.058594 738.691406 594.640625 L 738.691406 141.046875 C 738.691406 70.628906 681.609375 13.546875 611.191406 13.546875 L 157.59375 13.546875 C 87.179688 13.546875 30.09375 70.628906 30.09375 141.046875 Z M 30.09375 141.046875 " clip-rule="nonzero"/></clipPath><clipPath id="a7209da67a"><path d="M 158.496094 14.445312 L 610.292969 14.445312 C 680.707031 14.445312 737.792969 71.527344 737.792969 141.945312 L 737.792969 593.742188 C 737.792969 664.160156 680.707031 721.242188 610.292969 721.242188 L 158.496094 721.242188 C 88.078125 721.242188 30.996094 664.160156 30.996094 593.742188 L 30.996094 141.945312 C 30.996094 71.527344 88.078125 14.445312 158.496094 14.445312 Z M 158.496094 14.445312 " clip-rule="nonzero"/></clipPath><clipPath id="b63238610b"><path d="M 30.84375 14.296875 L 738 14.296875 L 738 721.542969 L 30.84375 721.542969 Z M 30.84375 14.296875 " clip-rule="nonzero"/></clipPath><clipPath id="710b33e545"><path d="M 30.09375 141.046875 L 30.09375 594.640625 C 30.09375 665.058594 87.179688 722.140625 157.59375 722.140625 L 611.191406 722.140625 C 681.609375 722.140625 738.691406 665.058594 738.691406 594.640625 L 738.691406 141.046875 C 738.691406 70.628906 681.609375 13.546875 611.191406 13.546875 L 157.59375 13.546875 C 87.179688 13.546875 30.09375 70.628906 30.09375 141.046875 Z M 30.09375 141.046875 " clip-rule="nonzero"/></clipPath><clipPath id="823abb498b"><path d="M 158.496094 14.445312 L 610.292969 14.445312 C 680.707031 14.445312 737.792969 71.527344 737.792969 141.945312 L 737.792969 593.742188 C 737.792969 664.160156 680.707031 721.242188 610.292969 721.242188 L 158.496094 721.242188 C 88.078125 721.242188 30.996094 664.160156 30.996094 593.742188 L 30.996094 141.945312 C 30.996094 71.527344 88.078125 14.445312 158.496094 14.445312 Z M 158.496094 14.445312 " clip-rule="nonzero"/></clipPath><clipPath id="d21167b902"><path d="M 30.09375 13.546875 L 738.84375 13.546875 L 738.84375 722.292969 L 30.09375 722.292969 Z M 30.09375 13.546875 " clip-rule="nonzero"/></clipPath><clipPath id="1a02451e4d"><path d="M 30.09375 141.046875 L 30.09375 594.640625 C 30.09375 665.058594 87.179688 722.140625 157.59375 722.140625 L 611.191406 722.140625 C 681.609375 722.140625 738.691406 665.058594 738.691406 594.640625 L 738.691406 141.046875 C 738.691406 70.628906 681.609375 13.546875 611.191406 13.546875 L 157.59375 13.546875 C 87.179688 13.546875 30.09375 70.628906 30.09375 141.046875 Z M 30.09375 141.046875 " clip-rule="nonzero"/></clipPath><clipPath id="6d6496bce8"><path d="M 30.09375 141.074219 L 30.09375 594.765625 C 30.09375 665.199219 87.191406 722.296875 157.621094 722.296875 L 611.316406 722.296875 C 681.75 722.296875 738.84375 665.199219 738.84375 594.765625 L 738.84375 141.074219 C 738.84375 70.640625 681.75 13.546875 611.316406 13.546875 L 157.621094 13.546875 C 87.191406 13.546875 30.09375 70.640625 30.09375 141.074219 Z M 30.09375 141.074219 " clip-rule="nonzero"/></clipPath><clipPath id="b9cc82adb6"><path d="M 60 102 L 646 102 L 646 687 L 60 687 Z M 60 102 " clip-rule="nonzero"/></clipPath><clipPath id="ea72f1d620"><path d="M 55.113281 194.445312 L 55.113281 595.304688 C 55.113281 649.152344 98.765625 692.804688 152.613281 692.804688 L 553.472656 692.804688 C 607.320312 692.804688 650.972656 649.152344 650.972656 595.304688 L 650.972656 194.445312 C 650.972656 140.597656 607.320312 96.945312 553.472656 96.945312 L 152.613281 96.945312 C 98.765625 96.945312 55.113281 140.597656 55.113281 194.445312 Z M 55.113281 194.445312 " clip-rule="nonzero"/></clipPath><clipPath id="b0c95e7172"><path d="M 55.113281 96.945312 L 650.613281 96.945312 L 650.613281 692.445312 L 55.113281 692.445312 Z M 55.113281 96.945312 " clip-rule="nonzero"/></clipPath><clipPath id="72d8001ec6"><path d="M 55.113281 194.445312 L 55.113281 595.304688 C 55.113281 649.152344 98.765625 692.804688 152.613281 692.804688 L 553.472656 692.804688 C 607.320312 692.804688 650.972656 649.152344 650.972656 595.304688 L 650.972656 194.445312 C 650.972656 140.597656 607.320312 96.945312 553.472656 96.945312 L 152.613281 96.945312 C 98.765625 96.945312 55.113281 140.597656 55.113281 194.445312 Z M 55.113281 194.445312 " clip-rule="nonzero"/></clipPath></defs><g clip-path="url(#aa102eef69)"><g clip-path="url(#fc9d85062b)"><path fill="#000000" d="M 686.273438 400.851562 C 682.628906 406.835938 676.433594 410.367188 670.316406 413.785156 C 672.902344 417.523438 672.808594 422.542969 671.65625 426.941406 C 670.503906 431.34375 668.410156 435.457031 667.238281 439.855469 C 666.066406 444.257812 666.367188 450.074219 668.917969 453.828125 C 665.40625 453.976562 662.460938 456.792969 661.023438 460.023438 C 659.609375 463.25 659.378906 466.835938 659.078125 470.347656 C 658.777344 473.859375 658.304688 477.484375 656.472656 480.488281 L 656.550781 480.503906 C 661.59375 482.503906 666.839844 484.640625 670.414062 488.738281 C 671.449219 489.945312 672.339844 491.304688 672.886719 492.777344 C 674.132812 496.175781 673.625 500.027344 672.226562 503.347656 C 670.828125 506.691406 668.617188 509.617188 666.449219 512.503906 C 669.28125 515.320312 673.925781 518.488281 675.207031 522.285156 C 676.019531 524.703125 676.097656 527.308594 676.457031 529.835938 C 677.707031 538.785156 682.460938 547.207031 682.160156 556.25 L 682.160156 556.269531 C 682.140625 557.195312 681.464844 557.96875 680.671875 558.441406 C 679.878906 558.914062 678.988281 559.179688 678.179688 559.59375 C 675.363281 561.027344 673.875 564.222656 673.285156 567.335938 C 672.699219 570.453125 672.792969 573.664062 672.132812 576.757812 C 670.796875 583.0625 665.960938 588.179688 661.765625 593.089844 C 664.054688 595.960938 666.371094 598.867188 667.675781 602.289062 C 668.976562 605.703125 669.128906 609.761719 667.183594 612.859375 C 664.804688 616.65625 659.085938 618.46875 654.757812 619.601562 C 657.949219 622.699219 661.328125 626.113281 661.96875 630.515625 C 662.398438 633.578125 661.457031 636.6875 661.855469 639.75 C 662.195312 642.390625 663.535156 644.828125 665.25 646.847656 C 666.96875 648.871094 669.0625 650.570312 671.125 652.25 C 667.382812 657.859375 667.761719 665.886719 669.519531 672.398438 C 671.277344 678.914062 674.390625 684.992188 676.109375 691.523438 C 678.320312 699.851562 678.167969 708.785156 675.714844 717.03125 C 664.519531 719.691406 651.546875 719.714844 640.648438 715.996094 C 635.648438 714.277344 630.851562 711.917969 625.679688 710.800781 C 620.503906 709.6875 614.273438 709.859375 610.0625 713.046875 C 608.136719 709.878906 605.171875 707.34375 601.738281 705.96875 C 597.75 704.367188 593.332031 704.304688 589.085938 703.628906 C 584.84375 702.949219 580.117188 701.117188 577.722656 697.546875 C 576.703125 702.019531 574.605469 706.25 571.640625 709.761719 C 570.585938 711.011719 569.300781 712.238281 567.679688 712.484375 C 566.453125 712.652344 565.242188 712.238281 564.089844 711.785156 C 559.75 710.085938 555.460938 707.480469 551.644531 704.796875 C 549.382812 704.683594 547.339844 706.15625 545.773438 707.78125 C 544.207031 709.402344 542.84375 711.3125 540.941406 712.519531 C 536.050781 715.597656 529.402344 713.199219 524.023438 715.292969 C 519.605469 717.011719 515.867188 721.183594 513.453125 725.265625 C 511.902344 723.941406 509.824219 723.488281 507.808594 723.320312 C 505.785156 723.148438 503.75 723.222656 501.769531 722.773438 C 498.804688 722.113281 496.199219 720.351562 493.308594 719.429688 C 489.214844 718.109375 484.71875 718.503906 480.640625 717.164062 C 476.015625 715.652344 472.394531 712.066406 468.953125 708.609375 C 464.667969 711.820312 462.6875 712.539062 457.699219 714.519531 C 455.699219 715.3125 453.527344 716.007812 451.429688 715.503906 C 449.695312 715.070312 448.261719 713.859375 446.996094 712.597656 C 443.273438 708.898438 440.269531 704.136719 438.195312 699.304688 C 432.753906 702.097656 425.996094 700.023438 420.160156 701.875 C 416.085938 703.175781 412.441406 706.632812 411.023438 710.691406 C 408.078125 707.878906 403.375 707.859375 399.484375 709.070312 C 395.597656 710.277344 392.082031 712.488281 388.195312 713.699219 C 382.921875 715.320312 377.070312 714.984375 372.03125 712.738281 L 372.050781 711.644531 C 370.140625 718.894531 364.949219 725.21875 358.210938 728.488281 C 356.304688 729.414062 354.191406 730.109375 352.113281 729.792969 C 350.359375 729.507812 348.789062 728.542969 347.355469 727.503906 C 342.082031 723.746094 337.59375 718.894531 334.230469 713.34375 C 328.246094 714.363281 322.144531 715.382812 316.574219 712.964844 C 313.722656 711.738281 311.25 709.679688 308.34375 708.601562 C 303.777344 706.921875 298.300781 708.015625 294.710938 711.304688 C 293.992188 707.808594 290.988281 704.902344 287.742188 703.449219 C 284.476562 701.996094 280.867188 701.601562 277.320312 701.222656 C 273.773438 700.84375 270.164062 700.429688 266.917969 698.9375 C 266.351562 704.128906 264.273438 708.113281 260.761719 711.980469 C 259.347656 713.546875 257.628906 714.984375 255.550781 715.304688 C 254.214844 715.515625 252.832031 715.230469 251.53125 714.875 C 246.769531 713.589844 242.261719 711.4375 238.273438 708.546875 C 231.78125 710.773438 227.925781 717.570312 221.226562 719.066406 C 218.074219 719.761719 214.710938 719.140625 211.558594 719.839844 C 209.085938 720.386719 206.878906 721.6875 204.441406 722.40625 C 200.152344 723.675781 195.285156 723.085938 191.449219 725.375 C 189.425781 720.785156 184.503906 717.046875 179.6875 715.667969 C 176.855469 714.855469 173.855469 714.796875 170.964844 714.175781 C 165.453125 713.007812 159.429688 708.757812 156.089844 704.230469 C 153.617188 706.515625 153.160156 706.949219 150.234375 708.648438 C 147.308594 710.347656 143.871094 711.347656 140.550781 710.855469 C 137.515625 710.40625 134.734375 708.664062 132.789062 706.304688 C 130.828125 703.945312 129.242188 700.019531 128.847656 696.976562 C 126.296875 701.054688 121.613281 703.566406 116.839844 704.054688 C 113.574219 704.398438 110.246094 703.867188 107.023438 704.46875 C 102.507812 705.320312 97.734375 709.171875 95.84375 713.34375 C 91.859375 710.394531 86.496094 710.019531 81.570312 710.703125 C 73.65625 711.792969 66.296875 715.25 58.589844 717.3125 C 49.699219 719.6875 37.273438 719.746094 30.25 717.046875 C 27.773438 708.796875 27.644531 699.863281 29.851562 691.539062 C 31.585938 685.023438 34.703125 678.925781 36.441406 672.414062 C 38.203125 665.898438 38.597656 657.871094 34.839844 652.265625 C 36.917969 650.585938 38.992188 648.902344 40.710938 646.863281 C 42.429688 644.824219 43.773438 642.410156 44.109375 639.761719 C 44.503906 636.699219 43.542969 633.589844 43.996094 630.527344 C 44.636719 626.128906 48.015625 622.710938 51.207031 619.613281 C 46.863281 618.5 41.160156 616.667969 38.78125 612.875 C 36.835938 609.777344 36.984375 605.71875 38.289062 602.300781 C 39.589844 598.886719 41.914062 595.957031 44.195312 593.105469 C 40.003906 588.195312 35.171875 583.097656 33.828125 576.769531 C 33.167969 573.671875 33.28125 570.464844 32.675781 567.351562 C 32.089844 564.234375 30.597656 561.046875 27.785156 559.609375 C 26.972656 559.191406 26.066406 558.929688 25.292969 558.457031 C 24.5 557.980469 23.820312 557.207031 23.804688 556.28125 L 23.804688 556.265625 C 23.484375 547.242188 28.238281 538.800781 29.503906 529.851562 C 29.867188 527.320312 29.9375 524.714844 30.753906 522.296875 C 32.039062 518.503906 36.660156 515.351562 39.511719 512.519531 C 37.320312 509.628906 35.132812 506.703125 33.738281 503.363281 C 32.34375 500.023438 31.8125 496.171875 33.078125 492.789062 C 33.625 491.300781 34.511719 489.9375 35.550781 488.75 C 39.097656 484.652344 44.367188 482.5 49.410156 480.519531 L 49.488281 480.5 C 47.65625 477.480469 47.203125 473.875 46.882812 470.363281 C 46.582031 466.847656 46.355469 463.242188 44.9375 460.035156 C 43.523438 456.824219 40.574219 453.996094 37.042969 453.839844 C 39.59375 450.066406 39.894531 444.265625 38.726562 439.871094 C 37.554688 435.476562 35.460938 431.355469 34.308594 426.957031 C 33.15625 422.558594 33.058594 417.539062 35.644531 413.796875 C 29.527344 410.382812 23.332031 406.851562 19.691406 400.867188 C 18.308594 398.621094 17.367188 395.9375 17.839844 393.351562 C 18.199219 391.386719 19.328125 389.652344 20.558594 388.0625 C 22.558594 385.472656 24.863281 383.132812 27.433594 381.09375 C 29.152344 379.734375 31 378.46875 32.363281 376.75 C 33.71875 375.035156 34.535156 372.691406 33.796875 370.617188 C 33.398438 367.160156 33.515625 363.003906 34.605469 359.683594 C 35.832031 355.960938 38.570312 352.871094 39.6875 349.113281 C 40.96875 344.824219 39.988281 339.765625 37.042969 336.402344 C 39.101562 335.535156 41.234375 334.609375 42.710938 332.929688 C 44.03125 331.414062 44.691406 329.453125 45.203125 327.507812 C 46.636719 322.070312 47.128906 316.425781 47.621094 310.835938 C 47.675781 310.289062 47.714844 309.683594 47.410156 309.214844 C 47.128906 308.742188 45.316406 308.273438 44.972656 308.703125 C 38.78125 307.214844 33.699219 301.832031 32.570312 295.546875 C 31.4375 289.257812 34.347656 282.457031 39.648438 278.910156 C 35.023438 276.003906 31.773438 270.902344 30.117188 265.691406 C 28.457031 260.480469 27.925781 254.988281 27.097656 249.585938 C 26.265625 244.183594 25.054688 238.707031 22.246094 234.023438 C 26.644531 230.722656 31.382812 227.53125 32.835938 222.449219 C 33.910156 218.753906 33.664062 214.765625 34.550781 211.007812 C 35.761719 205.816406 39.179688 201.191406 43.765625 198.511719 C 41.503906 195.640625 39.273438 191.917969 38.140625 188.449219 C 37.007812 184.972656 36.988281 180.992188 38.878906 177.859375 C 41.257812 173.871094 46.5625 171.835938 51.097656 170.777344 L 51.285156 170.777344 C 49.039062 169.117188 49.128906 169.230469 47.507812 166.964844 C 45.542969 164.210938 44.691406 160.792969 44.183594 157.433594 C 43.671875 154.070312 43.445312 150.65625 42.5 147.390625 C 42.578125 145.066406 41.332031 142.308594 39.386719 141.042969 C 38.101562 140.214844 36.421875 139.6875 35.796875 138.289062 C 35.398438 137.382812 35.585938 136.308594 36.097656 135.472656 C 36.605469 134.644531 37.53125 133.871094 38.402344 133.394531 C 38.121094 124.085938 34.324219 115.289062 31.925781 106.285156 C 28.960938 95.238281 28.050781 83.664062 29.265625 72.300781 C 36.304688 69.597656 49.753906 70.257812 58.644531 72.640625 C 66.347656 74.699219 73.710938 78.152344 81.625 79.25 C 86.535156 79.929688 91.894531 79.550781 95.898438 76.609375 C 97.789062 80.800781 102.5625 84.652344 107.078125 85.480469 C 110.308594 86.089844 113.628906 85.558594 116.894531 85.898438 C 121.691406 86.390625 126.355469 88.898438 128.902344 92.976562 C 129.316406 89.9375 130.898438 86.027344 132.84375 83.648438 C 134.808594 81.285156 137.582031 79.570312 140.605469 79.097656 C 143.949219 78.585938 147.367188 79.605469 150.289062 81.304688 C 153.21875 82.984375 153.671875 83.417969 156.144531 85.722656 C 159.503906 81.191406 165.507812 76.941406 171.019531 75.769531 C 173.910156 75.164062 176.910156 75.09375 179.742188 74.28125 C 184.578125 72.902344 189.488281 69.183594 191.503906 64.574219 C 195.359375 66.863281 200.207031 66.253906 204.496094 67.539062 C 206.914062 68.261719 209.140625 69.5625 211.613281 70.109375 C 214.785156 70.804688 218.128906 70.1875 221.28125 70.882812 C 227.984375 72.371094 231.835938 79.191406 238.328125 81.402344 C 242.316406 78.511719 246.824219 76.339844 251.585938 75.074219 C 252.90625 74.714844 254.269531 74.433594 255.605469 74.640625 C 257.683594 74.960938 259.417969 76.398438 260.816406 77.964844 C 264.3125 81.839844 266.40625 85.820312 266.972656 91.011719 C 270.21875 89.523438 273.828125 89.101562 277.375 88.726562 C 280.921875 88.347656 284.53125 87.949219 287.796875 86.496094 C 291.0625 85.046875 294.046875 82.132812 294.765625 78.644531 C 298.355469 81.949219 303.832031 83.027344 308.398438 81.347656 C 311.324219 80.269531 313.777344 78.210938 316.628906 76.984375 C 322.199219 74.585938 328.300781 75.601562 334.285156 76.605469 C 337.648438 71.050781 342.136719 66.21875 347.410156 62.441406 C 348.863281 61.40625 350.410156 60.445312 352.167969 60.15625 C 354.261719 59.835938 356.378906 60.535156 358.265625 61.460938 C 365.007812 64.726562 370.203125 71.050781 372.105469 78.304688 L 372.085938 77.210938 C 377.128906 74.964844 382.984375 74.625 388.25 76.25 C 392.136719 77.457031 395.648438 79.664062 399.539062 80.878906 C 403.429688 82.085938 408.113281 82.046875 411.078125 79.253906 C 412.476562 83.296875 416.121094 86.769531 420.214844 88.074219 C 426.050781 89.921875 432.808594 87.847656 438.25 90.644531 C 440.324219 85.808594 443.328125 81.070312 447.050781 77.351562 C 448.316406 76.085938 449.75 74.878906 451.484375 74.445312 C 453.582031 73.933594 455.753906 74.632812 457.753906 75.429688 C 462.71875 77.410156 464.722656 78.128906 469.007812 81.335938 C 472.441406 77.878906 476.050781 74.3125 480.695312 72.78125 C 484.773438 71.445312 489.289062 71.839844 493.363281 70.519531 C 496.253906 69.59375 498.859375 67.835938 501.824219 67.175781 C 503.804688 66.742188 505.84375 66.816406 507.863281 66.628906 C 509.886719 66.460938 511.960938 65.988281 513.507812 64.683594 C 515.925781 68.761719 519.640625 72.957031 524.078125 74.65625 C 529.480469 76.730469 536.125 74.335938 540.996094 77.429688 C 542.921875 78.636719 544.261719 80.542969 545.828125 82.167969 C 547.394531 83.789062 549.4375 85.261719 551.699219 85.148438 C 555.511719 82.488281 559.816406 79.878906 564.144531 78.164062 C 565.296875 77.710938 566.503906 77.292969 567.734375 77.464844 C 569.355469 77.691406 570.640625 78.917969 571.695312 80.183594 C 574.660156 83.695312 576.757812 87.929688 577.777344 92.402344 C 580.171875 88.835938 584.898438 87 589.140625 86.320312 C 593.390625 85.640625 597.789062 85.582031 601.792969 83.980469 C 605.226562 82.597656 608.191406 80.070312 610.117188 76.902344 C 614.328125 80.113281 620.558594 80.28125 625.734375 79.144531 C 630.90625 78.03125 635.703125 75.652344 640.703125 73.953125 C 651.601562 70.230469 665.589844 69.628906 676.808594 72.289062 C 678.015625 83.65625 677.109375 95.230469 674.148438 106.277344 C 671.730469 115.28125 667.933594 124.0625 667.671875 133.386719 C 668.539062 133.839844 669.445312 134.613281 669.976562 135.464844 C 670.503906 136.316406 670.671875 137.390625 670.277344 138.277344 C 669.652344 139.695312 667.972656 140.207031 666.6875 141.035156 C 664.742188 142.300781 663.492188 145.058594 663.570312 147.378906 C 662.644531 150.644531 662.417969 154.0625 661.890625 157.425781 C 661.363281 160.785156 660.53125 164.183594 658.566406 166.957031 C 656.945312 169.222656 657.035156 169.113281 654.789062 170.769531 L 654.976562 170.769531 C 659.507812 171.828125 664.792969 173.867188 667.191406 177.847656 C 669.058594 180.980469 669.058594 184.96875 667.929688 188.4375 C 666.796875 191.914062 664.570312 195.632812 662.304688 198.5 C 666.890625 201.183594 670.3125 205.824219 671.519531 211 C 672.390625 214.757812 672.160156 218.71875 673.238281 222.441406 C 674.707031 227.503906 679.429688 230.714844 683.828125 234.015625 C 680.992188 238.699219 679.804688 244.175781 678.976562 249.574219 C 678.148438 254.976562 677.617188 260.472656 675.957031 265.683594 C 674.292969 270.894531 671.0625 275.992188 666.421875 278.902344 C 671.730469 282.449219 674.617188 289.269531 673.5 295.535156 C 672.386719 301.804688 667.304688 307.207031 661.097656 308.695312 C 660.757812 308.261719 658.941406 308.730469 658.660156 309.207031 C 658.378906 309.679688 658.414062 310.261719 658.449219 310.828125 C 658.941406 316.433594 659.453125 322.058594 660.871094 327.5 C 661.378906 329.445312 662.039062 331.40625 663.363281 332.917969 C 664.832031 334.601562 666.96875 335.523438 669.027344 336.394531 C 666.082031 339.757812 665.101562 344.816406 666.386719 349.101562 C 667.5 352.859375 670.238281 355.957031 671.464844 359.675781 C 672.558594 362.976562 672.671875 367.132812 672.277344 370.605469 C 671.539062 372.664062 672.351562 375.027344 673.710938 376.742188 C 675.066406 378.460938 676.921875 379.707031 678.640625 381.082031 C 681.191406 383.125 683.507812 385.464844 685.511719 388.050781 C 686.738281 389.636719 687.871094 391.378906 688.230469 393.339844 C 688.613281 395.921875 687.652344 398.582031 686.273438 400.851562 Z M 686.273438 400.851562 " fill-opacity="1" fill-rule="nonzero"/></g></g><g clip-path="url(#e84329b85a)"><g clip-path="url(#7d609376cd)"><path fill="#37002f" d="M 11.308594 53.382812 L 694.558594 53.382812 L 694.558594 736.632812 L 11.308594 736.632812 Z M 11.308594 53.382812 " fill-opacity="1" fill-rule="nonzero"/></g></g><g clip-path="url(#7d7aabb5b2)"><g clip-path="url(#9f69795353)"><g clip-path="url(#a7209da67a)"><path fill="#000000" d="M 730.25 373.980469 C 726.46875 380.191406 720.042969 383.851562 713.699219 387.394531 C 716.382812 391.277344 716.28125 396.484375 715.085938 401.046875 C 713.890625 405.609375 711.71875 409.878906 710.503906 414.441406 C 709.289062 419.007812 709.601562 425.039062 712.246094 428.933594 C 708.605469 429.089844 705.546875 432.011719 704.058594 435.359375 C 702.589844 438.710938 702.351562 442.429688 702.042969 446.070312 C 701.730469 449.714844 701.238281 453.476562 699.339844 456.589844 L 699.417969 456.609375 C 704.648438 458.683594 710.09375 460.898438 713.796875 465.144531 C 714.875 466.398438 715.796875 467.8125 716.363281 469.335938 C 717.65625 472.863281 717.128906 476.859375 715.679688 480.304688 C 714.226562 483.773438 711.933594 486.804688 709.6875 489.800781 C 712.625 492.722656 717.441406 496.011719 718.773438 499.945312 C 719.613281 502.453125 719.695312 505.15625 720.066406 507.78125 C 721.363281 517.066406 726.292969 525.800781 725.984375 535.179688 L 725.984375 535.199219 C 725.964844 536.160156 725.261719 536.960938 724.4375 537.453125 C 723.617188 537.945312 722.695312 538.21875 721.851562 538.648438 C 718.933594 540.136719 717.386719 543.449219 716.777344 546.679688 C 716.167969 549.914062 716.269531 553.242188 715.582031 556.453125 C 714.195312 562.992188 709.179688 568.300781 704.828125 573.394531 C 707.199219 576.371094 709.605469 579.386719 710.957031 582.9375 C 712.308594 586.480469 712.464844 590.691406 710.445312 593.902344 C 707.980469 597.839844 702.046875 599.71875 697.558594 600.894531 C 700.871094 604.109375 704.375 607.652344 705.035156 612.214844 C 705.484375 615.390625 704.507812 618.617188 704.917969 621.792969 C 705.273438 624.535156 706.664062 627.0625 708.445312 629.160156 C 710.226562 631.257812 712.398438 633.019531 714.535156 634.765625 C 710.65625 640.582031 711.046875 648.90625 712.871094 655.664062 C 714.695312 662.417969 717.921875 668.726562 719.707031 675.503906 C 722 684.140625 721.84375 693.40625 719.296875 701.964844 C 707.683594 704.722656 694.226562 704.746094 682.925781 700.886719 C 677.734375 699.105469 672.761719 696.65625 667.394531 695.5 C 662.023438 694.339844 655.5625 694.519531 651.195312 697.828125 C 649.195312 694.539062 646.121094 691.914062 642.558594 690.484375 C 638.425781 688.824219 633.839844 688.761719 629.4375 688.058594 C 625.03125 687.351562 620.132812 685.453125 617.648438 681.75 C 616.589844 686.390625 614.417969 690.777344 611.339844 694.421875 C 610.242188 695.714844 608.910156 696.988281 607.230469 697.242188 C 605.957031 697.417969 604.703125 696.988281 603.507812 696.519531 C 599.003906 694.757812 594.558594 692.054688 590.597656 689.273438 C 588.25 689.152344 586.132812 690.679688 584.507812 692.367188 C 582.882812 694.046875 581.46875 696.027344 579.492188 697.28125 C 574.417969 700.476562 567.523438 697.984375 561.945312 700.15625 C 557.363281 701.941406 553.484375 706.269531 550.976562 710.5 C 549.371094 709.132812 547.21875 708.660156 545.125 708.484375 C 543.027344 708.308594 540.914062 708.382812 538.859375 707.917969 C 535.78125 707.230469 533.082031 705.40625 530.085938 704.449219 C 525.835938 703.078125 521.171875 703.488281 516.945312 702.101562 C 512.144531 700.53125 508.386719 696.8125 504.820312 693.226562 C 500.375 696.558594 498.316406 697.300781 493.144531 699.355469 C 491.070312 700.175781 488.816406 700.898438 486.644531 700.375 C 484.84375 699.925781 483.355469 698.667969 482.039062 697.359375 C 478.179688 693.523438 475.066406 688.585938 472.910156 683.574219 C 467.269531 686.46875 460.257812 684.320312 454.207031 686.238281 C 449.976562 687.589844 446.195312 691.175781 444.726562 695.386719 C 441.671875 692.464844 436.792969 692.445312 432.757812 693.703125 C 428.722656 694.957031 425.082031 697.246094 421.046875 698.503906 C 415.578125 700.1875 409.507812 699.835938 404.28125 697.507812 L 404.300781 696.375 C 402.320312 703.894531 396.933594 710.453125 389.945312 713.847656 C 387.964844 714.804688 385.773438 715.527344 383.617188 715.199219 C 381.800781 714.90625 380.167969 713.902344 378.679688 712.824219 C 373.214844 708.929688 368.554688 703.894531 365.070312 698.136719 C 358.859375 699.195312 352.53125 700.253906 346.753906 697.742188 C 343.796875 696.472656 341.230469 694.335938 338.214844 693.21875 C 333.476562 691.472656 327.796875 692.609375 324.074219 696.019531 C 323.328125 692.394531 320.214844 689.378906 316.84375 687.875 C 313.457031 686.367188 309.714844 685.953125 306.035156 685.5625 C 302.355469 685.171875 298.613281 684.742188 295.242188 683.191406 C 294.65625 688.578125 292.503906 692.710938 288.859375 696.722656 C 287.390625 698.347656 285.609375 699.835938 283.453125 700.171875 C 282.0625 700.390625 280.632812 700.09375 279.28125 699.722656 C 274.34375 698.390625 269.664062 696.160156 265.53125 693.160156 C 258.792969 695.472656 254.796875 702.519531 247.847656 704.070312 C 244.578125 704.792969 241.089844 704.152344 237.820312 704.875 C 235.253906 705.441406 232.960938 706.792969 230.433594 707.539062 C 225.988281 708.851562 220.9375 708.242188 216.957031 710.613281 C 214.859375 705.855469 209.753906 701.976562 204.757812 700.546875 C 201.820312 699.703125 198.707031 699.644531 195.710938 699 C 189.992188 697.785156 183.742188 693.378906 180.277344 688.679688 C 177.710938 691.054688 177.242188 691.503906 174.207031 693.265625 C 171.167969 695.027344 167.605469 696.066406 164.160156 695.554688 C 161.011719 695.089844 158.128906 693.285156 156.109375 690.835938 C 154.074219 688.386719 152.429688 684.316406 152.019531 681.160156 C 149.371094 685.386719 144.515625 687.996094 139.5625 688.5 C 136.175781 688.855469 132.726562 688.308594 129.378906 688.929688 C 124.699219 689.816406 119.746094 693.808594 117.785156 698.136719 C 113.652344 695.078125 108.089844 694.6875 102.976562 695.394531 C 94.769531 696.53125 87.132812 700.117188 79.140625 702.25 C 69.917969 704.71875 57.027344 704.777344 49.742188 701.976562 C 47.175781 693.421875 47.039062 684.15625 49.328125 675.515625 C 51.128906 668.761719 54.363281 662.433594 56.167969 655.675781 C 57.992188 648.921875 58.402344 640.59375 54.503906 634.777344 C 56.660156 633.035156 58.8125 631.292969 60.59375 629.175781 C 62.375 627.058594 63.769531 624.554688 64.117188 621.808594 C 64.53125 618.632812 63.53125 615.40625 64 612.230469 C 64.667969 607.667969 68.171875 604.121094 71.480469 600.910156 C 66.976562 599.753906 61.0625 597.851562 58.589844 593.917969 C 56.574219 590.703125 56.730469 586.492188 58.082031 582.949219 C 59.433594 579.40625 61.839844 576.367188 64.207031 573.410156 C 59.863281 568.316406 54.847656 563.03125 53.453125 556.464844 C 52.769531 553.253906 52.886719 549.925781 52.257812 546.695312 C 51.648438 543.464844 50.105469 540.15625 47.183594 538.664062 C 46.34375 538.234375 45.402344 537.957031 44.601562 537.46875 C 43.777344 536.976562 43.074219 536.171875 43.054688 535.214844 L 43.054688 535.195312 C 42.722656 525.835938 47.65625 517.078125 48.972656 507.792969 C 49.34375 505.171875 49.417969 502.46875 50.265625 499.960938 C 51.597656 496.023438 56.394531 492.753906 59.351562 489.816406 C 57.078125 486.820312 54.804688 483.78125 53.359375 480.316406 C 51.914062 476.855469 51.363281 472.859375 52.675781 469.351562 C 53.242188 467.804688 54.164062 466.394531 55.242188 465.160156 C 58.921875 460.90625 64.386719 458.675781 69.617188 456.621094 L 69.699219 456.601562 C 67.800781 453.472656 67.328125 449.730469 66.996094 446.085938 C 66.683594 442.441406 66.449219 438.699219 64.980469 435.375 C 63.507812 432.042969 60.453125 429.109375 56.789062 428.949219 C 59.4375 425.03125 59.75 419.015625 58.535156 414.457031 C 57.320312 409.898438 55.144531 405.625 53.949219 401.0625 C 52.753906 396.496094 52.65625 391.289062 55.339844 387.410156 C 48.996094 383.867188 42.566406 380.203125 38.789062 373.996094 C 37.355469 371.667969 36.378906 368.882812 36.871094 366.199219 C 37.242188 364.164062 38.414062 362.363281 39.691406 360.714844 C 41.765625 358.03125 44.15625 355.601562 46.820312 353.484375 C 48.601562 352.078125 50.519531 350.761719 51.933594 348.980469 C 53.339844 347.199219 54.1875 344.773438 53.421875 342.617188 C 53.011719 339.03125 53.128906 334.722656 54.261719 331.277344 C 55.535156 327.417969 58.375 324.207031 59.53125 320.3125 C 60.863281 315.863281 59.84375 310.613281 56.789062 307.128906 C 58.925781 306.226562 61.136719 305.265625 62.667969 303.523438 C 64.039062 301.953125 64.722656 299.917969 65.253906 297.898438 C 66.742188 292.257812 67.25 286.402344 67.761719 280.605469 C 67.820312 280.039062 67.859375 279.410156 67.542969 278.925781 C 67.25 278.433594 65.371094 277.945312 65.015625 278.394531 C 58.589844 276.851562 53.324219 271.265625 52.152344 264.746094 C 50.972656 258.222656 53.992188 251.167969 59.492188 247.488281 C 54.691406 244.472656 51.324219 239.183594 49.605469 233.777344 C 47.882812 228.371094 47.332031 222.671875 46.472656 217.070312 C 45.609375 211.464844 44.355469 205.785156 41.4375 200.929688 C 46.003906 197.503906 50.917969 194.191406 52.425781 188.921875 C 53.539062 185.085938 53.285156 180.953125 54.207031 177.054688 C 55.457031 171.667969 59.007812 166.871094 63.765625 164.089844 C 61.417969 161.113281 59.101562 157.25 57.929688 153.652344 C 56.753906 150.046875 56.734375 145.914062 58.695312 142.664062 C 61.160156 138.53125 66.664062 136.417969 71.367188 135.324219 L 71.5625 135.324219 C 69.230469 133.597656 69.324219 133.714844 67.644531 131.367188 C 65.609375 128.507812 64.722656 124.964844 64.195312 121.476562 C 63.664062 117.992188 63.429688 114.449219 62.449219 111.058594 C 62.53125 108.648438 61.238281 105.792969 59.21875 104.476562 C 57.886719 103.617188 56.144531 103.070312 55.496094 101.617188 C 55.085938 100.679688 55.277344 99.5625 55.808594 98.699219 C 56.335938 97.839844 57.296875 97.035156 58.199219 96.542969 C 57.90625 86.886719 53.96875 77.761719 51.480469 68.421875 C 48.402344 56.964844 47.464844 44.957031 48.71875 33.167969 C 56.023438 30.367188 69.972656 31.050781 79.195312 33.523438 C 87.1875 35.65625 94.828125 39.238281 103.035156 40.378906 C 108.128906 41.082031 113.6875 40.691406 117.84375 37.636719 C 119.804688 41.984375 124.753906 45.980469 129.4375 46.84375 C 132.789062 47.46875 136.230469 46.921875 139.621094 47.273438 C 144.59375 47.78125 149.433594 50.386719 152.074219 54.613281 C 152.503906 51.464844 154.148438 47.410156 156.167969 44.9375 C 158.203125 42.492188 161.082031 40.707031 164.21875 40.21875 C 167.6875 39.6875 171.230469 40.746094 174.261719 42.507812 C 177.300781 44.253906 177.769531 44.703125 180.335938 47.09375 C 183.820312 42.390625 190.050781 37.984375 195.765625 36.769531 C 198.761719 36.140625 201.875 36.0625 204.816406 35.222656 C 209.828125 33.792969 214.921875 29.9375 217.015625 25.152344 C 221.011719 27.527344 226.042969 26.898438 230.492188 28.230469 C 233 28.976562 235.308594 30.328125 237.875 30.894531 C 241.164062 31.617188 244.632812 30.976562 247.902344 31.699219 C 254.859375 33.242188 258.851562 40.316406 265.589844 42.609375 C 269.722656 39.613281 274.402344 37.359375 279.339844 36.046875 C 280.707031 35.671875 282.121094 35.378906 283.511719 35.597656 C 285.664062 35.925781 287.464844 37.421875 288.914062 39.046875 C 292.539062 43.0625 294.714844 47.191406 295.300781 52.578125 C 298.667969 51.03125 302.410156 50.597656 306.089844 50.207031 C 309.773438 49.8125 313.515625 49.402344 316.902344 47.894531 C 320.289062 46.386719 323.382812 43.371094 324.132812 39.75 C 327.855469 43.175781 333.535156 44.296875 338.273438 42.550781 C 341.304688 41.4375 343.851562 39.300781 346.8125 38.023438 C 352.589844 35.539062 358.917969 36.59375 365.125 37.632812 C 368.613281 31.875 373.269531 26.859375 378.738281 22.941406 C 380.246094 21.867188 381.851562 20.867188 383.675781 20.570312 C 385.847656 20.242188 388.042969 20.964844 390.003906 21.921875 C 396.996094 25.308594 402.382812 31.875 404.355469 39.394531 L 404.339844 38.261719 C 409.570312 35.933594 415.640625 35.578125 421.101562 37.265625 C 425.136719 38.515625 428.78125 40.808594 432.816406 42.066406 C 436.851562 43.316406 441.707031 43.28125 444.785156 40.382812 C 446.234375 44.574219 450.015625 48.179688 454.261719 49.53125 C 460.316406 51.449219 467.328125 49.292969 472.96875 52.195312 C 475.125 47.183594 478.238281 42.261719 482.097656 38.40625 C 483.410156 37.09375 484.898438 35.84375 486.699219 35.394531 C 488.871094 34.863281 491.125 35.585938 493.199219 36.414062 C 498.351562 38.46875 500.429688 39.214844 504.875 42.542969 C 508.4375 38.957031 512.179688 35.257812 517 33.667969 C 521.230469 32.28125 525.914062 32.691406 530.140625 31.320312 C 533.136719 30.359375 535.839844 28.539062 538.914062 27.851562 C 540.972656 27.402344 543.085938 27.480469 545.179688 27.285156 C 547.277344 27.109375 549.433594 26.617188 551.035156 25.269531 C 553.542969 29.496094 557.398438 33.847656 562 35.609375 C 567.605469 37.765625 574.5 35.28125 579.550781 38.488281 C 581.550781 39.742188 582.9375 41.71875 584.5625 43.402344 C 586.1875 45.085938 588.304688 46.613281 590.652344 46.496094 C 594.609375 43.738281 599.074219 41.03125 603.5625 39.25 C 604.757812 38.78125 606.011719 38.347656 607.285156 38.527344 C 608.96875 38.761719 610.300781 40.035156 611.398438 41.347656 C 614.472656 44.988281 616.644531 49.378906 617.703125 54.019531 C 620.191406 50.320312 625.089844 48.414062 629.492188 47.710938 C 633.902344 47.007812 638.460938 46.945312 642.613281 45.28125 C 646.175781 43.851562 649.253906 41.230469 651.253906 37.941406 C 655.617188 41.269531 662.082031 41.445312 667.449219 40.269531 C 672.816406 39.113281 677.792969 36.644531 682.980469 34.882812 C 694.28125 31.023438 708.792969 30.398438 720.429688 33.160156 C 721.683594 44.949219 720.742188 56.953125 717.671875 68.410156 C 715.164062 77.753906 711.226562 86.863281 710.953125 96.535156 C 711.855469 97.003906 712.796875 97.804688 713.34375 98.6875 C 713.890625 99.574219 714.066406 100.6875 713.65625 101.609375 C 713.007812 103.078125 711.265625 103.609375 709.933594 104.46875 C 707.914062 105.78125 706.621094 108.640625 706.699219 111.050781 C 705.742188 114.4375 705.503906 117.980469 704.957031 121.46875 C 704.410156 124.957031 703.546875 128.480469 701.507812 131.359375 C 699.824219 133.707031 699.917969 133.59375 697.589844 135.3125 L 697.785156 135.3125 C 702.484375 136.410156 707.964844 138.527344 710.457031 142.65625 C 712.394531 145.90625 712.394531 150.039062 711.222656 153.640625 C 710.046875 157.246094 707.734375 161.101562 705.386719 164.078125 C 710.144531 166.863281 713.691406 171.675781 714.945312 177.042969 C 715.847656 180.941406 715.613281 185.054688 716.726562 188.914062 C 718.253906 194.164062 723.152344 197.492188 727.710938 200.917969 C 724.773438 205.777344 723.539062 211.457031 722.679688 217.058594 C 721.820312 222.664062 721.273438 228.363281 719.546875 233.769531 C 717.824219 239.171875 714.472656 244.460938 709.65625 247.480469 C 715.164062 251.160156 718.160156 258.234375 717 264.734375 C 715.84375 271.238281 710.574219 276.839844 704.132812 278.386719 C 703.78125 277.9375 701.898438 278.421875 701.605469 278.914062 C 701.3125 279.40625 701.351562 280.011719 701.390625 280.597656 C 701.898438 286.414062 702.429688 292.25 703.898438 297.890625 C 704.425781 299.910156 705.113281 301.945312 706.484375 303.511719 C 708.007812 305.257812 710.226562 306.214844 712.359375 307.117188 C 709.304688 310.605469 708.289062 315.855469 709.621094 320.300781 C 710.777344 324.199219 713.617188 327.414062 714.886719 331.269531 C 716.023438 334.695312 716.140625 339.003906 715.730469 342.609375 C 714.964844 344.742188 715.808594 347.191406 717.21875 348.972656 C 718.625 350.753906 720.550781 352.046875 722.332031 353.476562 C 724.976562 355.59375 727.382812 358.019531 729.460938 360.703125 C 730.730469 362.347656 731.90625 364.152344 732.28125 366.191406 C 732.679688 368.871094 731.679688 371.628906 730.25 373.980469 Z M 730.25 373.980469 " fill-opacity="1" fill-rule="nonzero"/></g></g></g><g clip-path="url(#b63238610b)"><g clip-path="url(#710b33e545)"><g clip-path="url(#823abb498b)"><path fill="#e6bc40" d="M 30.09375 13.546875 L 738.84375 13.546875 L 738.84375 722.292969 L 30.09375 722.292969 Z M 30.09375 13.546875 " fill-opacity="1" fill-rule="nonzero"/></g></g></g><g clip-path="url(#d21167b902)"><g clip-path="url(#1a02451e4d)"><g clip-path="url(#6d6496bce8)"><path stroke-linecap="butt" transform="matrix(0.750174, 0, 0, 0.750174, 30.094352, 13.544934)" fill="none" stroke-linejoin="miter" d="M -0.000802032 169.999702 L -0.000802032 774.781606 C -0.000802032 868.671335 76.111791 944.778721 169.996312 944.778721 L 774.783424 944.778721 C 868.673153 944.778721 944.780538 868.671335 944.780538 774.781606 L 944.780538 169.999702 C 944.780538 76.109973 868.673153 0.00258721 774.783424 0.00258721 L 169.996312 0.00258721 C 76.111791 0.00258721 -0.000802032 76.109973 -0.000802032 169.999702 Z M -0.000802032 169.999702 " stroke="#000000" stroke-width="68" stroke-opacity="1" stroke-miterlimit="4"/></g></g></g><g clip-path="url(#b9cc82adb6)"><g clip-path="url(#ea72f1d620)"><path fill="#f7cc4e" d="M 643.394531 399.789062 C 640.21875 405.007812 634.820312 408.082031 629.488281 411.0625 C 631.742188 414.320312 631.660156 418.695312 630.652344 422.53125 C 629.648438 426.367188 627.824219 429.949219 626.804688 433.785156 C 625.78125 437.621094 626.042969 442.691406 628.269531 445.960938 C 625.207031 446.09375 622.636719 448.546875 621.386719 451.359375 C 620.152344 454.175781 619.953125 457.300781 619.691406 460.359375 C 619.429688 463.421875 619.019531 466.582031 617.421875 469.199219 L 617.488281 469.214844 C 621.882812 470.957031 626.457031 472.820312 629.570312 476.386719 C 630.476562 477.4375 631.25 478.625 631.726562 479.910156 C 632.8125 482.871094 632.367188 486.230469 631.148438 489.125 C 629.929688 492.039062 628.007812 494.585938 626.117188 497.101562 C 628.585938 499.554688 632.632812 502.320312 633.75 505.625 C 634.457031 507.734375 634.523438 510.003906 634.839844 512.207031 C 635.925781 520.007812 640.070312 527.351562 639.808594 535.230469 L 639.808594 535.246094 C 639.792969 536.050781 639.203125 536.726562 638.511719 537.140625 C 637.820312 537.554688 637.046875 537.785156 636.339844 538.144531 C 633.886719 539.394531 632.585938 542.179688 632.074219 544.894531 C 631.5625 547.609375 631.644531 550.40625 631.070312 553.105469 C 629.902344 558.597656 625.691406 563.058594 622.035156 567.339844 C 624.027344 569.839844 626.046875 572.375 627.183594 575.355469 C 628.320312 578.332031 628.449219 581.871094 626.753906 584.570312 C 624.683594 587.875 619.695312 589.457031 615.925781 590.445312 C 618.707031 593.144531 621.652344 596.121094 622.210938 599.957031 C 622.585938 602.625 621.765625 605.335938 622.109375 608.003906 C 622.410156 610.308594 623.574219 612.429688 625.070312 614.195312 C 626.570312 615.957031 628.394531 617.4375 630.1875 618.902344 C 626.929688 623.789062 627.257812 630.785156 628.792969 636.460938 C 630.324219 642.140625 633.035156 647.4375 634.535156 653.132812 C 636.460938 660.390625 636.332031 668.175781 634.191406 675.363281 C 624.433594 677.683594 613.125 677.703125 603.628906 674.457031 C 599.269531 672.960938 595.089844 670.90625 590.582031 669.933594 C 586.070312 668.960938 580.640625 669.109375 576.972656 671.890625 C 575.292969 669.125 572.707031 666.917969 569.714844 665.71875 C 566.242188 664.324219 562.390625 664.273438 558.691406 663.679688 C 554.988281 663.089844 550.871094 661.492188 548.785156 658.378906 C 547.894531 662.277344 546.070312 665.964844 543.484375 669.027344 C 542.5625 670.117188 541.445312 671.183594 540.03125 671.398438 C 538.960938 671.542969 537.90625 671.183594 536.902344 670.789062 C 533.117188 669.308594 529.382812 667.039062 526.054688 664.699219 C 524.082031 664.601562 522.304688 665.882812 520.9375 667.300781 C 519.574219 668.714844 518.386719 670.378906 516.726562 671.429688 C 512.464844 674.113281 506.671875 672.019531 501.980469 673.847656 C 498.132812 675.34375 494.871094 678.980469 492.769531 682.539062 C 491.417969 681.386719 489.609375 680.988281 487.847656 680.84375 C 486.085938 680.695312 484.3125 680.757812 482.585938 680.367188 C 480 679.789062 477.730469 678.257812 475.210938 677.453125 C 471.644531 676.300781 467.726562 676.644531 464.171875 675.480469 C 460.136719 674.160156 456.980469 671.035156 453.984375 668.023438 C 450.25 670.820312 448.523438 671.445312 444.175781 673.171875 C 442.433594 673.863281 440.539062 674.46875 438.710938 674.03125 C 437.199219 673.652344 435.949219 672.597656 434.84375 671.496094 C 431.601562 668.273438 428.984375 664.125 427.175781 659.914062 C 422.433594 662.347656 416.542969 660.539062 411.457031 662.152344 C 407.90625 663.285156 404.730469 666.300781 403.496094 669.835938 C 400.925781 667.382812 396.828125 667.367188 393.4375 668.425781 C 390.046875 669.476562 386.988281 671.402344 383.597656 672.457031 C 379.003906 673.871094 373.902344 673.578125 369.511719 671.621094 L 369.527344 670.667969 C 367.863281 676.988281 363.339844 682.496094 357.464844 685.347656 C 355.804688 686.152344 353.960938 686.761719 352.152344 686.484375 C 350.621094 686.238281 349.253906 685.394531 348 684.492188 C 343.410156 681.214844 339.492188 676.988281 336.5625 672.148438 C 331.347656 673.039062 326.03125 673.925781 321.175781 671.820312 C 318.691406 670.75 316.535156 668.957031 314.003906 668.015625 C 310.019531 666.550781 305.25 667.503906 302.121094 670.371094 C 301.492188 667.324219 298.878906 664.792969 296.046875 663.523438 C 293.199219 662.257812 290.054688 661.914062 286.964844 661.582031 C 283.871094 661.253906 280.726562 660.894531 277.894531 659.589844 C 277.402344 664.117188 275.59375 667.589844 272.53125 670.960938 C 271.296875 672.328125 269.800781 673.578125 267.992188 673.859375 C 266.824219 674.042969 265.621094 673.792969 264.484375 673.480469 C 260.335938 672.363281 256.40625 670.488281 252.933594 667.96875 C 247.269531 669.910156 243.914062 675.832031 238.074219 677.132812 C 235.324219 677.742188 232.394531 677.203125 229.648438 677.808594 C 227.492188 678.285156 225.566406 679.421875 223.441406 680.046875 C 219.707031 681.152344 215.464844 680.640625 212.121094 682.632812 C 210.359375 678.636719 206.066406 675.375 201.871094 674.171875 C 199.402344 673.464844 196.785156 673.414062 194.265625 672.875 C 189.464844 671.855469 184.210938 668.148438 181.300781 664.203125 C 179.144531 666.195312 178.75 666.574219 176.199219 668.054688 C 173.648438 669.535156 170.652344 670.410156 167.761719 669.980469 C 165.113281 669.585938 162.691406 668.070312 160.996094 666.015625 C 159.285156 663.957031 157.902344 660.535156 157.558594 657.882812 C 155.332031 661.4375 151.253906 663.628906 147.09375 664.054688 C 144.246094 664.351562 141.347656 663.890625 138.535156 664.414062 C 134.601562 665.15625 130.441406 668.511719 128.792969 672.148438 C 125.320312 669.578125 120.648438 669.25 116.351562 669.84375 C 109.457031 670.796875 103.039062 673.8125 96.324219 675.605469 C 88.574219 677.679688 77.742188 677.730469 71.621094 675.375 C 69.464844 668.1875 69.351562 660.402344 71.277344 653.144531 C 72.789062 647.464844 75.503906 642.152344 77.023438 636.472656 C 78.554688 630.796875 78.898438 623.800781 75.625 618.914062 C 77.433594 617.449219 79.246094 615.984375 80.742188 614.207031 C 82.238281 612.425781 83.410156 610.324219 83.703125 608.015625 C 84.046875 605.347656 83.210938 602.636719 83.605469 599.96875 C 84.164062 596.132812 87.109375 593.15625 89.886719 590.457031 C 86.105469 589.484375 81.132812 587.890625 79.058594 584.582031 C 77.363281 581.882812 77.492188 578.34375 78.628906 575.367188 C 79.765625 572.390625 81.789062 569.835938 83.777344 567.351562 C 80.125 563.074219 75.914062 558.628906 74.742188 553.117188 C 74.167969 550.414062 74.265625 547.621094 73.738281 544.90625 C 73.226562 542.191406 71.929688 539.410156 69.472656 538.15625 C 68.769531 537.796875 67.976562 537.566406 67.304688 537.152344 C 66.613281 536.738281 66.019531 536.0625 66.003906 535.257812 L 66.003906 535.242188 C 65.726562 527.378906 69.871094 520.023438 70.976562 512.21875 C 71.289062 510.015625 71.351562 507.746094 72.0625 505.636719 C 73.183594 502.332031 77.210938 499.585938 79.699219 497.113281 C 77.789062 494.597656 75.878906 492.046875 74.664062 489.136719 C 73.449219 486.226562 72.984375 482.867188 74.085938 479.921875 C 74.5625 478.621094 75.339844 477.433594 76.242188 476.398438 C 79.335938 472.828125 83.929688 470.953125 88.324219 469.226562 L 88.390625 469.210938 C 86.796875 466.578125 86.398438 463.433594 86.121094 460.371094 C 85.859375 457.3125 85.660156 454.167969 84.425781 451.371094 C 83.191406 448.574219 80.621094 446.109375 77.546875 445.972656 C 79.769531 442.683594 80.03125 437.628906 79.011719 433.796875 C 77.988281 429.964844 76.164062 426.378906 75.160156 422.542969 C 74.15625 418.707031 74.070312 414.332031 76.328125 411.074219 C 70.996094 408.09375 65.597656 405.019531 62.417969 399.800781 C 61.21875 397.84375 60.394531 395.507812 60.808594 393.25 C 61.121094 391.539062 62.105469 390.027344 63.179688 388.640625 C 64.921875 386.386719 66.929688 384.347656 69.167969 382.570312 C 70.664062 381.386719 72.277344 380.28125 73.464844 378.785156 C 74.648438 377.289062 75.359375 375.246094 74.714844 373.4375 C 74.371094 370.425781 74.46875 366.804688 75.421875 363.910156 C 76.488281 360.664062 78.875 357.96875 79.847656 354.695312 C 80.96875 350.960938 80.109375 346.546875 77.546875 343.617188 C 79.339844 342.859375 81.199219 342.054688 82.484375 340.589844 C 83.636719 339.273438 84.210938 337.558594 84.65625 335.867188 C 85.90625 331.125 86.335938 326.207031 86.765625 321.335938 C 86.8125 320.859375 86.847656 320.332031 86.582031 319.921875 C 86.335938 319.507812 84.753906 319.101562 84.457031 319.476562 C 79.058594 318.179688 74.632812 313.488281 73.648438 308.007812 C 72.660156 302.527344 75.195312 296.601562 79.816406 293.507812 C 75.78125 290.976562 72.953125 286.53125 71.507812 281.988281 C 70.0625 277.445312 69.597656 272.660156 68.875 267.949219 C 68.152344 263.242188 67.097656 258.46875 64.648438 254.390625 C 68.480469 251.511719 72.609375 248.726562 73.878906 244.300781 C 74.8125 241.078125 74.601562 237.605469 75.375 234.328125 C 76.425781 229.804688 79.40625 225.773438 83.40625 223.433594 C 81.433594 220.933594 79.488281 217.691406 78.503906 214.664062 C 77.515625 211.636719 77.496094 208.167969 79.144531 205.433594 C 81.21875 201.960938 85.84375 200.1875 89.792969 199.265625 L 89.957031 199.265625 C 88 197.816406 88.078125 197.914062 86.664062 195.941406 C 84.953125 193.539062 84.210938 190.5625 83.765625 187.632812 C 83.320312 184.703125 83.125 181.726562 82.300781 178.878906 C 82.367188 176.855469 81.28125 174.453125 79.585938 173.347656 C 78.464844 172.625 77 172.167969 76.457031 170.949219 C 76.113281 170.15625 76.273438 169.21875 76.71875 168.492188 C 77.164062 167.773438 77.96875 167.097656 78.730469 166.683594 C 78.484375 158.570312 75.175781 150.902344 73.082031 143.054688 C 70.5 133.425781 69.707031 123.339844 70.765625 113.433594 C 76.902344 111.078125 88.621094 111.65625 96.371094 113.730469 C 103.085938 115.527344 109.503906 118.535156 116.398438 119.492188 C 120.679688 120.082031 125.351562 119.753906 128.84375 117.191406 C 130.488281 120.84375 134.648438 124.199219 138.585938 124.921875 C 141.398438 125.453125 144.292969 124.992188 147.140625 125.285156 C 151.320312 125.714844 155.386719 127.902344 157.605469 131.453125 C 157.964844 128.804688 159.347656 125.398438 161.042969 123.324219 C 162.753906 121.265625 165.171875 119.769531 167.808594 119.355469 C 170.722656 118.914062 173.699219 119.800781 176.246094 121.28125 C 178.800781 122.746094 179.195312 123.125 181.347656 125.132812 C 184.277344 121.183594 189.511719 117.480469 194.316406 116.460938 C 196.832031 115.929688 199.449219 115.867188 201.917969 115.160156 C 206.128906 113.957031 210.410156 110.71875 212.167969 106.699219 C 215.527344 108.695312 219.753906 108.164062 223.492188 109.285156 C 225.597656 109.914062 227.539062 111.046875 229.695312 111.523438 C 232.457031 112.132812 235.371094 111.59375 238.121094 112.199219 C 243.964844 113.496094 247.320312 119.441406 252.980469 121.367188 C 256.453125 118.847656 260.382812 116.957031 264.53125 115.851562 C 265.683594 115.539062 266.871094 115.292969 268.039062 115.476562 C 269.847656 115.753906 271.359375 117.007812 272.578125 118.371094 C 275.625 121.746094 277.449219 125.21875 277.941406 129.742188 C 280.773438 128.445312 283.917969 128.078125 287.011719 127.75 C 290.101562 127.421875 293.246094 127.074219 296.09375 125.808594 C 298.941406 124.542969 301.539062 122.003906 302.167969 118.964844 C 305.296875 121.84375 310.070312 122.785156 314.050781 121.320312 C 316.597656 120.382812 318.738281 118.585938 321.222656 117.515625 C 326.078125 115.425781 331.394531 116.3125 336.613281 117.1875 C 339.542969 112.347656 343.457031 108.132812 348.050781 104.84375 C 349.316406 103.9375 350.664062 103.101562 352.199219 102.851562 C 354.023438 102.570312 355.867188 103.179688 357.515625 103.984375 C 363.390625 106.832031 367.914062 112.347656 369.574219 118.667969 L 369.558594 117.714844 C 373.953125 115.757812 379.054688 115.457031 383.644531 116.875 C 387.035156 117.929688 390.097656 119.855469 393.484375 120.910156 C 396.875 121.960938 400.957031 121.929688 403.542969 119.496094 C 404.761719 123.019531 407.9375 126.046875 411.507812 127.183594 C 416.589844 128.792969 422.484375 126.984375 427.222656 129.421875 C 429.035156 125.210938 431.648438 121.078125 434.894531 117.835938 C 435.996094 116.734375 437.246094 115.679688 438.761719 115.304688 C 440.585938 114.859375 442.480469 115.46875 444.222656 116.160156 C 448.550781 117.886719 450.296875 118.515625 454.03125 121.3125 C 457.027344 118.296875 460.171875 115.1875 464.21875 113.855469 C 467.773438 112.6875 471.707031 113.03125 475.261719 111.882812 C 477.777344 111.074219 480.046875 109.542969 482.632812 108.96875 C 484.359375 108.589844 486.136719 108.652344 487.898438 108.492188 C 489.660156 108.34375 491.46875 107.933594 492.816406 106.796875 C 494.921875 110.347656 498.164062 114.003906 502.03125 115.488281 C 506.738281 117.296875 512.53125 115.207031 516.773438 117.90625 C 518.453125 118.957031 519.621094 120.621094 520.988281 122.03125 C 522.351562 123.445312 524.132812 124.734375 526.105469 124.632812 C 529.425781 122.316406 533.179688 120.039062 536.949219 118.542969 C 537.953125 118.152344 539.007812 117.785156 540.078125 117.9375 C 541.492188 118.132812 542.609375 119.203125 543.53125 120.304688 C 546.117188 123.367188 547.941406 127.054688 548.832031 130.953125 C 550.921875 127.84375 555.039062 126.246094 558.738281 125.652344 C 562.441406 125.0625 566.273438 125.011719 569.761719 123.613281 C 572.753906 122.410156 575.339844 120.207031 577.019531 117.445312 C 580.6875 120.242188 586.117188 120.390625 590.628906 119.402344 C 595.136719 118.429688 599.320312 116.355469 603.675781 114.875 C 613.175781 111.632812 625.367188 111.109375 635.144531 113.425781 C 636.195312 123.332031 635.40625 133.417969 632.824219 143.046875 C 630.71875 150.894531 627.410156 158.550781 627.179688 166.675781 C 627.9375 167.070312 628.726562 167.742188 629.1875 168.484375 C 629.648438 169.230469 629.796875 170.164062 629.449219 170.941406 C 628.90625 172.175781 627.441406 172.617188 626.324219 173.339844 C 624.628906 174.445312 623.539062 176.847656 623.605469 178.871094 C 622.800781 181.71875 622.601562 184.695312 622.140625 187.625 C 621.683594 190.554688 620.960938 193.515625 619.246094 195.933594 C 617.832031 197.90625 617.910156 197.8125 615.953125 199.257812 L 616.117188 199.257812 C 620.066406 200.179688 624.671875 201.957031 626.761719 205.425781 C 628.390625 208.160156 628.390625 211.632812 627.40625 214.65625 C 626.417969 217.6875 624.476562 220.925781 622.503906 223.425781 C 626.5 225.765625 629.484375 229.8125 630.535156 234.320312 C 631.292969 237.597656 631.09375 241.050781 632.03125 244.292969 C 633.3125 248.703125 637.429688 251.503906 641.261719 254.382812 C 638.792969 258.460938 637.757812 263.234375 637.035156 267.941406 C 636.3125 272.652344 635.851562 277.4375 634.402344 281.980469 C 632.953125 286.523438 630.136719 290.964844 626.09375 293.5 C 630.71875 296.59375 633.234375 302.539062 632.261719 308 C 631.289062 313.460938 626.863281 318.171875 621.453125 319.46875 C 621.152344 319.09375 619.574219 319.5 619.328125 319.914062 C 619.082031 320.328125 619.113281 320.835938 619.144531 321.328125 C 619.574219 326.214844 620.019531 331.117188 621.253906 335.855469 C 621.699219 337.550781 622.273438 339.261719 623.425781 340.582031 C 624.707031 342.046875 626.570312 342.851562 628.363281 343.609375 C 625.792969 346.539062 624.941406 350.953125 626.0625 354.6875 C 627.035156 357.960938 629.417969 360.660156 630.488281 363.902344 C 631.441406 366.78125 631.539062 370.398438 631.195312 373.429688 C 630.550781 375.222656 631.261719 377.28125 632.445312 378.777344 C 633.628906 380.273438 635.242188 381.363281 636.738281 382.558594 C 638.964844 384.339844 640.984375 386.378906 642.730469 388.632812 C 643.796875 390.015625 644.789062 391.53125 645.101562 393.242188 C 645.433594 395.496094 644.597656 397.8125 643.394531 399.789062 Z M 643.394531 399.789062 " fill-opacity="1" fill-rule="nonzero"/></g></g><g clip-path="url(#b0c95e7172)"><g clip-path="url(#72d8001ec6)"><path fill="#f7cc4e" d="M 55.113281 96.945312 L 650.613281 96.945312 L 650.613281 692.445312 L 55.113281 692.445312 Z M 55.113281 96.945312 " fill-opacity="1" fill-rule="nonzero"/></g></g><g fill="#37002f" fill-opacity="1"><g transform="translate(159.634917, 612.41423)"><g><path d="M 299.832031 -242.769531 C 329.914062 -248.539062 355.96875 -277.695312 364.390625 -319.550781 C 375.457031 -376.285156 344.097656 -421.792969 285.214844 -435.140625 L 298.230469 -492.097656 L 204.414062 -494.828125 L 192.039062 -440.898438 L 106.25 -443.398438 L 6.640625 0.191406 L 100.734375 2.933594 L 86.113281 67.597656 L 179.929688 70.328125 L 194.550781 5.664062 C 290.042969 7.890625 355.386719 -48.375 369.78125 -124.125 C 383.53125 -196.847656 342.980469 -240.683594 299.832031 -242.769531 Z M 201.496094 -337.589844 L 221.144531 -337.015625 C 248.820312 -336.210938 262.5 -320.855469 257.742188 -300.222656 C 251.710938 -273.804688 227.964844 -266.742188 206.378906 -267.371094 L 185.898438 -267.964844 Z M 255.847656 -139.90625 C 250.457031 -116.519531 228.957031 -101.078125 194.363281 -102.085938 L 148.976562 -103.40625 L 167.769531 -187.617188 L 214.53125 -185.976562 C 244.144531 -185.117188 262.15625 -166.3125 255.847656 -139.90625 Z M 255.847656 -139.90625 "/></g></g></g><g fill="#ffffff" fill-opacity="1"><g transform="translate(197.222116, 585.768917)"><g><path d="M 299.832031 -242.769531 C 329.914062 -248.539062 355.96875 -277.695312 364.390625 -319.550781 C 375.457031 -376.285156 344.097656 -421.792969 285.214844 -435.140625 L 298.230469 -492.097656 L 204.414062 -494.828125 L 192.039062 -440.898438 L 106.25 -443.398438 L 6.640625 0.191406 L 100.734375 2.933594 L 86.113281 67.597656 L 179.929688 70.328125 L 194.550781 5.664062 C 290.042969 7.890625 355.386719 -48.375 369.78125 -124.125 C 383.53125 -196.847656 342.980469 -240.683594 299.832031 -242.769531 Z M 201.496094 -337.589844 L 221.144531 -337.015625 C 248.820312 -336.210938 262.5 -320.855469 257.742188 -300.222656 C 251.710938 -273.804688 227.964844 -266.742188 206.378906 -267.371094 L 185.898438 -267.964844 Z M 255.847656 -139.90625 C 250.457031 -116.519531 228.957031 -101.078125 194.363281 -102.085938 L 148.976562 -103.40625 L 167.769531 -187.617188 L 214.53125 -185.976562 C 244.144531 -185.117188 262.15625 -166.3125 255.847656 -139.90625 Z M 255.847656 -139.90625 "/></g></g></g><path stroke-linecap="butt" transform="matrix(6.532698, 0.190169, -0.190169, 6.532698, 223.122093, -22.522993)" fill="none" stroke-linejoin="miter" d="M 42.662062 54.352155 C 47.021045 53.383345 50.693551 49.024389 51.743153 42.889328 C 53.115592 34.574895 48.352685 28.076858 39.71552 26.381353 L 41.370227 18.027011 L 27.687839 18.026475 L 26.113516 25.937785 L 13.601921 25.93725 L 0.96864 90.999993 L 14.691671 90.999943 L 12.834882 100.484918 L 26.517253 100.484856 L 28.374042 90.999882 C 42.298629 90.919221 51.581477 82.443278 53.357781 71.34378 C 55.053139 60.688526 48.958449 54.473223 42.662062 54.352155 Z M 27.930068 40.952137 L 30.795452 40.951841 C 34.831647 40.952142 36.890462 43.131545 36.284956 46.158672 C 35.51815 50.033011 32.087104 51.163163 28.938884 51.163322 L 25.952113 51.163565 Z M 36.688379 69.527509 C 36.002537 72.958201 32.935021 75.29939 27.889483 75.299171 L 21.270142 75.299321 L 23.651628 62.948628 L 30.473068 62.989235 C 34.791484 62.989095 37.495846 65.653182 36.688379 69.527509 Z M 36.688379 69.527509 " stroke="#000000" stroke-width="5.786669" stroke-opacity="1" stroke-miterlimit="4"/><g fill="#d9d9d9" fill-opacity="1"><g transform="translate(205.8167, 571.952561)"><g><path d="M 285.667969 -231.296875 C 314.328125 -236.796875 339.148438 -264.574219 347.171875 -304.453125 C 357.71875 -358.507812 327.839844 -401.863281 271.738281 -414.582031 L 284.136719 -468.84375 L 194.753906 -471.445312 L 182.964844 -420.066406 L 101.230469 -422.445312 L 6.328125 0.183594 L 95.976562 2.792969 L 82.042969 64.402344 L 171.425781 67.003906 L 185.359375 5.394531 C 276.339844 7.515625 338.59375 -46.089844 352.308594 -118.257812 C 365.40625 -187.546875 326.777344 -229.308594 285.667969 -231.296875 Z M 191.976562 -321.636719 L 210.695312 -321.09375 C 237.0625 -320.324219 250.097656 -305.695312 245.566406 -286.035156 C 239.820312 -260.867188 217.191406 -254.140625 196.625 -254.738281 L 177.113281 -255.304688 Z M 243.757812 -133.292969 C 238.625 -111.011719 218.140625 -96.304688 185.179688 -97.261719 L 141.9375 -98.523438 L 159.84375 -178.75 L 204.394531 -177.191406 C 232.609375 -176.371094 249.769531 -158.453125 243.757812 -133.292969 Z M 243.757812 -133.292969 "/></g></g></g><g fill="#ffffff" fill-opacity="1"><g transform="translate(213.355119, 572.757847)"><g><path d="M 274.027344 -221.875 C 301.519531 -227.148438 325.332031 -253.792969 333.027344 -292.046875 C 343.144531 -343.898438 314.484375 -385.488281 260.667969 -397.6875 L 272.558594 -449.742188 L 186.820312 -452.238281 L 175.511719 -402.953125 L 97.105469 -405.234375 L 6.070312 0.175781 L 92.066406 2.679688 L 78.699219 61.777344 L 164.441406 64.273438 L 177.804688 5.175781 C 265.082031 7.210938 324.800781 -44.210938 337.953125 -113.441406 C 350.519531 -179.902344 313.460938 -219.964844 274.027344 -221.875 Z M 184.152344 -308.53125 L 202.113281 -308.007812 C 227.402344 -307.273438 239.90625 -293.238281 235.558594 -274.378906 C 230.046875 -250.238281 208.34375 -243.785156 188.613281 -244.359375 L 169.898438 -244.902344 Z M 233.824219 -127.863281 C 228.902344 -106.488281 209.25 -92.378906 177.636719 -93.300781 L 136.15625 -94.507812 L 153.332031 -171.46875 L 196.066406 -169.972656 C 223.132812 -169.183594 239.589844 -151.996094 233.824219 -127.863281 Z M 233.824219 -127.863281 "/></g></g></g></svg>