<svg xmlns="http://www.w3.org/2000/svg" xmlns:xlink="http://www.w3.org/1999/xlink" width="1000" zoomAndPan="magnify" viewBox="0 0 750 749.999995" height="1000" preserveAspectRatio="xMidYMid meet" version="1.0"><defs><g/><clipPath id="20a5021173"><path d="M 17 60 L 689 60 L 689 730 L 17 730 Z M 17 60 " clip-rule="nonzero"/></clipPath><clipPath id="c2ddfc5962"><path d="M 11.308594 165.882812 L 11.308594 623.953125 C 11.308594 686.085938 61.675781 736.453125 123.808594 736.453125 L 581.878906 736.453125 C 644.011719 736.453125 694.378906 686.085938 694.378906 623.953125 L 694.378906 165.882812 C 694.378906 103.75 644.011719 53.382812 581.878906 53.382812 L 123.808594 53.382812 C 61.675781 53.382812 11.308594 103.75 11.308594 165.882812 Z M 11.308594 165.882812 " clip-rule="nonzero"/></clipPath><clipPath id="303dcd03dc"><path d="M 11.308594 53.382812 L 694.558594 53.382812 L 694.558594 736.632812 L 11.308594 736.632812 Z M 11.308594 53.382812 " clip-rule="nonzero"/></clipPath><clipPath id="6924f49014"><path d="M 11.308594 165.882812 L 11.308594 623.953125 C 11.308594 686.085938 61.675781 736.453125 123.808594 736.453125 L 581.878906 736.453125 C 644.011719 736.453125 694.378906 686.085938 694.378906 623.953125 L 694.378906 165.882812 C 694.378906 103.75 644.011719 53.382812 581.878906 53.382812 L 123.808594 53.382812 C 61.675781 53.382812 11.308594 103.75 11.308594 165.882812 Z M 11.308594 165.882812 " clip-rule="nonzero"/></clipPath><clipPath id="e54c1dee6d"><path d="M 36 20 L 733 20 L 733 716 L 36 716 Z M 36 20 " clip-rule="nonzero"/></clipPath><clipPath id="bb451e2094"><path d="M 30.09375 141.046875 L 30.09375 594.640625 C 30.09375 665.058594 87.179688 722.140625 157.59375 722.140625 L 611.191406 722.140625 C 681.609375 722.140625 738.691406 665.058594 738.691406 594.640625 L 738.691406 141.046875 C 738.691406 70.628906 681.609375 13.546875 611.191406 13.546875 L 157.59375 13.546875 C 87.179688 13.546875 30.09375 70.628906 30.09375 141.046875 Z M 30.09375 141.046875 " clip-rule="nonzero"/></clipPath><clipPath id="8cbc6fbb51"><path d="M 158.496094 14.445312 L 610.292969 14.445312 C 680.707031 14.445312 737.792969 71.527344 737.792969 141.945312 L 737.792969 593.742188 C 737.792969 664.160156 680.707031 721.242188 610.292969 721.242188 L 158.496094 721.242188 C 88.078125 721.242188 30.996094 664.160156 30.996094 593.742188 L 30.996094 141.945312 C 30.996094 71.527344 88.078125 14.445312 158.496094 14.445312 Z M 158.496094 14.445312 " clip-rule="nonzero"/></clipPath><clipPath id="6d15222087"><path d="M 30.84375 14.296875 L 738 14.296875 L 738 721.542969 L 30.84375 721.542969 Z M 30.84375 14.296875 " clip-rule="nonzero"/></clipPath><clipPath id="793043d7ab"><path d="M 30.09375 141.046875 L 30.09375 594.640625 C 30.09375 665.058594 87.179688 722.140625 157.59375 722.140625 L 611.191406 722.140625 C 681.609375 722.140625 738.691406 665.058594 738.691406 594.640625 L 738.691406 141.046875 C 738.691406 70.628906 681.609375 13.546875 611.191406 13.546875 L 157.59375 13.546875 C 87.179688 13.546875 30.09375 70.628906 30.09375 141.046875 Z M 30.09375 141.046875 " clip-rule="nonzero"/></clipPath><clipPath id="453bcf836d"><path d="M 158.496094 14.445312 L 610.292969 14.445312 C 680.707031 14.445312 737.792969 71.527344 737.792969 141.945312 L 737.792969 593.742188 C 737.792969 664.160156 680.707031 721.242188 610.292969 721.242188 L 158.496094 721.242188 C 88.078125 721.242188 30.996094 664.160156 30.996094 593.742188 L 30.996094 141.945312 C 30.996094 71.527344 88.078125 14.445312 158.496094 14.445312 Z M 158.496094 14.445312 " clip-rule="nonzero"/></clipPath><clipPath id="f3203acff9"><path d="M 30.09375 13.546875 L 738.832031 13.546875 L 738.832031 722.285156 L 30.09375 722.285156 Z M 30.09375 13.546875 " clip-rule="nonzero"/></clipPath><clipPath id="fda0ae9a05"><path d="M 30.09375 141.046875 L 30.09375 594.640625 C 30.09375 665.058594 87.179688 722.140625 157.59375 722.140625 L 611.191406 722.140625 C 681.609375 722.140625 738.691406 665.058594 738.691406 594.640625 L 738.691406 141.046875 C 738.691406 70.628906 681.609375 13.546875 611.191406 13.546875 L 157.59375 13.546875 C 87.179688 13.546875 30.09375 70.628906 30.09375 141.046875 Z M 30.09375 141.046875 " clip-rule="nonzero"/></clipPath><clipPath id="240fce0a87"><path d="M 30.09375 141.042969 L 30.09375 594.632812 C 30.09375 665.046875 87.175781 722.132812 157.59375 722.132812 L 611.183594 722.132812 C 681.597656 722.132812 738.679688 665.046875 738.679688 594.632812 L 738.679688 141.042969 C 738.679688 70.628906 681.597656 13.546875 611.183594 13.546875 L 157.59375 13.546875 C 87.175781 13.546875 30.09375 70.628906 30.09375 141.042969 Z M 30.09375 141.042969 " clip-rule="nonzero"/></clipPath><clipPath id="e8bc862043"><path d="M 60 102 L 646 102 L 646 687 L 60 687 Z M 60 102 " clip-rule="nonzero"/></clipPath><clipPath id="7647733b30"><path d="M 55.113281 194.445312 L 55.113281 595.304688 C 55.113281 649.152344 98.765625 692.804688 152.613281 692.804688 L 553.472656 692.804688 C 607.320312 692.804688 650.972656 649.152344 650.972656 595.304688 L 650.972656 194.445312 C 650.972656 140.597656 607.320312 96.945312 553.472656 96.945312 L 152.613281 96.945312 C 98.765625 96.945312 55.113281 140.597656 55.113281 194.445312 Z M 55.113281 194.445312 " clip-rule="nonzero"/></clipPath><clipPath id="b83c7500c0"><path d="M 55.113281 96.945312 L 650.613281 96.945312 L 650.613281 692.445312 L 55.113281 692.445312 Z M 55.113281 96.945312 " clip-rule="nonzero"/></clipPath><clipPath id="af0b696ad8"><path d="M 55.113281 194.445312 L 55.113281 595.304688 C 55.113281 649.152344 98.765625 692.804688 152.613281 692.804688 L 553.472656 692.804688 C 607.320312 692.804688 650.972656 649.152344 650.972656 595.304688 L 650.972656 194.445312 C 650.972656 140.597656 607.320312 96.945312 553.472656 96.945312 L 152.613281 96.945312 C 98.765625 96.945312 55.113281 140.597656 55.113281 194.445312 Z M 55.113281 194.445312 " clip-rule="nonzero"/></clipPath></defs><g clip-path="url(#20a5021173)"><g clip-path="url(#c2ddfc5962)"><path fill="#000000" d="M 686.085938 400.757812 C 682.445312 406.742188 676.25 410.269531 670.136719 413.683594 C 672.722656 417.421875 672.625 422.441406 671.476562 426.839844 C 670.324219 431.238281 668.226562 435.351562 667.058594 439.75 C 665.886719 444.148438 666.1875 449.964844 668.738281 453.71875 C 665.226562 453.867188 662.28125 456.679688 660.847656 459.910156 C 659.429688 463.136719 659.203125 466.722656 658.902344 470.234375 C 658.601562 473.746094 658.128906 477.367188 656.296875 480.371094 L 656.375 480.386719 C 661.414062 482.386719 666.660156 484.523438 670.230469 488.617188 C 671.269531 489.824219 672.15625 491.183594 672.703125 492.65625 C 673.953125 496.054688 673.441406 499.90625 672.042969 503.226562 C 670.644531 506.566406 668.4375 509.492188 666.269531 512.378906 C 669.101562 515.191406 673.742188 518.363281 675.027344 522.15625 C 675.835938 524.574219 675.914062 527.179688 676.273438 529.707031 C 677.523438 538.652344 682.277344 547.074219 681.976562 556.113281 L 681.976562 556.128906 C 681.957031 557.054688 681.277344 557.828125 680.488281 558.304688 C 679.695312 558.777344 678.804688 559.039062 677.996094 559.453125 C 675.179688 560.890625 673.691406 564.082031 673.105469 567.195312 C 672.515625 570.3125 672.613281 573.523438 671.953125 576.613281 C 670.613281 582.914062 665.78125 588.035156 661.589844 592.941406 C 663.875 595.8125 666.191406 598.71875 667.496094 602.136719 C 668.796875 605.550781 668.949219 609.609375 667.003906 612.707031 C 664.625 616.5 658.90625 618.3125 654.582031 619.445312 C 657.773438 622.542969 661.152344 625.957031 661.789062 630.355469 C 662.222656 633.417969 661.277344 636.527344 661.675781 639.585938 C 662.015625 642.226562 663.355469 644.664062 665.070312 646.6875 C 666.789062 648.707031 668.882812 650.40625 670.941406 652.085938 C 667.203125 657.691406 667.582031 665.714844 669.339844 672.230469 C 671.097656 678.742188 674.207031 684.820312 675.929688 691.351562 C 678.136719 699.675781 677.988281 708.605469 675.53125 716.851562 C 664.339844 719.511719 651.371094 719.53125 640.476562 715.8125 C 635.476562 714.09375 630.683594 711.738281 625.507812 710.621094 C 620.335938 709.503906 614.105469 709.679688 609.898438 712.867188 C 607.972656 709.695312 605.007812 707.164062 601.574219 705.789062 C 597.589844 704.1875 593.171875 704.128906 588.929688 703.449219 C 584.683594 702.769531 579.960938 700.941406 577.566406 697.371094 C 576.546875 701.839844 574.453125 706.070312 571.488281 709.582031 C 570.429688 710.832031 569.148438 712.054688 567.527344 712.300781 C 566.300781 712.46875 565.089844 712.054688 563.9375 711.605469 C 559.597656 709.90625 555.3125 707.300781 551.496094 704.621094 C 549.234375 704.503906 547.195312 705.976562 545.628906 707.601562 C 544.0625 709.222656 542.699219 711.132812 540.796875 712.339844 C 535.90625 715.417969 529.261719 713.015625 523.882812 715.109375 C 519.464844 716.828125 515.726562 721 513.3125 725.078125 C 511.765625 723.757812 509.6875 723.304688 507.671875 723.136719 C 505.648438 722.964844 503.613281 723.039062 501.632812 722.589844 C 498.667969 721.929688 496.0625 720.171875 493.175781 719.246094 C 489.082031 717.925781 484.589844 718.320312 480.511719 716.984375 C 475.886719 715.472656 472.265625 711.886719 468.828125 708.429688 C 464.542969 711.640625 462.5625 712.355469 457.574219 714.335938 C 455.578125 715.128906 453.40625 715.824219 451.308594 715.320312 C 449.574219 714.886719 448.140625 713.675781 446.875 712.414062 C 443.15625 708.71875 440.152344 703.960938 438.078125 699.128906 C 432.640625 701.917969 425.882812 699.847656 420.046875 701.695312 C 415.972656 703 412.328125 706.453125 410.914062 710.511719 C 407.96875 707.699219 403.269531 707.679688 399.378906 708.890625 C 395.488281 710.097656 391.980469 712.304688 388.089844 713.515625 C 382.820312 715.136719 376.96875 714.800781 371.933594 712.554688 L 371.953125 711.464844 C 370.042969 718.714844 364.851562 725.035156 358.117188 728.304688 C 356.210938 729.226562 354.097656 729.925781 352.019531 729.605469 C 350.265625 729.324219 348.695312 728.359375 347.261719 727.320312 C 341.992188 723.5625 337.503906 718.714844 334.140625 713.164062 C 328.160156 714.183594 322.0625 715.203125 316.492188 712.785156 C 313.640625 711.558594 311.167969 709.5 308.261719 708.421875 C 303.695312 706.742188 298.222656 707.835938 294.632812 711.121094 C 293.914062 707.628906 290.914062 704.722656 287.667969 703.269531 C 284.402344 701.820312 280.792969 701.421875 277.246094 701.042969 C 273.699219 700.667969 270.09375 700.253906 266.847656 698.757812 C 266.28125 703.949219 264.207031 707.933594 260.695312 711.800781 C 259.277344 713.367188 257.5625 714.800781 255.484375 715.125 C 254.144531 715.335938 252.765625 715.046875 251.464844 714.691406 C 246.707031 713.40625 242.199219 711.257812 238.210938 708.367188 C 231.71875 710.59375 227.867188 717.386719 221.167969 718.882812 C 218.015625 719.578125 214.65625 718.960938 211.503906 719.65625 C 209.03125 720.203125 206.824219 721.503906 204.386719 722.222656 C 200.101562 723.488281 195.234375 722.902344 191.398438 725.1875 C 189.378906 720.601562 184.457031 716.863281 179.640625 715.484375 C 176.808594 714.675781 173.808594 714.613281 170.921875 713.996094 C 165.410156 712.824219 159.386719 708.578125 156.050781 704.050781 C 153.578125 706.335938 153.121094 706.769531 150.199219 708.46875 C 147.269531 710.164062 143.835938 711.167969 140.515625 710.675781 C 137.480469 710.226562 134.703125 708.484375 132.757812 706.125 C 130.792969 703.769531 129.210938 699.84375 128.8125 696.800781 C 126.261719 700.875 121.582031 703.390625 116.808594 703.878906 C 113.542969 704.21875 110.21875 703.691406 106.996094 704.292969 C 102.484375 705.144531 97.710938 708.992188 95.820312 713.164062 C 91.835938 710.214844 86.476562 709.839844 81.550781 710.519531 C 73.640625 711.613281 66.28125 715.070312 58.578125 717.128906 C 49.6875 719.503906 37.265625 719.566406 30.242188 716.863281 C 27.769531 708.617188 27.636719 699.6875 29.847656 691.363281 C 31.582031 684.851562 34.695312 678.753906 36.4375 672.242188 C 38.195312 665.730469 38.589844 657.707031 34.832031 652.101562 C 36.910156 650.421875 38.984375 648.742188 40.703125 646.699219 C 42.417969 644.660156 43.761719 642.246094 44.101562 639.601562 C 44.496094 636.539062 43.535156 633.429688 43.984375 630.371094 C 44.628906 625.972656 48.007812 622.554688 51.195312 619.460938 C 46.855469 618.34375 41.152344 616.511719 38.773438 612.71875 C 36.828125 609.625 36.976562 605.566406 38.28125 602.152344 C 39.582031 598.734375 41.90625 595.808594 44.1875 592.957031 C 39.996094 588.046875 35.164062 582.953125 33.820312 576.628906 C 33.160156 573.53125 33.277344 570.324219 32.671875 567.210938 C 32.082031 564.09375 30.59375 560.90625 27.78125 559.46875 C 26.96875 559.054688 26.0625 558.789062 25.289062 558.316406 C 24.496094 557.84375 23.816406 557.070312 23.800781 556.144531 L 23.800781 556.125 C 23.480469 547.105469 28.234375 538.667969 29.5 529.71875 C 29.859375 527.191406 29.933594 524.585938 30.75 522.167969 C 32.03125 518.375 36.65625 515.222656 39.503906 512.390625 C 37.316406 509.503906 35.125 506.578125 33.730469 503.238281 C 32.335938 499.902344 31.804688 496.046875 33.070312 492.667969 C 33.617188 491.179688 34.503906 489.820312 35.542969 488.628906 C 39.089844 484.53125 44.359375 482.382812 49.402344 480.402344 L 49.476562 480.382812 C 47.648438 477.363281 47.191406 473.757812 46.875 470.246094 C 46.574219 466.734375 46.34375 463.128906 44.929688 459.921875 C 43.511719 456.714844 40.566406 453.886719 37.039062 453.730469 C 39.585938 449.957031 39.886719 444.160156 38.71875 439.765625 C 37.546875 435.371094 35.453125 431.253906 34.300781 426.855469 C 33.148438 422.457031 33.050781 417.4375 35.640625 413.699219 C 29.523438 410.285156 23.332031 406.753906 19.6875 400.769531 C 18.308594 398.527344 17.363281 395.84375 17.839844 393.257812 C 18.199219 391.292969 19.328125 389.558594 20.558594 387.96875 C 22.554688 385.382812 24.859375 383.042969 27.429688 381.003906 C 29.144531 379.644531 30.996094 378.378906 32.355469 376.664062 C 33.714844 374.945312 34.527344 372.605469 33.789062 370.527344 C 33.394531 367.074219 33.507812 362.917969 34.601562 359.601562 C 35.824219 355.878906 38.5625 352.789062 39.679688 349.03125 C 40.960938 344.746094 39.980469 339.6875 37.039062 336.324219 C 39.09375 335.457031 41.226562 334.53125 42.703125 332.851562 C 44.023438 331.339844 44.683594 329.375 45.191406 327.433594 C 46.628906 321.996094 47.121094 316.351562 47.609375 310.765625 C 47.664062 310.21875 47.707031 309.613281 47.402344 309.144531 C 47.121094 308.671875 45.308594 308.203125 44.964844 308.632812 C 38.773438 307.144531 33.695312 301.761719 32.566406 295.480469 C 31.429688 289.195312 34.339844 282.394531 39.640625 278.847656 C 35.015625 275.941406 31.769531 270.84375 30.109375 265.632812 C 28.453125 260.425781 27.921875 254.933594 27.09375 249.53125 C 26.261719 244.128906 25.050781 238.65625 22.242188 233.976562 C 26.640625 230.675781 31.375 227.480469 32.828125 222.40625 C 33.902344 218.707031 33.660156 214.722656 34.546875 210.964844 C 35.753906 205.773438 39.171875 201.152344 43.757812 198.46875 C 41.496094 195.601562 39.265625 191.882812 38.132812 188.410156 C 37 184.9375 36.984375 180.957031 38.871094 177.824219 C 41.25 173.839844 46.554688 171.804688 51.085938 170.746094 L 51.273438 170.746094 C 49.027344 169.085938 49.117188 169.199219 47.496094 166.933594 C 45.535156 164.179688 44.683594 160.765625 44.171875 157.40625 C 43.664062 154.042969 43.433594 150.628906 42.492188 147.363281 C 42.570312 145.042969 41.324219 142.285156 39.378906 141.019531 C 38.09375 140.191406 36.414062 139.664062 35.789062 138.265625 C 35.394531 137.359375 35.578125 136.285156 36.089844 135.449219 C 36.601562 134.621094 37.523438 133.847656 38.394531 133.375 C 38.113281 124.066406 34.320312 115.273438 31.917969 106.269531 C 28.953125 95.226562 28.046875 83.65625 29.257812 72.292969 C 36.300781 69.59375 49.742188 70.253906 58.632812 72.636719 C 66.332031 74.695312 73.695312 78.144531 81.605469 79.242188 C 86.515625 79.921875 91.875 79.542969 95.875 76.601562 C 97.765625 80.792969 102.539062 84.644531 107.050781 85.472656 C 110.28125 86.078125 113.597656 85.550781 116.863281 85.886719 C 121.660156 86.378906 126.324219 88.890625 128.867188 92.964844 C 129.28125 89.925781 130.867188 86.019531 132.8125 83.636719 C 134.773438 81.28125 137.546875 79.5625 140.570312 79.089844 C 143.914062 78.578125 147.328125 79.597656 150.253906 81.296875 C 153.179688 82.976562 153.632812 83.410156 156.105469 85.714844 C 159.464844 81.183594 165.464844 76.933594 170.976562 75.765625 C 173.863281 75.160156 176.863281 75.085938 179.695312 74.277344 C 184.527344 72.894531 189.4375 69.179688 191.453125 64.570312 C 195.308594 66.859375 200.15625 66.253906 204.441406 67.535156 C 206.859375 68.253906 209.085938 69.558594 211.558594 70.105469 C 214.730469 70.800781 218.070312 70.183594 221.222656 70.878906 C 227.925781 72.367188 231.773438 79.183594 238.265625 81.394531 C 242.25 78.507812 246.761719 76.335938 251.519531 75.066406 C 252.839844 74.707031 254.199219 74.425781 255.539062 74.636719 C 257.617188 74.953125 259.351562 76.394531 260.75 77.960938 C 264.242188 81.832031 266.335938 85.808594 266.902344 91 C 270.148438 89.511719 273.753906 89.09375 277.300781 88.714844 C 280.847656 88.335938 284.457031 87.941406 287.722656 86.488281 C 290.984375 85.035156 293.96875 82.125 294.6875 78.636719 C 298.277344 81.941406 303.75 83.019531 308.316406 81.339844 C 311.242188 80.265625 313.695312 78.207031 316.546875 76.976562 C 322.117188 74.582031 328.214844 75.597656 334.195312 76.597656 C 337.558594 71.046875 342.046875 66.214844 347.316406 62.441406 C 348.769531 61.402344 350.316406 60.441406 352.074219 60.15625 C 354.167969 59.835938 356.28125 60.53125 358.171875 61.457031 C 364.910156 64.722656 370.101562 71.046875 372.007812 78.296875 L 371.988281 77.203125 C 377.03125 74.957031 382.882812 74.617188 388.144531 76.242188 C 392.035156 77.449219 395.542969 79.660156 399.433594 80.871094 C 403.324219 82.078125 408.003906 82.039062 410.96875 79.25 C 412.367188 83.289062 416.007812 86.761719 420.101562 88.066406 C 425.9375 89.914062 432.695312 87.835938 438.132812 90.632812 C 440.207031 85.800781 443.207031 81.0625 446.929688 77.34375 C 448.195312 76.078125 449.628906 74.871094 451.363281 74.441406 C 453.460938 73.929688 455.632812 74.625 457.628906 75.421875 C 462.59375 77.402344 464.597656 78.125 468.882812 81.328125 C 472.316406 77.875 475.921875 74.308594 480.566406 72.777344 C 484.644531 71.4375 489.15625 71.835938 493.230469 70.515625 C 496.117188 69.589844 498.722656 67.832031 501.6875 67.171875 C 503.667969 66.738281 505.710938 66.8125 507.726562 66.625 C 509.75 66.457031 511.824219 65.984375 513.367188 64.679688 C 515.785156 68.757812 519.503906 72.949219 523.9375 74.648438 C 529.339844 76.726562 535.984375 74.332031 540.851562 77.421875 C 542.777344 78.628906 544.117188 80.539062 545.683594 82.160156 C 547.25 83.78125 549.289062 85.253906 551.550781 85.140625 C 555.363281 82.480469 559.667969 79.871094 563.992188 78.15625 C 565.144531 77.703125 566.351562 77.285156 567.582031 77.457031 C 569.203125 77.6875 570.484375 78.910156 571.542969 80.175781 C 574.507812 83.6875 576.601562 87.917969 577.621094 92.390625 C 580.015625 88.824219 584.738281 86.988281 588.984375 86.3125 C 593.230469 85.632812 597.625 85.574219 601.628906 83.972656 C 605.0625 82.589844 608.027344 80.0625 609.953125 76.894531 C 614.160156 80.105469 620.390625 80.273438 625.5625 79.140625 C 630.738281 78.023438 635.53125 75.644531 640.53125 73.949219 C 651.425781 70.226562 665.410156 69.625 676.625 72.285156 C 677.832031 83.648438 676.925781 95.21875 673.964844 106.261719 C 671.546875 115.265625 667.753906 124.042969 667.488281 133.363281 C 668.359375 133.816406 669.265625 134.589844 669.792969 135.441406 C 670.324219 136.292969 670.492188 137.367188 670.09375 138.257812 C 669.472656 139.671875 667.789062 140.183594 666.507812 141.011719 C 664.5625 142.277344 663.316406 145.03125 663.390625 147.355469 C 662.46875 150.621094 662.238281 154.035156 661.710938 157.394531 C 661.183594 160.757812 660.355469 164.152344 658.386719 166.925781 C 656.765625 169.191406 656.855469 169.082031 654.613281 170.738281 L 654.800781 170.738281 C 659.328125 171.792969 664.613281 173.835938 667.011719 177.8125 C 668.878906 180.949219 668.878906 184.933594 667.75 188.402344 C 666.617188 191.875 664.390625 195.59375 662.125 198.460938 C 666.710938 201.144531 670.132812 205.785156 671.339844 210.957031 C 672.207031 214.714844 671.980469 218.675781 673.054688 222.394531 C 674.527344 227.453125 679.246094 230.664062 683.640625 233.964844 C 680.808594 238.648438 679.621094 244.121094 678.792969 249.523438 C 677.964844 254.921875 677.4375 260.414062 675.773438 265.625 C 674.113281 270.832031 670.882812 275.929688 666.242188 278.839844 C 671.546875 282.386719 674.433594 289.203125 673.320312 295.46875 C 672.203125 301.734375 667.125 307.136719 660.917969 308.625 C 660.578125 308.191406 658.765625 308.660156 658.484375 309.136719 C 658.199219 309.609375 658.238281 310.191406 658.273438 310.757812 C 658.765625 316.363281 659.273438 321.984375 660.691406 327.421875 C 661.203125 329.367188 661.863281 331.332031 663.183594 332.84375 C 664.652344 334.523438 666.789062 335.445312 668.847656 336.316406 C 665.902344 339.675781 664.921875 344.738281 666.207031 349.023438 C 667.320312 352.777344 670.058594 355.875 671.285156 359.589844 C 672.375 362.890625 672.492188 367.046875 672.09375 370.519531 C 671.355469 372.578125 672.171875 374.9375 673.527344 376.652344 C 674.886719 378.371094 676.738281 379.617188 678.457031 380.992188 C 681.003906 383.035156 683.324219 385.375 685.328125 387.960938 C 686.550781 389.546875 687.6875 391.285156 688.046875 393.246094 C 688.429688 395.828125 687.46875 398.488281 686.085938 400.757812 Z M 686.085938 400.757812 " fill-opacity="1" fill-rule="nonzero"/></g></g><g clip-path="url(#303dcd03dc)"><g clip-path="url(#6924f49014)"><path fill="#f7cc4e" d="M 11.308594 53.382812 L 694.371094 53.382812 L 694.371094 736.445312 L 11.308594 736.445312 Z M 11.308594 53.382812 " fill-opacity="1" fill-rule="nonzero"/></g></g><g clip-path="url(#e54c1dee6d)"><g clip-path="url(#bb451e2094)"><g clip-path="url(#8cbc6fbb51)"><path fill="#000000" d="M 730.085938 373.898438 C 726.308594 380.105469 719.882812 383.765625 713.539062 387.308594 C 716.222656 391.1875 716.125 396.394531 714.929688 400.957031 C 713.734375 405.519531 711.558594 409.785156 710.347656 414.347656 C 709.132812 418.914062 709.445312 424.945312 712.089844 428.835938 C 708.445312 428.992188 705.390625 431.914062 703.902344 435.261719 C 702.433594 438.613281 702.199219 442.328125 701.886719 445.972656 C 701.574219 449.613281 701.082031 453.375 699.183594 456.488281 L 699.265625 456.503906 C 704.492188 458.578125 709.933594 460.792969 713.640625 465.042969 C 714.714844 466.292969 715.636719 467.707031 716.203125 469.230469 C 717.5 472.753906 716.96875 476.753906 715.519531 480.195312 C 714.070312 483.664062 711.777344 486.695312 709.527344 489.691406 C 712.46875 492.609375 717.28125 495.898438 718.613281 499.832031 C 719.453125 502.339844 719.535156 505.042969 719.90625 507.664062 C 721.203125 516.949219 726.132812 525.683594 725.820312 535.058594 L 725.820312 535.078125 C 725.804688 536.039062 725.097656 536.839844 724.277344 537.332031 C 723.457031 537.824219 722.535156 538.097656 721.691406 538.527344 C 718.773438 540.015625 717.230469 543.328125 716.621094 546.558594 C 716.011719 549.789062 716.109375 553.117188 715.425781 556.328125 C 714.035156 562.863281 709.023438 568.175781 704.671875 573.265625 C 707.042969 576.242188 709.449219 579.257812 710.800781 582.804688 C 712.152344 586.347656 712.308594 590.554688 710.289062 593.769531 C 707.824219 597.703125 701.890625 599.582031 697.402344 600.757812 C 700.714844 603.972656 704.21875 607.515625 704.878906 612.078125 C 705.328125 615.253906 704.351562 618.480469 704.761719 621.652344 C 705.117188 624.394531 706.503906 626.921875 708.285156 629.019531 C 710.066406 631.113281 712.242188 632.878906 714.375 634.621094 C 710.496094 640.433594 710.890625 648.757812 712.714844 655.515625 C 714.535156 662.269531 717.761719 668.574219 719.546875 675.351562 C 721.839844 683.984375 721.683594 693.25 719.136719 701.804688 C 707.527344 704.5625 694.074219 704.585938 682.773438 700.726562 C 677.585938 698.945312 672.613281 696.5 667.246094 695.339844 C 661.878906 694.183594 655.417969 694.363281 651.050781 697.671875 C 649.054688 694.382812 645.976562 691.757812 642.417969 690.328125 C 638.28125 688.667969 633.699219 688.605469 629.296875 687.902344 C 624.894531 687.199219 619.996094 685.296875 617.511719 681.59375 C 616.453125 686.234375 614.28125 690.621094 611.207031 694.265625 C 610.109375 695.558594 608.777344 696.828125 607.097656 697.085938 C 605.824219 697.257812 604.570312 696.828125 603.375 696.363281 C 598.871094 694.601562 594.425781 691.898438 590.46875 689.117188 C 588.121094 688.996094 586.003906 690.523438 584.378906 692.210938 C 582.753906 693.890625 581.339844 695.871094 579.367188 697.121094 C 574.292969 700.316406 567.402344 697.828125 561.820312 700 C 557.238281 701.78125 553.363281 706.105469 550.859375 710.339844 C 549.25 708.96875 547.097656 708.496094 545.003906 708.324219 C 542.90625 708.148438 540.796875 708.222656 538.742188 707.753906 C 535.664062 707.070312 532.964844 705.246094 529.96875 704.289062 C 525.722656 702.917969 521.058594 703.328125 516.832031 701.941406 C 512.03125 700.371094 508.277344 696.65625 504.710938 693.070312 C 500.265625 696.398438 498.210938 697.140625 493.039062 699.195312 C 490.964844 700.019531 488.710938 700.742188 486.535156 700.214844 C 484.738281 699.769531 483.25 698.511719 481.9375 697.203125 C 478.078125 693.367188 474.964844 688.429688 472.808594 683.417969 C 467.167969 686.3125 460.160156 684.164062 454.109375 686.082031 C 449.878906 687.433594 446.101562 691.019531 444.632812 695.226562 C 441.574219 692.308594 436.699219 692.289062 432.664062 693.546875 C 428.632812 694.796875 424.988281 697.089844 420.953125 698.347656 C 415.488281 700.027344 409.417969 699.679688 404.195312 697.347656 L 404.214844 696.214844 C 402.234375 703.734375 396.847656 710.292969 389.863281 713.683594 C 387.882812 714.644531 385.691406 715.367188 383.535156 715.035156 C 381.71875 714.742188 380.089844 713.742188 378.601562 712.664062 C 373.136719 708.765625 368.476562 703.734375 364.992188 697.976562 C 358.785156 699.035156 352.457031 700.09375 346.679688 697.585938 C 343.722656 696.316406 341.160156 694.179688 338.144531 693.058594 C 333.40625 691.316406 327.730469 692.449219 324.007812 695.859375 C 323.261719 692.238281 320.148438 689.222656 316.777344 687.71875 C 313.390625 686.210938 309.648438 685.800781 305.96875 685.40625 C 302.289062 685.015625 298.550781 684.585938 295.179688 683.035156 C 294.59375 688.421875 292.441406 692.554688 288.800781 696.566406 C 287.328125 698.191406 285.550781 699.679688 283.394531 700.011719 C 282.007812 700.230469 280.574219 699.933594 279.222656 699.566406 C 274.289062 698.234375 269.609375 696.003906 265.476562 693.003906 C 258.742188 695.3125 254.746094 702.359375 247.796875 703.910156 C 244.527344 704.632812 241.039062 703.992188 237.769531 704.714844 C 235.207031 705.28125 232.914062 706.632812 230.386719 707.378906 C 225.941406 708.691406 220.894531 708.082031 216.914062 710.453125 C 214.816406 705.695312 209.710938 701.816406 204.71875 700.386719 C 201.78125 699.546875 198.667969 699.484375 195.671875 698.84375 C 189.957031 697.628906 183.707031 693.21875 180.242188 688.523438 C 177.679688 690.894531 177.207031 691.34375 174.171875 693.105469 C 171.136719 694.867188 167.574219 695.910156 164.128906 695.398438 C 160.980469 694.929688 158.097656 693.125 156.082031 690.679688 C 154.042969 688.230469 152.402344 684.160156 151.988281 681.003906 C 149.34375 685.230469 144.488281 687.839844 139.539062 688.34375 C 136.152344 688.699219 132.703125 688.152344 129.359375 688.773438 C 124.675781 689.660156 119.726562 693.648438 117.765625 697.976562 C 113.632812 694.921875 108.070312 694.527344 102.960938 695.238281 C 94.753906 696.371094 87.121094 699.957031 79.128906 702.09375 C 69.90625 704.558594 57.019531 704.621094 49.738281 701.816406 C 47.171875 693.261719 47.035156 684 49.324219 675.363281 C 51.125 668.609375 54.355469 662.285156 56.160156 655.527344 C 57.984375 648.773438 58.394531 640.449219 54.496094 634.632812 C 56.652344 632.890625 58.804688 631.148438 60.585938 629.03125 C 62.367188 626.914062 63.761719 624.410156 64.109375 621.667969 C 64.523438 618.492188 63.527344 615.265625 63.992188 612.09375 C 64.660156 607.527344 68.164062 603.984375 71.472656 600.773438 C 66.96875 599.617188 61.054688 597.71875 58.585938 593.78125 C 56.566406 590.570312 56.722656 586.359375 58.074219 582.816406 C 59.425781 579.273438 61.835938 576.238281 64.199219 573.28125 C 59.855469 568.1875 54.84375 562.902344 53.449219 556.339844 C 52.765625 553.128906 52.882812 549.800781 52.253906 546.570312 C 51.644531 543.339844 50.101562 540.035156 47.179688 538.539062 C 46.339844 538.109375 45.398438 537.835938 44.597656 537.347656 C 43.773438 536.855469 43.070312 536.050781 43.050781 535.09375 L 43.050781 535.074219 C 42.722656 525.714844 47.652344 516.960938 48.964844 507.679688 C 49.339844 505.058594 49.414062 502.355469 50.261719 499.847656 C 51.59375 495.914062 56.386719 492.644531 59.34375 489.707031 C 57.074219 486.710938 54.800781 483.671875 53.355469 480.210938 C 51.910156 476.746094 51.355469 472.75 52.667969 469.246094 C 53.238281 467.703125 54.15625 466.289062 55.234375 465.054688 C 58.914062 460.804688 64.378906 458.574219 69.609375 456.519531 L 69.691406 456.5 C 67.792969 453.367188 67.320312 449.628906 66.988281 445.984375 C 66.675781 442.34375 66.441406 438.601562 64.972656 435.277344 C 63.5 431.945312 60.445312 429.011719 56.785156 428.851562 C 59.429688 424.9375 59.742188 418.921875 58.527344 414.363281 C 57.3125 409.804688 55.140625 405.535156 53.945312 400.972656 C 52.75 396.40625 52.652344 391.203125 55.335938 387.324219 C 48.988281 383.78125 42.566406 380.121094 38.785156 373.914062 C 37.355469 371.582031 36.378906 368.800781 36.867188 366.117188 C 37.242188 364.082031 38.414062 362.28125 39.6875 360.632812 C 41.761719 357.949219 44.152344 355.523438 46.816406 353.40625 C 48.597656 352 50.515625 350.683594 51.929688 348.90625 C 53.335938 347.125 54.179688 344.695312 53.417969 342.542969 C 53.003906 338.957031 53.125 334.648438 54.257812 331.203125 C 55.527344 327.34375 58.367188 324.136719 59.523438 320.238281 C 60.855469 315.792969 59.835938 310.546875 56.785156 307.058594 C 58.917969 306.15625 61.128906 305.199219 62.660156 303.457031 C 64.03125 301.886719 64.714844 299.851562 65.246094 297.835938 C 66.734375 292.195312 67.242188 286.339844 67.753906 280.542969 C 67.808594 279.976562 67.851562 279.351562 67.535156 278.863281 C 67.242188 278.371094 65.363281 277.886719 65.007812 278.335938 C 58.585938 276.789062 53.316406 271.207031 52.144531 264.6875 C 50.96875 258.167969 53.988281 251.113281 59.488281 247.433594 C 54.6875 244.421875 51.320312 239.128906 49.597656 233.726562 C 47.878906 228.320312 47.328125 222.625 46.46875 217.023438 C 45.609375 211.421875 44.351562 205.742188 41.4375 200.886719 C 46 197.460938 50.914062 194.148438 52.417969 188.882812 C 53.535156 185.046875 53.277344 180.914062 54.199219 177.015625 C 55.453125 171.628906 59 166.835938 63.757812 164.054688 C 61.410156 161.078125 59.09375 157.21875 57.921875 153.617188 C 56.746094 150.015625 56.726562 145.886719 58.6875 142.636719 C 61.152344 138.5 66.65625 136.390625 71.359375 135.292969 L 71.550781 135.292969 C 69.222656 133.570312 69.316406 133.6875 67.636719 131.339844 C 65.597656 128.480469 64.714844 124.9375 64.1875 121.453125 C 63.65625 117.96875 63.421875 114.425781 62.445312 111.035156 C 62.523438 108.628906 61.230469 105.769531 59.210938 104.457031 C 57.878906 103.597656 56.136719 103.046875 55.488281 101.597656 C 55.078125 100.660156 55.273438 99.542969 55.800781 98.679688 C 56.332031 97.820312 57.289062 97.015625 58.191406 96.523438 C 57.898438 86.871094 53.964844 77.746094 51.476562 68.410156 C 48.398438 56.953125 47.460938 44.949219 48.714844 33.164062 C 56.019531 30.363281 69.964844 31.046875 79.183594 33.519531 C 87.171875 35.652344 94.8125 39.234375 103.015625 40.371094 C 108.109375 41.074219 113.667969 40.683594 117.820312 37.632812 C 119.78125 41.976562 124.734375 45.972656 129.414062 46.835938 C 132.765625 47.460938 136.207031 46.914062 139.59375 47.265625 C 144.570312 47.773438 149.40625 50.378906 152.046875 54.605469 C 152.476562 51.453125 154.121094 47.402344 156.136719 44.929688 C 158.171875 42.484375 161.050781 40.703125 164.1875 40.210938 C 167.65625 39.683594 171.199219 40.742188 174.230469 42.503906 C 177.269531 44.246094 177.734375 44.695312 180.300781 47.085938 C 183.785156 42.382812 190.011719 37.976562 195.730469 36.761719 C 198.722656 36.132812 201.835938 36.058594 204.773438 35.21875 C 209.785156 33.785156 214.878906 29.933594 216.972656 25.152344 C 220.96875 27.523438 226 26.894531 230.445312 28.226562 C 232.953125 28.972656 235.261719 30.324219 237.828125 30.890625 C 241.117188 31.613281 244.582031 30.972656 247.851562 31.695312 C 254.804688 33.238281 258.796875 40.3125 265.535156 42.601562 C 269.667969 39.605469 274.34375 37.351562 279.28125 36.039062 C 280.648438 35.667969 282.0625 35.375 283.453125 35.589844 C 285.605469 35.921875 287.40625 37.414062 288.855469 39.039062 C 292.480469 43.054688 294.652344 47.183594 295.238281 52.570312 C 298.605469 51.023438 302.347656 50.589844 306.027344 50.199219 C 309.707031 49.804688 313.449219 49.394531 316.835938 47.886719 C 320.222656 46.378906 323.316406 43.363281 324.0625 39.742188 C 327.785156 43.167969 333.464844 44.289062 338.203125 42.546875 C 341.234375 41.429688 343.78125 39.296875 346.738281 38.019531 C 352.515625 35.535156 358.839844 36.589844 365.046875 37.628906 C 368.535156 31.867188 373.191406 26.855469 378.65625 22.941406 C 380.164062 21.863281 381.769531 20.867188 383.59375 20.570312 C 385.765625 20.238281 387.957031 20.960938 389.917969 21.921875 C 396.910156 25.308594 402.296875 31.867188 404.269531 39.390625 L 404.25 38.253906 C 409.480469 35.925781 415.550781 35.574219 421.011719 37.257812 C 425.046875 38.511719 428.6875 40.800781 432.722656 42.058594 C 436.757812 43.308594 441.613281 43.273438 444.6875 40.375 C 446.136719 44.566406 449.917969 48.171875 454.164062 49.523438 C 460.214844 51.441406 467.226562 49.285156 472.867188 52.1875 C 475.019531 47.175781 478.132812 42.257812 481.992188 38.402344 C 483.304688 37.089844 484.792969 35.835938 486.59375 35.386719 C 488.765625 34.859375 491.019531 35.582031 493.09375 36.410156 C 498.242188 38.464844 500.320312 39.210938 504.765625 42.535156 C 508.328125 38.949219 512.070312 35.25 516.886719 33.664062 C 521.117188 32.273438 525.796875 32.6875 530.023438 31.316406 C 533.019531 30.355469 535.722656 28.535156 538.796875 27.847656 C 540.851562 27.398438 542.96875 27.476562 545.0625 27.28125 C 547.160156 27.105469 549.3125 26.617188 550.914062 25.265625 C 553.421875 29.492188 557.277344 33.84375 561.878906 35.605469 C 567.480469 37.757812 574.375 35.273438 579.421875 38.484375 C 581.421875 39.734375 582.808594 41.714844 584.433594 43.394531 C 586.058594 45.078125 588.175781 46.609375 590.523438 46.488281 C 594.476562 43.730469 598.941406 41.023438 603.429688 39.242188 C 604.625 38.773438 605.878906 38.339844 607.152344 38.519531 C 608.835938 38.757812 610.167969 40.027344 611.261719 41.339844 C 614.335938 44.984375 616.511719 49.371094 617.570312 54.011719 C 620.054688 50.3125 624.953125 48.40625 629.355469 47.703125 C 633.761719 47 638.320312 46.9375 642.472656 45.277344 C 646.035156 43.84375 649.109375 41.222656 651.109375 37.933594 C 655.472656 41.265625 661.9375 41.441406 667.300781 40.261719 C 672.667969 39.105469 677.644531 36.640625 682.828125 34.878906 C 694.128906 31.019531 708.636719 30.394531 720.269531 33.152344 C 721.523438 44.941406 720.582031 56.945312 717.511719 68.398438 C 715.003906 77.738281 711.070312 86.847656 710.796875 96.515625 C 711.699219 96.984375 712.636719 97.785156 713.183594 98.667969 C 713.734375 99.554688 713.90625 100.667969 713.496094 101.589844 C 712.851562 103.058594 711.105469 103.585938 709.773438 104.445312 C 707.757812 105.761719 706.464844 108.617188 706.542969 111.027344 C 705.585938 114.414062 705.347656 117.957031 704.800781 121.445312 C 704.253906 124.929688 703.394531 128.453125 701.351562 131.332031 C 699.671875 133.679688 699.765625 133.566406 697.4375 135.285156 L 697.628906 135.285156 C 702.328125 136.378906 707.808594 138.496094 710.300781 142.625 C 712.234375 145.875 712.234375 150.007812 711.0625 153.609375 C 709.886719 157.214844 707.578125 161.066406 705.230469 164.042969 C 709.988281 166.828125 713.535156 171.640625 714.785156 177.007812 C 715.6875 180.902344 715.453125 185.011719 716.566406 188.871094 C 718.09375 194.121094 722.992188 197.453125 727.550781 200.875 C 724.613281 205.730469 723.378906 211.410156 722.519531 217.011719 C 721.660156 222.617188 721.113281 228.3125 719.386719 233.714844 C 717.664062 239.121094 714.3125 244.40625 709.5 247.425781 C 715.003906 251.105469 718 258.175781 716.839844 264.675781 C 715.683594 271.175781 710.417969 276.78125 703.976562 278.324219 C 703.625 277.875 701.742188 278.363281 701.453125 278.855469 C 701.160156 279.34375 701.195312 279.949219 701.234375 280.535156 C 701.742188 286.351562 702.273438 292.183594 703.742188 297.824219 C 704.269531 299.84375 704.957031 301.878906 706.328125 303.445312 C 707.851562 305.1875 710.066406 306.148438 712.203125 307.050781 C 709.144531 310.535156 708.128906 315.785156 709.464844 320.230469 C 710.621094 324.128906 713.460938 327.339844 714.730469 331.195312 C 715.863281 334.621094 715.980469 338.925781 715.570312 342.53125 C 714.804688 344.667969 715.652344 347.113281 717.058594 348.894531 C 718.464844 350.675781 720.390625 351.96875 722.171875 353.398438 C 724.816406 355.511719 727.21875 357.941406 729.296875 360.625 C 730.570312 362.269531 731.746094 364.074219 732.117188 366.109375 C 732.515625 368.789062 731.519531 371.546875 730.085938 373.898438 Z M 730.085938 373.898438 " fill-opacity="1" fill-rule="nonzero"/></g></g></g><g clip-path="url(#6d15222087)"><g clip-path="url(#793043d7ab)"><g clip-path="url(#453bcf836d)"><path fill="#0e0e0e" d="M 30.09375 13.546875 L 738.679688 13.546875 L 738.679688 722.128906 L 30.09375 722.128906 Z M 30.09375 13.546875 " fill-opacity="1" fill-rule="nonzero"/></g></g></g><g clip-path="url(#f3203acff9)"><g clip-path="url(#fda0ae9a05)"><g clip-path="url(#240fce0a87)"><path stroke-linecap="butt" transform="matrix(0.75, 0, 0, 0.75, 30.094352, 13.544934)" fill="none" stroke-linejoin="miter" d="M -0.000802218 169.997388 L -0.000802218 774.783876 C -0.000802218 868.669297 76.108576 944.778676 169.999206 944.778676 L 774.785694 944.778676 C 868.671115 944.778676 944.780494 868.669297 944.780494 774.783876 L 944.780494 169.997388 C 944.780494 76.111967 868.671115 0.00258781 774.785694 0.00258781 L 169.999206 0.00258781 C 76.108576 0.00258781 -0.000802218 76.111967 -0.000802218 169.997388 Z M -0.000802218 169.997388 " stroke="#000000" stroke-width="68" stroke-opacity="1" stroke-miterlimit="4"/></g></g></g><g clip-path="url(#e8bc862043)"><g clip-path="url(#7647733b30)"><path fill="#000000" d="M 643.742188 399.96875 C 640.5625 405.1875 635.160156 408.265625 629.824219 411.246094 C 632.082031 414.507812 632 418.886719 630.992188 422.722656 C 629.988281 426.558594 628.160156 430.148438 627.140625 433.984375 C 626.121094 437.820312 626.382812 442.894531 628.605469 446.167969 C 625.542969 446.296875 622.972656 448.753906 621.722656 451.570312 C 620.488281 454.386719 620.289062 457.511719 620.027344 460.574219 C 619.765625 463.636719 619.351562 466.800781 617.753906 469.417969 L 617.820312 469.433594 C 622.21875 471.175781 626.792969 473.039062 629.910156 476.613281 C 630.816406 477.664062 631.589844 478.851562 632.066406 480.136719 C 633.15625 483.097656 632.710938 486.457031 631.492188 489.355469 C 630.269531 492.269531 628.34375 494.820312 626.453125 497.339844 C 628.925781 499.792969 632.972656 502.558594 634.09375 505.867188 C 634.800781 507.976562 634.867188 510.25 635.179688 512.453125 C 636.269531 520.257812 640.417969 527.605469 640.152344 535.488281 L 640.152344 535.503906 C 640.136719 536.3125 639.546875 536.988281 638.855469 537.398438 C 638.164062 537.8125 637.390625 538.042969 636.683594 538.40625 C 634.226562 539.65625 632.929688 542.441406 632.414062 545.15625 C 631.902344 547.875 631.988281 550.675781 631.410156 553.371094 C 630.242188 558.871094 626.027344 563.335938 622.371094 567.617188 C 624.363281 570.121094 626.386719 572.65625 627.523438 575.636719 C 628.65625 578.617188 628.789062 582.15625 627.09375 584.859375 C 625.019531 588.167969 620.03125 589.746094 616.257812 590.738281 C 619.039062 593.4375 621.988281 596.417969 622.542969 600.253906 C 622.921875 602.925781 622.097656 605.636719 622.445312 608.304688 C 622.742188 610.609375 623.910156 612.734375 625.410156 614.5 C 626.90625 616.261719 628.734375 617.746094 630.527344 619.210938 C 627.269531 624.101562 627.597656 631.101562 629.128906 636.78125 C 630.664062 642.460938 633.378906 647.765625 634.878906 653.460938 C 636.804688 660.722656 636.675781 668.511719 634.53125 675.707031 C 624.769531 678.023438 613.457031 678.046875 603.953125 674.800781 C 599.59375 673.300781 595.410156 671.246094 590.898438 670.269531 C 586.382812 669.296875 580.949219 669.449219 577.28125 672.230469 C 575.597656 669.464844 573.011719 667.257812 570.019531 666.054688 C 566.542969 664.65625 562.6875 664.605469 558.988281 664.015625 C 555.285156 663.421875 551.164062 661.824219 549.074219 658.710938 C 548.1875 662.613281 546.359375 666.300781 543.773438 669.367188 C 542.851562 670.453125 541.730469 671.523438 540.316406 671.738281 C 539.25 671.882812 538.191406 671.523438 537.1875 671.128906 C 533.402344 669.648438 529.664062 667.375 526.335938 665.035156 C 524.359375 664.9375 522.582031 666.21875 521.214844 667.636719 C 519.847656 669.050781 518.660156 670.714844 517 671.769531 C 512.734375 674.453125 506.9375 672.359375 502.246094 674.1875 C 498.394531 675.683594 495.132812 679.324219 493.027344 682.882812 C 491.675781 681.730469 489.863281 681.335938 488.105469 681.1875 C 486.339844 681.039062 484.566406 681.105469 482.835938 680.710938 C 480.25 680.132812 477.980469 678.601562 475.460938 677.792969 C 471.890625 676.644531 467.96875 676.988281 464.414062 675.820312 C 460.378906 674.5 457.21875 671.375 454.21875 668.359375 C 450.484375 671.160156 448.753906 671.785156 444.40625 673.511719 C 442.660156 674.203125 440.765625 674.8125 438.9375 674.371094 C 437.425781 673.992188 436.175781 672.9375 435.070312 671.835938 C 431.824219 668.609375 429.207031 664.460938 427.394531 660.246094 C 422.652344 662.679688 416.757812 660.871094 411.667969 662.484375 C 408.113281 663.621094 404.933594 666.636719 403.699219 670.175781 C 401.128906 667.722656 397.03125 667.703125 393.636719 668.761719 C 390.246094 669.8125 387.183594 671.742188 383.789062 672.796875 C 379.195312 674.210938 374.089844 673.917969 369.695312 671.960938 L 369.710938 671.007812 C 368.046875 677.328125 363.519531 682.84375 357.644531 685.695312 C 355.980469 686.503906 354.136719 687.109375 352.324219 686.832031 C 350.796875 686.585938 349.425781 685.742188 348.175781 684.835938 C 343.578125 681.558594 339.660156 677.328125 336.730469 672.488281 C 331.511719 673.378906 326.191406 674.265625 321.332031 672.15625 C 318.847656 671.089844 316.691406 669.292969 314.15625 668.351562 C 310.171875 666.886719 305.398438 667.839844 302.265625 670.707031 C 301.640625 667.660156 299.019531 665.125 296.1875 663.859375 C 293.339844 662.59375 290.195312 662.246094 287.101562 661.917969 C 284.003906 661.585938 280.859375 661.226562 278.027344 659.921875 C 277.535156 664.453125 275.722656 667.925781 272.660156 671.300781 C 271.425781 672.667969 269.925781 673.917969 268.117188 674.199219 C 266.949219 674.382812 265.746094 674.132812 264.609375 673.824219 C 260.457031 672.703125 256.523438 670.828125 253.050781 668.304688 C 247.382812 670.246094 244.023438 676.175781 238.179688 677.476562 C 235.429688 678.085938 232.5 677.542969 229.75 678.152344 C 227.59375 678.628906 225.667969 679.765625 223.542969 680.394531 C 219.804688 681.496094 215.558594 680.984375 212.214844 682.980469 C 210.449219 678.976562 206.15625 675.71875 201.957031 674.511719 C 199.484375 673.804688 196.867188 673.753906 194.351562 673.214844 C 189.542969 672.195312 184.289062 668.488281 181.375 664.539062 C 179.21875 666.53125 178.820312 666.910156 176.273438 668.390625 C 173.71875 669.875 170.722656 670.746094 167.828125 670.320312 C 165.175781 669.925781 162.753906 668.40625 161.058594 666.351562 C 159.34375 664.292969 157.964844 660.867188 157.617188 658.214844 C 155.394531 661.769531 151.308594 663.964844 147.144531 664.386719 C 144.296875 664.6875 141.398438 664.226562 138.585938 664.75 C 134.648438 665.492188 130.484375 668.847656 128.835938 672.488281 C 125.363281 669.917969 120.6875 669.585938 116.386719 670.183594 C 109.488281 671.136719 103.070312 674.152344 96.347656 675.949219 C 88.59375 678.019531 77.757812 678.074219 71.632812 675.71875 C 69.476562 668.523438 69.359375 660.734375 71.285156 653.472656 C 72.800781 647.792969 75.515625 642.472656 77.035156 636.792969 C 78.566406 631.113281 78.914062 624.113281 75.636719 619.222656 C 77.449219 617.757812 79.257812 616.289062 80.757812 614.511719 C 82.253906 612.730469 83.425781 610.625 83.71875 608.320312 C 84.066406 605.648438 83.226562 602.9375 83.621094 600.265625 C 84.179688 596.429688 87.128906 593.449219 89.910156 590.75 C 86.125 589.777344 81.148438 588.179688 79.070312 584.871094 C 77.375 582.167969 77.507812 578.628906 78.644531 575.648438 C 79.78125 572.671875 81.804688 570.117188 83.796875 567.628906 C 80.140625 563.347656 75.925781 558.902344 74.753906 553.386719 C 74.179688 550.683594 74.277344 547.886719 73.75 545.171875 C 73.238281 542.453125 71.9375 539.671875 69.484375 538.417969 C 68.777344 538.054688 67.984375 537.824219 67.308594 537.410156 C 66.617188 537 66.027344 536.324219 66.011719 535.515625 L 66.011719 535.5 C 65.734375 527.632812 69.878906 520.269531 70.984375 512.464844 C 71.296875 510.261719 71.363281 507.988281 72.074219 505.878906 C 73.191406 502.570312 77.226562 499.820312 79.710938 497.351562 C 77.800781 494.832031 75.890625 492.277344 74.675781 489.367188 C 73.460938 486.453125 72.996094 483.09375 74.097656 480.148438 C 74.574219 478.847656 75.351562 477.660156 76.253906 476.625 C 79.351562 473.046875 83.945312 471.171875 88.34375 469.445312 L 88.410156 469.429688 C 86.8125 466.796875 86.417969 463.648438 86.140625 460.585938 C 85.875 457.523438 85.679688 454.378906 84.441406 451.582031 C 83.207031 448.78125 80.636719 446.3125 77.558594 446.179688 C 79.785156 442.886719 80.046875 437.828125 79.023438 433.996094 C 78.003906 430.164062 76.175781 426.570312 75.171875 422.734375 C 74.167969 418.898438 74.082031 414.519531 76.339844 411.257812 C 71.003906 408.277344 65.601562 405.199219 62.425781 399.980469 C 61.21875 398.023438 60.398438 395.683594 60.8125 393.425781 C 61.125 391.714844 62.109375 390.199219 63.183594 388.816406 C 64.925781 386.558594 66.9375 384.515625 69.175781 382.738281 C 70.675781 381.554688 72.289062 380.449219 73.476562 378.953125 C 74.660156 377.453125 75.371094 375.410156 74.726562 373.601562 C 74.382812 370.585938 74.480469 366.960938 75.433594 364.066406 C 76.503906 360.820312 78.890625 358.125 79.863281 354.847656 C 80.984375 351.109375 80.125 346.695312 77.558594 343.765625 C 79.355469 343.003906 81.214844 342.199219 82.5 340.734375 C 83.652344 339.414062 84.226562 337.703125 84.671875 336.007812 C 85.925781 331.261719 86.355469 326.339844 86.78125 321.46875 C 86.832031 320.992188 86.867188 320.460938 86.601562 320.054688 C 86.355469 319.640625 84.773438 319.230469 84.476562 319.609375 C 79.070312 318.308594 74.644531 313.613281 73.65625 308.132812 C 72.667969 302.652344 75.207031 296.71875 79.832031 293.625 C 75.796875 291.089844 72.960938 286.640625 71.515625 282.097656 C 70.070312 277.554688 69.605469 272.761719 68.882812 268.050781 C 68.160156 263.339844 67.105469 258.566406 64.652344 254.480469 C 68.488281 251.601562 72.621094 248.816406 73.886719 244.386719 C 74.824219 241.164062 74.609375 237.6875 75.386719 234.410156 C 76.4375 229.882812 79.421875 225.847656 83.421875 223.507812 C 81.449219 221.007812 79.5 217.761719 78.515625 214.734375 C 77.527344 211.703125 77.511719 208.230469 79.160156 205.5 C 81.234375 202.023438 85.859375 200.246094 89.8125 199.324219 L 89.976562 199.324219 C 88.019531 197.875 88.097656 197.976562 86.683594 196 C 84.972656 193.597656 84.226562 190.617188 83.785156 187.6875 C 83.339844 184.753906 83.140625 181.777344 82.316406 178.929688 C 82.386719 176.902344 81.296875 174.5 79.601562 173.394531 C 78.480469 172.671875 77.015625 172.210938 76.46875 170.992188 C 76.125 170.199219 76.289062 169.261719 76.734375 168.535156 C 77.175781 167.8125 77.984375 167.136719 78.742188 166.726562 C 78.496094 158.605469 75.1875 150.933594 73.09375 143.082031 C 70.507812 133.449219 69.71875 123.355469 70.773438 113.445312 C 76.914062 111.089844 88.640625 111.664062 96.394531 113.742188 C 103.113281 115.539062 109.535156 118.546875 116.4375 119.503906 C 120.71875 120.097656 125.394531 119.769531 128.886719 117.203125 C 130.535156 120.855469 134.695312 124.21875 138.632812 124.941406 C 141.449219 125.46875 144.347656 125.007812 147.195312 125.300781 C 151.375 125.730469 155.445312 127.917969 157.664062 131.472656 C 158.027344 128.824219 159.410156 125.417969 161.105469 123.339844 C 162.816406 121.28125 165.238281 119.785156 167.875 119.371094 C 170.789062 118.925781 173.769531 119.816406 176.320312 121.296875 C 178.875 122.761719 179.265625 123.140625 181.421875 125.148438 C 184.355469 121.199219 189.589844 117.492188 194.398438 116.472656 C 196.914062 115.941406 199.535156 115.878906 202.003906 115.171875 C 206.21875 113.96875 210.5 110.726562 212.261719 106.707031 C 215.621094 108.699219 219.851562 108.171875 223.589844 109.292969 C 225.699219 109.921875 227.640625 111.054688 229.800781 111.53125 C 232.5625 112.140625 235.480469 111.601562 238.226562 112.207031 C 244.074219 113.507812 247.433594 119.453125 253.097656 121.378906 C 256.574219 118.863281 260.503906 116.96875 264.65625 115.863281 C 265.808594 115.550781 266.996094 115.304688 268.164062 115.484375 C 269.976562 115.765625 271.488281 117.019531 272.707031 118.386719 C 275.753906 121.761719 277.582031 125.234375 278.074219 129.761719 C 280.90625 128.464844 284.054688 128.097656 287.148438 127.769531 C 290.242188 127.4375 293.386719 127.09375 296.234375 125.824219 C 299.085938 124.558594 301.6875 122.019531 302.3125 118.976562 C 305.445312 121.855469 310.21875 122.796875 314.203125 121.332031 C 316.753906 120.394531 318.894531 118.601562 321.382812 117.527344 C 326.238281 115.4375 331.558594 116.324219 336.777344 117.199219 C 339.710938 112.355469 343.625 108.140625 348.222656 104.847656 C 349.488281 103.941406 350.839844 103.105469 352.375 102.855469 C 354.199219 102.574219 356.042969 103.183594 357.691406 103.988281 C 363.570312 106.835938 368.101562 112.355469 369.761719 118.679688 L 369.746094 117.726562 C 374.140625 115.769531 379.246094 115.46875 383.839844 116.886719 C 387.230469 117.941406 390.292969 119.867188 393.6875 120.921875 C 397.078125 121.976562 401.160156 121.945312 403.746094 119.507812 C 404.96875 123.03125 408.144531 126.0625 411.714844 127.199219 C 416.804688 128.8125 422.699219 127 427.441406 129.441406 C 429.253906 125.226562 431.871094 121.089844 435.117188 117.847656 C 436.222656 116.746094 437.472656 115.691406 438.988281 115.316406 C 440.8125 114.871094 442.707031 115.476562 444.453125 116.171875 C 448.78125 117.902344 450.53125 118.527344 454.269531 121.324219 C 457.261719 118.308594 460.410156 115.199219 464.460938 113.863281 C 468.015625 112.695312 471.953125 113.042969 475.507812 111.890625 C 478.027344 111.085938 480.300781 109.550781 482.886719 108.976562 C 484.613281 108.597656 486.390625 108.660156 488.152344 108.5 C 489.914062 108.351562 491.726562 107.9375 493.074219 106.800781 C 495.183594 110.355469 498.425781 114.015625 502.292969 115.496094 C 507.003906 117.308594 512.800781 115.21875 517.046875 117.917969 C 518.726562 118.96875 519.894531 120.632812 521.261719 122.046875 C 522.628906 123.460938 524.40625 124.75 526.382812 124.648438 C 529.707031 122.328125 533.460938 120.054688 537.234375 118.554688 C 538.238281 118.164062 539.292969 117.796875 540.363281 117.949219 C 541.777344 118.148438 542.898438 119.214844 543.820312 120.320312 C 546.40625 123.382812 548.234375 127.074219 549.125 130.972656 C 551.214844 127.863281 555.332031 126.261719 559.035156 125.671875 C 562.742188 125.078125 566.574219 125.027344 570.066406 123.628906 C 573.0625 122.425781 575.648438 120.222656 577.328125 117.457031 C 580.996094 120.257812 586.433594 120.402344 590.945312 119.414062 C 595.457031 118.441406 599.640625 116.367188 604 114.886719 C 613.503906 111.640625 625.703125 111.117188 635.488281 113.4375 C 636.539062 123.347656 635.75 133.441406 633.167969 143.074219 C 631.058594 150.925781 627.75 158.585938 627.519531 166.71875 C 628.277344 167.109375 629.066406 167.785156 629.527344 168.527344 C 629.988281 169.269531 630.136719 170.207031 629.789062 170.984375 C 629.246094 172.21875 627.78125 172.664062 626.660156 173.386719 C 624.964844 174.492188 623.875 176.894531 623.941406 178.921875 C 623.136719 181.769531 622.9375 184.746094 622.476562 187.679688 C 622.015625 190.609375 621.292969 193.574219 619.578125 195.992188 C 618.164062 197.96875 618.242188 197.871094 616.285156 199.316406 L 616.445312 199.316406 C 620.398438 200.238281 625.007812 202.019531 627.101562 205.492188 C 628.730469 208.222656 628.730469 211.699219 627.746094 214.726562 C 626.753906 217.757812 624.8125 221 622.839844 223.5 C 626.839844 225.839844 629.820312 229.890625 630.875 234.402344 C 631.632812 237.679688 631.433594 241.136719 632.371094 244.378906 C 633.65625 248.792969 637.773438 251.59375 641.609375 254.472656 C 639.136719 258.558594 638.101562 263.332031 637.378906 268.042969 C 636.652344 272.753906 636.195312 277.546875 634.742188 282.089844 C 633.292969 286.632812 630.476562 291.078125 626.429688 293.617188 C 631.058594 296.710938 633.574219 302.660156 632.601562 308.125 C 631.628906 313.589844 627.199219 318.300781 621.785156 319.601562 C 621.488281 319.222656 619.90625 319.632812 619.660156 320.046875 C 619.414062 320.457031 619.445312 320.96875 619.476562 321.460938 C 619.90625 326.347656 620.351562 331.253906 621.585938 336 C 622.03125 337.695312 622.609375 339.40625 623.761719 340.726562 C 625.042969 342.191406 626.90625 342.996094 628.703125 343.757812 C 626.132812 346.6875 625.277344 351.101562 626.398438 354.839844 C 627.371094 358.117188 629.757812 360.816406 630.828125 364.058594 C 631.78125 366.9375 631.878906 370.5625 631.535156 373.59375 C 630.890625 375.386719 631.601562 377.445312 632.785156 378.945312 C 633.96875 380.441406 635.585938 381.53125 637.082031 382.730469 C 639.308594 384.507812 641.328125 386.550781 643.078125 388.808594 C 644.144531 390.1875 645.136719 391.707031 645.449219 393.417969 C 645.78125 395.671875 644.945312 397.992188 643.742188 399.96875 Z M 643.742188 399.96875 " fill-opacity="1" fill-rule="nonzero"/></g></g><g clip-path="url(#b83c7500c0)"><g clip-path="url(#af0b696ad8)"><path fill="#0e0e0e" d="M 55.113281 96.945312 L 650.964844 96.945312 L 650.964844 692.796875 L 55.113281 692.796875 Z M 55.113281 96.945312 " fill-opacity="1" fill-rule="nonzero"/></g></g><g fill="#e6bc40" fill-opacity="1"><g transform="translate(149.158196, 603.488873)"><g><path d="M 316.960938 -256.636719 C 348.761719 -262.738281 376.304688 -293.558594 385.203125 -337.804688 C 396.90625 -397.78125 363.753906 -445.886719 301.507812 -459.996094 L 315.265625 -520.207031 L 216.089844 -523.09375 L 203.011719 -466.085938 L 112.320312 -468.726562 L 7.019531 0.203125 L 106.488281 3.101562 L 91.03125 71.457031 L 190.207031 74.34375 L 205.664062 5.988281 C 306.613281 8.339844 375.6875 -51.136719 390.902344 -131.214844 C 405.4375 -208.089844 362.574219 -254.429688 316.960938 -256.636719 Z M 213.007812 -356.871094 L 233.777344 -356.269531 C 263.035156 -355.417969 277.492188 -339.183594 272.46875 -317.371094 C 266.089844 -289.445312 240.984375 -281.980469 218.167969 -282.644531 L 196.515625 -283.273438 Z M 270.460938 -147.898438 C 264.765625 -123.175781 242.035156 -106.855469 205.46875 -107.917969 L 157.488281 -109.316406 L 177.355469 -198.332031 L 226.789062 -196.601562 C 258.089844 -195.691406 277.128906 -175.8125 270.460938 -147.898438 Z M 270.460938 -147.898438 "/></g></g></g><g fill="#ffffff" fill-opacity="1"><g transform="translate(188.892491, 575.321499)"><g><path d="M 316.960938 -256.636719 C 348.761719 -262.738281 376.304688 -293.558594 385.203125 -337.804688 C 396.90625 -397.78125 363.753906 -445.886719 301.507812 -459.996094 L 315.265625 -520.207031 L 216.089844 -523.09375 L 203.011719 -466.085938 L 112.320312 -468.726562 L 7.019531 0.203125 L 106.488281 3.101562 L 91.03125 71.457031 L 190.207031 74.34375 L 205.664062 5.988281 C 306.613281 8.339844 375.6875 -51.136719 390.902344 -131.214844 C 405.4375 -208.089844 362.574219 -254.429688 316.960938 -256.636719 Z M 213.007812 -356.871094 L 233.777344 -356.269531 C 263.035156 -355.417969 277.492188 -339.183594 272.46875 -317.371094 C 266.089844 -289.445312 240.984375 -281.980469 218.167969 -282.644531 L 196.515625 -283.273438 Z M 270.460938 -147.898438 C 264.765625 -123.175781 242.035156 -106.855469 205.46875 -107.917969 L 157.488281 -109.316406 L 177.355469 -198.332031 L 226.789062 -196.601562 C 258.089844 -195.691406 277.128906 -175.8125 270.460938 -147.898438 Z M 270.460938 -147.898438 "/></g></g></g><path stroke-linecap="butt" transform="matrix(6.905866, 0.201032, -0.201032, 6.905866, 216.272059, -67.717733)" fill="none" stroke-linejoin="miter" d="M 42.662181 54.352096 C 47.021091 53.382966 50.693623 49.024124 51.743042 42.889163 C 53.115357 34.574998 48.352978 28.076952 39.715474 26.381452 L 41.370564 18.026814 L 27.687679 18.026916 L 26.113558 25.937429 L 13.601549 25.937385 L 0.968716 90.999905 L 14.69176 90.999766 L 12.834834 100.484776 L 26.517154 100.484691 L 28.374096 91.000246 C 42.29841 90.919017 51.581629 82.443572 53.357624 71.344312 C 55.052635 60.688611 48.958475 54.473125 42.662181 54.352096 Z M 27.930243 40.952125 L 30.795779 40.951858 C 34.831641 40.952026 36.890107 43.131481 36.284742 46.158321 C 35.517968 50.033231 32.087432 51.16313 28.939067 51.163146 L 25.952487 51.163543 Z M 36.688441 69.527959 C 36.00207 72.958763 32.934849 75.299307 27.889895 75.299666 L 21.270178 75.299485 L 23.651752 62.94893 L 30.472869 62.989066 C 34.791561 62.989486 37.495939 65.652994 36.688441 69.527959 Z M 36.688441 69.527959 " stroke="#000000" stroke-width="5.786669" stroke-opacity="1" stroke-miterlimit="4"/><g fill="#d9d9d9" fill-opacity="1"><g transform="translate(197.97813, 560.716071)"><g><path d="M 301.984375 -244.511719 C 332.28125 -250.324219 358.523438 -279.6875 367.003906 -321.84375 C 378.152344 -378.988281 346.566406 -424.820312 287.261719 -438.261719 L 300.367188 -495.625 L 205.878906 -498.378906 L 193.417969 -444.0625 L 107.011719 -446.578125 L 6.691406 0.195312 L 101.457031 2.953125 L 86.730469 68.082031 L 181.21875 70.832031 L 195.945312 5.703125 C 292.125 7.945312 357.9375 -48.722656 372.433594 -125.015625 C 386.28125 -198.257812 345.441406 -242.410156 301.984375 -244.511719 Z M 202.941406 -340.011719 L 222.730469 -339.433594 C 250.605469 -338.621094 264.382812 -323.15625 259.59375 -302.375 C 253.519531 -275.769531 229.597656 -268.65625 207.859375 -269.289062 L 187.230469 -269.890625 Z M 257.683594 -140.910156 C 252.253906 -117.355469 230.601562 -101.804688 195.757812 -102.820312 L 150.046875 -104.148438 L 168.976562 -188.960938 L 216.070312 -187.3125 C 245.894531 -186.445312 264.035156 -167.503906 257.683594 -140.910156 Z M 257.683594 -140.910156 "/></g></g></g><g fill="#ffffff" fill-opacity="1"><g transform="translate(205.947125, 561.567323)"><g><path d="M 289.679688 -234.546875 C 318.742188 -240.125 343.914062 -268.292969 352.050781 -308.730469 C 362.742188 -363.542969 332.445312 -407.511719 275.554688 -420.40625 L 288.128906 -475.433594 L 197.488281 -478.070312 L 185.539062 -425.96875 L 102.652344 -428.382812 L 6.417969 0.1875 L 97.324219 2.832031 L 83.195312 65.308594 L 173.835938 67.945312 L 187.964844 5.472656 C 280.222656 7.621094 343.351562 -46.734375 357.257812 -119.921875 C 370.542969 -190.179688 331.367188 -232.53125 289.679688 -234.546875 Z M 194.671875 -326.15625 L 213.65625 -325.605469 C 240.394531 -324.824219 253.609375 -309.992188 249.015625 -290.054688 C 243.1875 -264.535156 220.242188 -257.710938 199.386719 -258.316406 L 179.601562 -258.894531 Z M 247.183594 -135.167969 C 241.976562 -112.574219 221.203125 -97.65625 187.78125 -98.628906 L 143.933594 -99.90625 L 162.089844 -181.261719 L 207.269531 -179.679688 C 235.878906 -178.847656 253.277344 -160.679688 247.183594 -135.167969 Z M 247.183594 -135.167969 "/></g></g></g></svg>