<svg xmlns="http://www.w3.org/2000/svg" xmlns:xlink="http://www.w3.org/1999/xlink" width="1000" zoomAndPan="magnify" viewBox="0 0 750 749.999995" height="1000" preserveAspectRatio="xMidYMid meet" version="1.0"><defs><g/><clipPath id="8806f96b15"><path d="M 29 73 L 700 73 L 700 744 L 29 744 Z M 29 73 " clip-rule="nonzero"/></clipPath><clipPath id="123409854c"><path d="M 22.617188 194.429688 L 22.617188 622.5 C 22.617188 692.917969 79.699219 750 150.117188 750 L 578.1875 750 C 648.605469 750 705.6875 692.917969 705.6875 622.5 L 705.6875 194.429688 C 705.6875 124.011719 648.605469 66.929688 578.1875 66.929688 L 150.117188 66.929688 C 79.699219 66.929688 22.617188 124.011719 22.617188 194.429688 Z M 22.617188 194.429688 " clip-rule="nonzero"/></clipPath><clipPath id="4d1b094598"><path d="M 22.617188 66.929688 L 705.867188 66.929688 L 705.867188 750 L 22.617188 750 Z M 22.617188 66.929688 " clip-rule="nonzero"/></clipPath><clipPath id="3dad4bf421"><path d="M 22.617188 194.429688 L 22.617188 622.5 C 22.617188 692.917969 79.699219 750 150.117188 750 L 578.1875 750 C 648.605469 750 705.6875 692.917969 705.6875 622.5 L 705.6875 194.429688 C 705.6875 124.011719 648.605469 66.929688 578.1875 66.929688 L 150.117188 66.929688 C 79.699219 66.929688 22.617188 124.011719 22.617188 194.429688 Z M 22.617188 194.429688 " clip-rule="nonzero"/></clipPath><clipPath id="c18cfe2191"><path d="M 48 34 L 744 34 L 744 729 L 48 729 Z M 48 34 " clip-rule="nonzero"/></clipPath><clipPath id="168cc4398b"><path d="M 41.402344 154.589844 L 41.402344 608.1875 C 41.402344 678.601562 98.488281 735.6875 168.902344 735.6875 L 622.5 735.6875 C 692.917969 735.6875 750 678.601562 750 608.1875 L 750 154.589844 C 750 84.171875 692.917969 27.089844 622.5 27.089844 L 168.902344 27.089844 C 98.488281 27.089844 41.402344 84.171875 41.402344 154.589844 Z M 41.402344 154.589844 " clip-rule="nonzero"/></clipPath><clipPath id="4325c0b936"><path d="M 169.804688 27.988281 L 621.601562 27.988281 C 692.015625 27.988281 749.101562 85.074219 749.101562 155.488281 L 749.101562 607.285156 C 749.101562 677.703125 692.015625 734.785156 621.601562 734.785156 L 169.804688 734.785156 C 99.386719 734.785156 42.304688 677.703125 42.304688 607.285156 L 42.304688 155.488281 C 42.304688 85.074219 99.386719 27.988281 169.804688 27.988281 Z M 169.804688 27.988281 " clip-rule="nonzero"/></clipPath><clipPath id="c0cbf145db"><path d="M 42.152344 27.839844 L 749.402344 27.839844 L 749.402344 735 L 42.152344 735 Z M 42.152344 27.839844 " clip-rule="nonzero"/></clipPath><clipPath id="9fee4bb85d"><path d="M 41.402344 154.589844 L 41.402344 608.1875 C 41.402344 678.601562 98.488281 735.6875 168.902344 735.6875 L 622.5 735.6875 C 692.917969 735.6875 750 678.601562 750 608.1875 L 750 154.589844 C 750 84.171875 692.917969 27.089844 622.5 27.089844 L 168.902344 27.089844 C 98.488281 27.089844 41.402344 84.171875 41.402344 154.589844 Z M 41.402344 154.589844 " clip-rule="nonzero"/></clipPath><clipPath id="e882fb1c29"><path d="M 169.804688 27.988281 L 621.601562 27.988281 C 692.015625 27.988281 749.101562 85.074219 749.101562 155.488281 L 749.101562 607.285156 C 749.101562 677.703125 692.015625 734.785156 621.601562 734.785156 L 169.804688 734.785156 C 99.386719 734.785156 42.304688 677.703125 42.304688 607.285156 L 42.304688 155.488281 C 42.304688 85.074219 99.386719 27.988281 169.804688 27.988281 Z M 169.804688 27.988281 " clip-rule="nonzero"/></clipPath><clipPath id="7c6069174e"><path d="M 41.402344 27.089844 L 750 27.089844 L 750 735.828125 L 41.402344 735.828125 Z M 41.402344 27.089844 " clip-rule="nonzero"/></clipPath><clipPath id="68e52f3f53"><path d="M 41.402344 154.589844 L 41.402344 608.1875 C 41.402344 678.601562 98.488281 735.6875 168.902344 735.6875 L 622.5 735.6875 C 692.917969 735.6875 750 678.601562 750 608.1875 L 750 154.589844 C 750 84.171875 692.917969 27.089844 622.5 27.089844 L 168.902344 27.089844 C 98.488281 27.089844 41.402344 84.171875 41.402344 154.589844 Z M 41.402344 154.589844 " clip-rule="nonzero"/></clipPath><clipPath id="b24f34fc77"><path d="M 41.402344 154.585938 L 41.402344 608.179688 C 41.402344 678.59375 98.484375 735.675781 168.902344 735.675781 L 622.492188 735.675781 C 692.90625 735.675781 749.988281 678.59375 749.988281 608.179688 L 749.988281 154.585938 C 749.988281 84.171875 692.90625 27.089844 622.492188 27.089844 L 168.902344 27.089844 C 98.484375 27.089844 41.402344 84.171875 41.402344 154.585938 Z M 41.402344 154.585938 " clip-rule="nonzero"/></clipPath><clipPath id="15df85a2b3"><path d="M 72 116 L 657 116 L 657 701 L 72 701 Z M 72 116 " clip-rule="nonzero"/></clipPath><clipPath id="b7d418cd91"><path d="M 66.421875 207.992188 L 66.421875 608.847656 C 66.421875 662.695312 110.074219 706.347656 163.921875 706.347656 L 564.78125 706.347656 C 618.628906 706.347656 662.28125 662.695312 662.28125 608.847656 L 662.28125 207.992188 C 662.28125 154.144531 618.628906 110.492188 564.78125 110.492188 L 163.921875 110.492188 C 110.074219 110.492188 66.421875 154.144531 66.421875 207.992188 Z M 66.421875 207.992188 " clip-rule="nonzero"/></clipPath><clipPath id="5f573b01af"><path d="M 66.421875 110.492188 L 661.921875 110.492188 L 661.921875 705.992188 L 66.421875 705.992188 Z M 66.421875 110.492188 " clip-rule="nonzero"/></clipPath><clipPath id="8edadb13ba"><path d="M 66.421875 207.992188 L 66.421875 608.847656 C 66.421875 662.695312 110.074219 706.347656 163.921875 706.347656 L 564.78125 706.347656 C 618.628906 706.347656 662.28125 662.695312 662.28125 608.847656 L 662.28125 207.992188 C 662.28125 154.144531 618.628906 110.492188 564.78125 110.492188 L 163.921875 110.492188 C 110.074219 110.492188 66.421875 154.144531 66.421875 207.992188 Z M 66.421875 207.992188 " clip-rule="nonzero"/></clipPath></defs><g clip-path="url(#8806f96b15)"><g clip-path="url(#123409854c)"><path fill="#e6bc40" d="M 697.394531 414.300781 C 693.753906 420.285156 687.558594 423.816406 681.445312 427.230469 C 684.03125 430.96875 683.933594 435.988281 682.785156 440.386719 C 681.632812 444.785156 679.535156 448.898438 678.367188 453.296875 C 677.195312 457.695312 677.496094 463.507812 680.046875 467.261719 C 676.535156 467.414062 673.589844 470.226562 672.15625 473.453125 C 670.738281 476.683594 670.511719 480.265625 670.210938 483.777344 C 669.910156 487.289062 669.4375 490.914062 667.605469 493.914062 L 667.683594 493.933594 C 672.722656 495.933594 677.96875 498.066406 681.539062 502.160156 C 682.578125 503.367188 683.464844 504.730469 684.011719 506.199219 C 685.261719 509.597656 684.75 513.449219 683.351562 516.769531 C 681.953125 520.113281 679.746094 523.035156 677.578125 525.921875 C 680.410156 528.738281 685.050781 531.90625 686.335938 535.699219 C 687.144531 538.117188 687.222656 540.722656 687.582031 543.25 C 688.832031 552.199219 693.585938 560.617188 693.285156 569.65625 L 693.285156 569.675781 C 693.265625 570.601562 692.585938 571.375 691.796875 571.847656 C 691.003906 572.320312 690.113281 572.585938 689.304688 573 C 686.488281 574.433594 685 577.625 684.414062 580.742188 C 683.824219 583.855469 683.921875 587.066406 683.261719 590.160156 C 681.921875 596.460938 677.089844 601.578125 672.898438 606.488281 C 675.183594 609.355469 677.5 612.261719 678.804688 615.683594 C 680.105469 619.097656 680.257812 623.15625 678.3125 626.25 C 675.933594 630.042969 670.214844 631.855469 665.890625 632.992188 C 669.082031 636.085938 672.460938 639.503906 673.097656 643.902344 C 673.53125 646.960938 672.585938 650.070312 672.984375 653.132812 C 673.324219 655.773438 674.664062 658.210938 676.378906 660.230469 C 678.097656 662.253906 680.191406 663.953125 682.25 665.632812 C 678.511719 671.238281 678.890625 679.261719 680.648438 685.773438 C 682.40625 692.285156 685.515625 698.363281 687.238281 704.894531 C 689.445312 713.21875 689.296875 722.148438 686.839844 730.394531 C 675.648438 733.054688 662.679688 733.078125 651.785156 729.355469 C 646.785156 727.640625 641.992188 725.28125 636.816406 724.167969 C 631.644531 723.050781 625.414062 723.222656 621.207031 726.410156 C 619.28125 723.242188 616.316406 720.710938 612.882812 719.335938 C 608.898438 717.730469 604.480469 717.671875 600.238281 716.992188 C 595.992188 716.316406 591.269531 714.484375 588.875 710.914062 C 587.855469 715.386719 585.761719 719.617188 582.796875 723.128906 C 581.738281 724.375 580.457031 725.601562 578.835938 725.847656 C 577.609375 726.015625 576.398438 725.601562 575.246094 725.148438 C 570.90625 723.449219 566.621094 720.847656 562.804688 718.164062 C 560.542969 718.050781 558.503906 719.519531 556.9375 721.148438 C 555.371094 722.769531 554.007812 724.675781 552.105469 725.882812 C 547.214844 728.960938 540.570312 726.5625 535.191406 728.65625 C 530.773438 730.371094 527.035156 734.542969 524.621094 738.625 C 523.074219 737.304688 520.996094 736.847656 518.980469 736.679688 C 516.957031 736.511719 514.921875 736.585938 512.941406 736.132812 C 509.976562 735.472656 507.371094 733.714844 504.484375 732.789062 C 500.390625 731.46875 495.898438 731.867188 491.820312 730.527344 C 487.195312 729.015625 483.574219 725.433594 480.136719 721.976562 C 475.851562 725.1875 473.871094 725.902344 468.882812 727.882812 C 466.886719 728.675781 464.714844 729.371094 462.617188 728.867188 C 460.882812 728.433594 459.449219 727.222656 458.183594 725.960938 C 454.460938 722.261719 451.460938 717.503906 449.386719 712.671875 C 443.949219 715.464844 437.191406 713.390625 431.355469 715.242188 C 427.28125 716.542969 423.636719 720 422.222656 724.058594 C 419.277344 721.242188 414.578125 721.222656 410.6875 722.4375 C 406.796875 723.640625 403.289062 725.851562 399.398438 727.0625 C 394.128906 728.683594 388.277344 728.347656 383.242188 726.101562 L 383.261719 725.007812 C 381.351562 732.257812 376.160156 738.578125 369.425781 741.847656 C 367.519531 742.773438 365.40625 743.46875 363.328125 743.152344 C 361.574219 742.867188 360.003906 741.902344 358.570312 740.863281 C 353.300781 737.109375 348.8125 732.257812 345.449219 726.707031 C 339.46875 727.726562 333.371094 728.746094 327.800781 726.328125 C 324.949219 725.105469 322.476562 723.046875 319.570312 721.964844 C 315.003906 720.285156 309.53125 721.378906 305.941406 724.667969 C 305.222656 721.175781 302.222656 718.269531 298.976562 716.816406 C 295.710938 715.363281 292.101562 714.96875 288.554688 714.589844 C 285.007812 714.210938 281.402344 713.796875 278.15625 712.304688 C 277.589844 717.496094 275.515625 721.480469 272.003906 725.34375 C 270.585938 726.910156 268.871094 728.347656 266.792969 728.667969 C 265.453125 728.878906 264.074219 728.59375 262.773438 728.238281 C 258.015625 726.953125 253.503906 724.804688 249.519531 721.910156 C 243.027344 724.140625 239.175781 730.933594 232.476562 732.425781 C 229.324219 733.125 225.964844 732.503906 222.8125 733.199219 C 220.339844 733.746094 218.132812 735.050781 215.695312 735.769531 C 211.410156 737.035156 206.542969 736.449219 202.707031 738.734375 C 200.6875 734.148438 195.765625 730.410156 190.949219 729.03125 C 188.117188 728.21875 185.117188 728.160156 182.230469 727.539062 C 176.71875 726.371094 170.695312 722.121094 167.359375 717.59375 C 164.886719 719.882812 164.429688 720.3125 161.507812 722.011719 C 158.578125 723.710938 155.144531 724.710938 151.824219 724.222656 C 148.789062 723.769531 146.011719 722.03125 144.066406 719.671875 C 142.101562 717.3125 140.519531 713.386719 140.121094 710.34375 C 137.570312 714.421875 132.890625 716.933594 128.117188 717.421875 C 124.851562 717.761719 121.527344 717.234375 118.304688 717.835938 C 113.792969 718.6875 109.019531 722.535156 107.128906 726.707031 C 103.144531 723.761719 97.785156 723.382812 92.859375 724.066406 C 84.949219 725.160156 77.589844 728.613281 69.886719 730.671875 C 60.996094 733.050781 48.574219 733.109375 41.550781 730.410156 C 39.078125 722.164062 38.945312 713.234375 41.15625 704.910156 C 42.890625 698.394531 46.003906 692.300781 47.746094 685.789062 C 49.503906 679.273438 49.898438 671.25 46.140625 665.644531 C 48.21875 663.964844 50.292969 662.285156 52.011719 660.246094 C 53.726562 658.203125 55.070312 655.792969 55.410156 653.144531 C 55.804688 650.085938 54.84375 646.976562 55.292969 643.914062 C 55.9375 639.515625 59.316406 636.101562 62.503906 633.003906 C 58.164062 631.890625 52.460938 630.058594 50.082031 626.265625 C 48.136719 623.167969 48.285156 619.109375 49.589844 615.695312 C 50.890625 612.28125 53.214844 609.351562 55.496094 606.5 C 51.304688 601.59375 46.472656 596.496094 45.128906 590.171875 C 44.46875 587.074219 44.585938 583.871094 43.980469 580.753906 C 43.390625 577.640625 41.902344 574.453125 39.089844 573.011719 C 38.277344 572.597656 37.371094 572.335938 36.597656 571.863281 C 35.804688 571.386719 35.125 570.613281 35.109375 569.6875 L 35.109375 569.671875 C 34.789062 560.648438 39.542969 552.210938 40.808594 543.265625 C 41.167969 540.738281 41.242188 538.132812 42.058594 535.714844 C 43.339844 531.921875 47.964844 528.769531 50.8125 525.9375 C 48.625 523.050781 46.433594 520.121094 45.039062 516.785156 C 43.644531 513.445312 43.113281 509.59375 44.378906 506.214844 C 44.925781 504.726562 45.8125 503.363281 46.851562 502.175781 C 50.398438 498.078125 55.667969 495.925781 60.710938 493.945312 L 60.785156 493.929688 C 58.957031 490.910156 58.5 487.304688 58.183594 483.792969 C 57.882812 480.28125 57.652344 476.675781 56.238281 473.46875 C 54.820312 470.257812 51.875 467.429688 48.347656 467.277344 C 50.894531 463.5 51.195312 457.703125 50.027344 453.308594 C 48.855469 448.914062 46.761719 444.796875 45.609375 440.398438 C 44.457031 436 44.359375 430.980469 46.949219 427.242188 C 40.832031 423.828125 34.640625 420.300781 30.996094 414.316406 C 29.617188 412.070312 28.671875 409.386719 29.148438 406.800781 C 29.507812 404.839844 30.636719 403.105469 31.867188 401.515625 C 33.863281 398.929688 36.167969 396.585938 38.738281 394.546875 C 40.453125 393.191406 42.304688 391.925781 43.664062 390.207031 C 45.023438 388.492188 45.835938 386.152344 45.097656 384.074219 C 44.703125 380.617188 44.816406 376.464844 45.910156 373.144531 C 47.132812 369.425781 49.871094 366.332031 50.988281 362.574219 C 52.269531 358.289062 51.289062 353.230469 48.347656 349.871094 C 50.402344 349 52.535156 348.078125 54.011719 346.394531 C 55.332031 344.882812 55.992188 342.921875 56.5 340.976562 C 57.9375 335.539062 58.429688 329.898438 58.917969 324.308594 C 58.972656 323.765625 59.015625 323.160156 58.710938 322.6875 C 58.429688 322.214844 56.617188 321.746094 56.273438 322.179688 C 50.082031 320.691406 45.003906 315.308594 43.875 309.023438 C 42.738281 302.738281 45.648438 295.941406 50.949219 292.394531 C 46.324219 289.488281 43.078125 284.386719 41.417969 279.179688 C 39.761719 273.96875 39.230469 268.476562 38.398438 263.078125 C 37.570312 257.675781 36.359375 252.203125 33.550781 247.519531 C 37.949219 244.21875 42.683594 241.027344 44.136719 235.949219 C 45.210938 232.253906 44.96875 228.265625 45.855469 224.511719 C 47.0625 219.320312 50.480469 214.695312 55.066406 212.015625 C 52.804688 209.144531 50.574219 205.425781 49.441406 201.957031 C 48.308594 198.480469 48.292969 194.5 50.179688 191.367188 C 52.558594 187.382812 57.863281 185.347656 62.394531 184.292969 L 62.582031 184.292969 C 60.335938 182.628906 60.425781 182.742188 58.804688 180.480469 C 56.84375 177.726562 55.992188 174.308594 55.480469 170.949219 C 54.972656 167.589844 54.742188 164.171875 53.800781 160.910156 C 53.878906 158.585938 52.628906 155.832031 50.6875 154.566406 C 49.402344 153.734375 47.722656 153.207031 47.097656 151.808594 C 46.703125 150.902344 46.886719 149.828125 47.398438 148.996094 C 47.910156 148.167969 48.832031 147.394531 49.703125 146.917969 C 49.421875 137.613281 45.628906 128.816406 43.226562 119.816406 C 40.261719 108.773438 39.355469 97.203125 40.566406 85.839844 C 47.609375 83.140625 61.050781 83.800781 69.941406 86.179688 C 77.640625 88.238281 85.003906 91.691406 92.914062 92.789062 C 97.820312 93.46875 103.183594 93.089844 107.183594 90.148438 C 109.074219 94.335938 113.847656 98.191406 118.359375 99.019531 C 121.589844 99.625 124.90625 99.097656 128.171875 99.433594 C 132.96875 99.925781 137.632812 102.433594 140.175781 106.507812 C 140.589844 103.472656 142.175781 99.566406 144.121094 97.183594 C 146.082031 94.824219 148.855469 93.109375 151.878906 92.632812 C 155.222656 92.125 158.636719 93.144531 161.5625 94.84375 C 164.488281 96.523438 164.941406 96.957031 167.414062 99.257812 C 170.773438 94.730469 176.773438 90.480469 182.285156 89.308594 C 185.171875 88.703125 188.171875 88.632812 191.003906 87.820312 C 195.835938 86.441406 200.746094 82.726562 202.761719 78.117188 C 206.617188 80.402344 211.464844 79.796875 215.75 81.082031 C 218.167969 81.800781 220.394531 83.101562 222.867188 83.648438 C 226.039062 84.347656 229.378906 83.726562 232.53125 84.421875 C 239.234375 85.914062 243.082031 92.730469 249.574219 94.9375 C 253.558594 92.050781 258.070312 89.878906 262.828125 88.613281 C 264.148438 88.253906 265.507812 87.972656 266.847656 88.179688 C 268.925781 88.5 270.660156 89.9375 272.058594 91.503906 C 275.550781 95.375 277.644531 99.355469 278.210938 104.546875 C 281.457031 103.058594 285.0625 102.636719 288.609375 102.261719 C 292.15625 101.882812 295.765625 101.488281 299.03125 100.035156 C 302.292969 98.582031 305.277344 95.671875 305.996094 92.183594 C 309.585938 95.484375 315.058594 96.5625 319.625 94.882812 C 322.550781 93.808594 325.003906 91.75 327.855469 90.519531 C 333.425781 88.125 339.523438 89.140625 345.503906 90.144531 C 348.867188 84.59375 353.355469 79.761719 358.625 75.984375 C 360.078125 74.945312 361.625 73.988281 363.382812 73.699219 C 365.476562 73.378906 367.589844 74.078125 369.480469 75 C 376.21875 78.265625 381.410156 84.59375 383.316406 91.839844 L 383.296875 90.75 C 388.335938 88.503906 394.1875 88.164062 399.453125 89.789062 C 403.34375 90.996094 406.851562 93.203125 410.742188 94.414062 C 414.632812 95.621094 419.3125 95.585938 422.277344 92.792969 C 423.675781 96.832031 427.316406 100.308594 431.410156 101.609375 C 437.246094 103.457031 444.003906 101.382812 449.441406 104.179688 C 451.515625 99.347656 454.515625 94.605469 458.238281 90.890625 C 459.503906 89.625 460.9375 88.417969 462.671875 87.984375 C 464.769531 87.472656 466.941406 88.171875 468.9375 88.96875 C 473.902344 90.949219 475.90625 91.667969 480.191406 94.875 C 483.625 91.417969 487.230469 87.851562 491.875 86.324219 C 495.953125 84.984375 500.464844 85.378906 504.539062 84.058594 C 507.425781 83.136719 510.03125 81.378906 512.996094 80.71875 C 514.976562 80.285156 517.019531 80.355469 519.035156 80.171875 C 521.058594 80 523.132812 79.527344 524.675781 78.226562 C 527.09375 82.300781 530.8125 86.496094 535.246094 88.195312 C 540.648438 90.269531 547.289062 87.875 552.160156 90.96875 C 554.085938 92.175781 555.425781 94.082031 556.992188 95.703125 C 558.558594 97.324219 560.597656 98.800781 562.859375 98.6875 C 566.671875 96.027344 570.976562 93.417969 575.300781 91.699219 C 576.453125 91.25 577.660156 90.832031 578.890625 91.003906 C 580.511719 91.230469 581.792969 92.457031 582.851562 93.722656 C 585.816406 97.234375 587.910156 101.464844 588.929688 105.933594 C 591.324219 102.371094 596.046875 100.535156 600.292969 99.855469 C 604.539062 99.179688 608.933594 99.117188 612.9375 97.515625 C 616.371094 96.136719 619.335938 93.609375 621.261719 90.4375 C 625.46875 93.648438 631.699219 93.816406 636.871094 92.683594 C 642.046875 91.570312 646.839844 89.191406 651.839844 87.492188 C 662.734375 83.773438 676.71875 83.171875 687.933594 85.832031 C 689.140625 97.191406 688.234375 108.761719 685.273438 119.804688 C 682.855469 128.808594 679.0625 137.589844 678.796875 146.910156 C 679.667969 147.359375 680.574219 148.136719 681.101562 148.988281 C 681.632812 149.839844 681.800781 150.914062 681.402344 151.800781 C 680.78125 153.21875 679.097656 153.726562 677.816406 154.554688 C 675.871094 155.820312 674.621094 158.578125 674.699219 160.898438 C 673.777344 164.164062 673.546875 167.578125 673.019531 170.941406 C 672.492188 174.300781 671.664062 177.699219 669.695312 180.472656 C 668.074219 182.734375 668.164062 182.625 665.921875 184.28125 L 666.109375 184.28125 C 670.636719 185.339844 675.921875 187.378906 678.320312 191.359375 C 680.1875 194.492188 680.1875 198.476562 679.058594 201.945312 C 677.925781 205.421875 675.699219 209.136719 673.433594 212.007812 C 678.019531 214.6875 681.441406 219.328125 682.648438 224.5 C 683.515625 228.257812 683.289062 232.21875 684.363281 235.941406 C 685.835938 241 690.554688 244.210938 694.949219 247.511719 C 692.117188 252.191406 690.929688 257.667969 690.101562 263.066406 C 689.273438 268.46875 688.746094 273.960938 687.082031 279.167969 C 685.417969 284.378906 682.191406 289.472656 677.550781 292.382812 C 682.855469 295.929688 685.742188 302.75 684.628906 309.015625 C 683.511719 315.28125 678.433594 320.679688 672.226562 322.171875 C 671.886719 321.738281 670.074219 322.207031 669.792969 322.679688 C 669.507812 323.152344 669.546875 323.738281 669.582031 324.300781 C 670.074219 329.90625 670.582031 335.53125 672 340.96875 C 672.511719 342.914062 673.171875 344.875 674.492188 346.386719 C 675.960938 348.066406 678.097656 348.992188 680.15625 349.863281 C 677.210938 353.222656 676.230469 358.28125 677.515625 362.566406 C 678.628906 366.324219 681.367188 369.421875 682.59375 373.136719 C 683.683594 376.4375 683.796875 380.589844 683.402344 384.066406 C 682.664062 386.125 683.480469 388.480469 684.835938 390.199219 C 686.195312 391.914062 688.046875 393.164062 689.765625 394.539062 C 692.3125 396.578125 694.632812 398.917969 696.636719 401.503906 C 697.859375 403.089844 698.996094 404.828125 699.355469 406.792969 C 699.738281 409.375 698.777344 412.035156 697.394531 414.300781 Z M 697.394531 414.300781 " fill-opacity="1" fill-rule="nonzero"/></g></g><g clip-path="url(#4d1b094598)"><g clip-path="url(#3dad4bf421)"><path fill="#e6bc40" d="M 22.617188 66.929688 L 705.679688 66.929688 L 705.679688 749.992188 L 22.617188 749.992188 Z M 22.617188 66.929688 " fill-opacity="1" fill-rule="nonzero"/></g></g><g clip-path="url(#c18cfe2191)"><g clip-path="url(#168cc4398b)"><g clip-path="url(#4325c0b936)"><path fill="#000000" d="M 741.394531 387.445312 C 737.617188 393.652344 731.191406 397.3125 724.847656 400.855469 C 727.53125 404.734375 727.433594 409.9375 726.238281 414.503906 C 725.042969 419.066406 722.867188 423.332031 721.65625 427.894531 C 720.441406 432.457031 720.753906 438.488281 723.398438 442.382812 C 719.753906 442.539062 716.699219 445.457031 715.210938 448.808594 C 713.742188 452.15625 713.507812 455.875 713.195312 459.515625 C 712.882812 463.160156 712.390625 466.917969 710.492188 470.03125 L 710.574219 470.050781 C 715.800781 472.125 721.242188 474.339844 724.949219 478.585938 C 726.023438 479.839844 726.945312 481.25 727.511719 482.777344 C 728.808594 486.300781 728.277344 490.296875 726.828125 493.742188 C 725.378906 497.207031 723.085938 500.242188 720.835938 503.234375 C 723.777344 506.15625 728.589844 509.441406 729.921875 513.378906 C 730.761719 515.886719 730.84375 518.589844 731.214844 521.210938 C 732.511719 530.492188 737.441406 539.226562 737.128906 548.605469 L 737.128906 548.625 C 737.113281 549.582031 736.40625 550.386719 735.585938 550.875 C 734.761719 551.367188 733.84375 551.640625 733 552.070312 C 730.082031 553.558594 728.539062 556.871094 727.929688 560.101562 C 727.320312 563.332031 727.417969 566.664062 726.734375 569.871094 C 725.34375 576.410156 720.332031 581.71875 715.980469 586.8125 C 718.351562 589.789062 720.757812 592.800781 722.109375 596.347656 C 723.460938 599.890625 723.613281 604.101562 721.597656 607.3125 C 719.132812 611.246094 713.199219 613.128906 708.710938 614.304688 C 712.023438 617.515625 715.527344 621.058594 716.1875 625.621094 C 716.636719 628.796875 715.660156 632.023438 716.070312 635.199219 C 716.425781 637.9375 717.8125 640.464844 719.59375 642.5625 C 721.375 644.660156 723.550781 646.421875 725.683594 648.164062 C 721.804688 653.980469 722.199219 662.304688 724.019531 669.058594 C 725.84375 675.8125 729.070312 682.121094 730.855469 688.894531 C 733.148438 697.53125 732.992188 706.792969 730.445312 715.347656 C 718.835938 718.105469 705.382812 718.132812 694.082031 714.273438 C 688.894531 712.492188 683.921875 710.042969 678.554688 708.886719 C 673.1875 707.730469 666.726562 707.910156 662.359375 711.214844 C 660.363281 707.925781 657.285156 705.300781 653.726562 703.875 C 649.589844 702.210938 645.007812 702.148438 640.605469 701.445312 C 636.203125 700.742188 631.304688 698.84375 628.820312 695.140625 C 627.761719 699.777344 625.589844 704.167969 622.515625 707.808594 C 621.417969 709.105469 620.085938 710.375 618.40625 710.628906 C 617.132812 710.804688 615.878906 710.375 614.683594 709.90625 C 610.179688 708.144531 605.734375 705.441406 601.777344 702.660156 C 599.429688 702.542969 597.3125 704.066406 595.6875 705.753906 C 594.0625 707.4375 592.648438 709.414062 590.675781 710.667969 C 585.601562 713.859375 578.710938 711.371094 573.128906 713.542969 C 568.546875 715.324219 564.671875 719.652344 562.167969 723.882812 C 560.558594 722.515625 558.40625 722.042969 556.3125 721.867188 C 554.214844 721.691406 552.105469 721.769531 550.050781 721.300781 C 546.972656 720.617188 544.273438 718.792969 541.277344 717.832031 C 537.03125 716.464844 532.367188 716.875 528.140625 715.484375 C 523.339844 713.917969 519.585938 710.199219 516.019531 706.613281 C 511.574219 709.945312 509.519531 710.6875 504.34375 712.742188 C 502.273438 713.5625 500.019531 714.285156 497.84375 713.761719 C 496.046875 713.3125 494.558594 712.054688 493.246094 710.746094 C 489.386719 706.910156 486.273438 701.976562 484.117188 696.964844 C 478.476562 699.859375 471.46875 697.710938 465.414062 699.628906 C 461.1875 700.976562 457.410156 704.5625 455.941406 708.773438 C 452.882812 705.855469 448.007812 705.835938 443.972656 707.089844 C 439.941406 708.34375 436.296875 710.632812 432.261719 711.890625 C 426.796875 713.574219 420.726562 713.222656 415.503906 710.894531 L 415.523438 709.761719 C 413.542969 717.28125 408.15625 723.835938 401.171875 727.230469 C 399.191406 728.1875 397 728.910156 394.84375 728.582031 C 393.027344 728.289062 391.398438 727.285156 389.910156 726.207031 C 384.445312 722.3125 379.785156 717.28125 376.300781 711.523438 C 370.09375 712.582031 363.765625 713.636719 357.988281 711.128906 C 355.03125 709.859375 352.46875 707.722656 349.453125 706.605469 C 344.714844 704.863281 339.039062 705.996094 335.316406 709.40625 C 334.570312 705.78125 331.457031 702.769531 328.085938 701.261719 C 324.699219 699.753906 320.957031 699.34375 317.277344 698.953125 C 313.597656 698.558594 309.859375 698.128906 306.488281 696.582031 C 305.902344 701.964844 303.75 706.097656 300.109375 710.109375 C 298.636719 711.734375 296.859375 713.222656 294.703125 713.558594 C 293.316406 713.777344 291.882812 713.476562 290.53125 713.109375 C 285.597656 711.777344 280.917969 709.546875 276.785156 706.546875 C 270.050781 708.859375 266.054688 715.90625 259.105469 717.457031 C 255.835938 718.179688 252.347656 717.535156 249.078125 718.257812 C 246.515625 718.824219 244.222656 720.175781 241.695312 720.921875 C 237.25 722.234375 232.203125 721.625 228.222656 724 C 226.125 719.242188 221.019531 715.363281 216.027344 713.929688 C 213.089844 713.089844 209.976562 713.027344 206.980469 712.386719 C 201.265625 711.171875 195.015625 706.765625 191.550781 702.070312 C 188.988281 704.441406 188.515625 704.890625 185.480469 706.652344 C 182.445312 708.414062 178.882812 709.453125 175.4375 708.941406 C 172.289062 708.476562 169.40625 706.671875 167.390625 704.222656 C 165.351562 701.777344 163.710938 697.703125 163.296875 694.550781 C 160.652344 698.777344 155.796875 701.382812 150.847656 701.890625 C 147.460938 702.246094 144.011719 701.695312 140.667969 702.320312 C 135.984375 703.203125 131.035156 707.195312 129.074219 711.523438 C 124.941406 708.464844 119.378906 708.074219 114.269531 708.78125 C 106.0625 709.917969 98.429688 713.5 90.4375 715.636719 C 81.214844 718.101562 68.328125 718.164062 61.042969 715.363281 C 58.480469 706.808594 58.34375 697.542969 60.632812 688.910156 C 62.433594 682.152344 65.664062 675.828125 67.46875 669.074219 C 69.292969 662.316406 69.703125 653.996094 65.804688 648.179688 C 67.960938 646.4375 70.113281 644.691406 71.894531 642.578125 C 73.675781 640.460938 75.070312 637.957031 75.417969 635.210938 C 75.832031 632.039062 74.832031 628.8125 75.300781 625.636719 C 75.96875 621.074219 79.472656 617.53125 82.78125 614.320312 C 78.277344 613.160156 72.363281 611.261719 69.894531 607.328125 C 67.875 604.113281 68.03125 599.90625 69.382812 596.363281 C 70.734375 592.820312 73.144531 589.78125 75.507812 586.824219 C 71.164062 581.734375 66.152344 576.445312 64.757812 569.886719 C 64.074219 566.671875 64.191406 563.347656 63.5625 560.117188 C 62.953125 556.886719 61.410156 553.578125 58.488281 552.085938 C 57.648438 551.65625 56.707031 551.382812 55.90625 550.890625 C 55.082031 550.398438 54.378906 549.597656 54.359375 548.636719 L 54.359375 548.617188 C 54.03125 539.261719 58.960938 530.507812 60.273438 521.222656 C 60.648438 518.601562 60.722656 515.902344 61.570312 513.390625 C 62.902344 509.457031 67.695312 506.1875 70.652344 503.25 C 68.382812 500.253906 66.109375 497.21875 64.664062 493.753906 C 63.21875 490.292969 62.664062 486.296875 63.976562 482.789062 C 64.546875 481.246094 65.464844 479.832031 66.542969 478.601562 C 70.222656 474.347656 75.6875 472.121094 80.917969 470.066406 L 81 470.046875 C 79.101562 466.914062 78.628906 463.171875 78.296875 459.53125 C 77.984375 455.886719 77.75 452.148438 76.28125 448.820312 C 74.808594 445.492188 71.753906 442.558594 68.09375 442.398438 C 70.738281 438.480469 71.050781 432.46875 69.835938 427.910156 C 68.621094 423.351562 66.449219 419.078125 65.253906 414.515625 C 64.058594 409.953125 63.960938 404.746094 66.644531 400.867188 C 60.296875 397.324219 53.875 393.664062 50.09375 387.457031 C 48.664062 385.128906 47.6875 382.347656 48.175781 379.664062 C 48.550781 377.628906 49.722656 375.828125 50.996094 374.179688 C 53.070312 371.496094 55.460938 369.066406 58.125 366.953125 C 59.90625 365.542969 61.824219 364.230469 63.238281 362.449219 C 64.644531 360.667969 65.488281 358.242188 64.726562 356.085938 C 64.3125 352.5 64.433594 348.191406 65.566406 344.75 C 66.835938 340.890625 69.675781 337.683594 70.832031 333.785156 C 72.164062 329.339844 71.144531 324.089844 68.09375 320.605469 C 70.226562 319.703125 72.4375 318.742188 73.96875 317 C 75.339844 315.433594 76.023438 313.394531 76.554688 311.378906 C 78.042969 305.738281 78.550781 299.886719 79.0625 294.089844 C 79.117188 293.523438 79.160156 292.894531 78.84375 292.40625 C 78.550781 291.917969 76.671875 291.429688 76.316406 291.878906 C 69.894531 290.335938 64.625 284.75 63.453125 278.230469 C 62.277344 271.710938 65.296875 264.660156 70.796875 260.980469 C 65.996094 257.964844 62.628906 252.675781 60.90625 247.269531 C 59.1875 241.867188 58.636719 236.171875 57.777344 230.566406 C 56.917969 224.964844 55.660156 219.285156 52.746094 214.429688 C 57.308594 211.003906 62.222656 207.695312 63.726562 202.425781 C 64.84375 198.589844 64.585938 194.457031 65.507812 190.5625 C 66.761719 185.175781 70.308594 180.378906 75.066406 177.597656 C 72.71875 174.621094 70.402344 170.761719 69.230469 167.164062 C 68.054688 163.558594 68.035156 159.429688 69.996094 156.179688 C 72.460938 152.046875 77.964844 149.933594 82.667969 148.839844 L 82.859375 148.839844 C 80.53125 147.113281 80.625 147.234375 78.945312 144.886719 C 76.90625 142.027344 76.023438 138.484375 75.496094 135 C 74.964844 131.511719 74.730469 127.96875 73.753906 124.582031 C 73.832031 122.171875 72.539062 119.316406 70.519531 118 C 69.1875 117.140625 67.445312 116.59375 66.796875 115.144531 C 66.386719 114.203125 66.582031 113.089844 67.109375 112.222656 C 67.640625 111.363281 68.597656 110.5625 69.5 110.070312 C 69.207031 100.414062 65.273438 91.292969 62.785156 81.953125 C 59.707031 70.496094 58.769531 58.496094 60.023438 46.707031 C 67.328125 43.90625 81.273438 44.59375 90.492188 47.0625 C 98.480469 49.199219 106.121094 52.777344 114.324219 53.917969 C 119.417969 54.621094 124.976562 54.230469 129.128906 51.175781 C 131.089844 55.523438 136.042969 59.519531 140.722656 60.378906 C 144.070312 61.007812 147.515625 60.460938 150.902344 60.808594 C 155.878906 61.320312 160.714844 63.921875 163.355469 68.148438 C 163.785156 65 165.429688 60.945312 167.445312 58.476562 C 169.480469 56.027344 172.359375 54.246094 175.496094 53.757812 C 178.964844 53.226562 182.507812 54.285156 185.539062 56.046875 C 188.574219 57.789062 189.042969 58.238281 191.609375 60.628906 C 195.09375 55.929688 201.320312 51.523438 207.039062 50.308594 C 210.03125 49.679688 213.144531 49.605469 216.082031 48.761719 C 221.09375 47.332031 226.1875 43.476562 228.28125 38.695312 C 232.277344 41.066406 237.308594 40.441406 241.753906 41.773438 C 244.261719 42.519531 246.570312 43.871094 249.136719 44.4375 C 252.425781 45.160156 255.890625 44.515625 259.160156 45.238281 C 266.113281 46.785156 270.105469 53.855469 276.84375 56.148438 C 280.976562 53.152344 285.652344 50.898438 290.589844 49.585938 C 291.957031 49.210938 293.371094 48.917969 294.761719 49.136719 C 296.914062 49.46875 298.714844 50.960938 300.164062 52.585938 C 303.789062 56.601562 305.960938 60.730469 306.546875 66.113281 C 309.914062 64.570312 313.65625 64.132812 317.335938 63.742188 C 321.015625 63.351562 324.757812 62.941406 328.144531 61.433594 C 331.53125 59.925781 334.625 56.90625 335.371094 53.289062 C 339.09375 56.714844 344.773438 57.832031 349.511719 56.089844 C 352.542969 54.976562 355.089844 52.839844 358.046875 51.5625 C 363.824219 49.078125 370.148438 50.132812 376.355469 51.171875 C 379.84375 45.414062 384.5 40.402344 389.964844 36.484375 C 391.472656 35.410156 393.078125 34.410156 394.902344 34.113281 C 397.074219 33.785156 399.265625 34.507812 401.226562 35.464844 C 408.21875 38.851562 413.605469 45.414062 415.578125 52.933594 L 415.558594 51.800781 C 420.789062 49.472656 426.859375 49.117188 432.320312 50.804688 C 436.355469 52.054688 439.996094 54.347656 444.03125 55.601562 C 448.066406 56.855469 452.921875 56.816406 455.996094 53.921875 C 457.445312 58.113281 461.226562 61.714844 465.472656 63.066406 C 471.523438 64.984375 478.535156 62.832031 484.175781 65.730469 C 486.328125 60.71875 489.441406 55.800781 493.300781 51.945312 C 494.613281 50.632812 496.101562 49.382812 497.902344 48.933594 C 500.074219 48.402344 502.328125 49.125 504.402344 49.953125 C 509.550781 52.007812 511.628906 52.753906 516.074219 56.082031 C 519.636719 52.496094 523.378906 48.796875 528.195312 47.210938 C 532.425781 45.820312 537.105469 46.230469 541.332031 44.859375 C 544.328125 43.902344 547.03125 42.078125 550.105469 41.394531 C 552.160156 40.945312 554.277344 41.019531 556.371094 40.828125 C 558.46875 40.652344 560.621094 40.160156 562.222656 38.808594 C 564.730469 43.039062 568.585938 47.386719 573.1875 49.152344 C 578.789062 51.304688 585.683594 48.820312 590.730469 52.027344 C 592.730469 53.277344 594.117188 55.257812 595.742188 56.941406 C 597.367188 58.621094 599.484375 60.152344 601.832031 60.035156 C 605.785156 57.277344 610.25 54.570312 614.738281 52.789062 C 615.933594 52.320312 617.1875 51.886719 618.460938 52.066406 C 620.144531 52.300781 621.476562 53.570312 622.570312 54.886719 C 625.644531 58.527344 627.820312 62.914062 628.878906 67.554688 C 631.363281 63.855469 636.261719 61.953125 640.664062 61.25 C 645.070312 60.542969 649.628906 60.484375 653.78125 58.820312 C 657.34375 57.390625 660.417969 54.765625 662.417969 51.480469 C 666.78125 54.808594 673.246094 54.984375 678.609375 53.808594 C 683.976562 52.652344 688.949219 50.183594 694.136719 48.421875 C 705.4375 44.5625 719.945312 43.941406 731.578125 46.699219 C 732.832031 58.484375 731.890625 70.488281 728.820312 81.945312 C 726.3125 91.28125 722.378906 100.390625 722.105469 110.0625 C 723.003906 110.527344 723.945312 111.332031 724.492188 112.214844 C 725.042969 113.097656 725.214844 114.210938 724.804688 115.132812 C 724.160156 116.601562 722.414062 117.132812 721.082031 117.992188 C 719.066406 119.304688 717.773438 122.164062 717.851562 124.574219 C 716.894531 127.960938 716.65625 131.503906 716.109375 134.988281 C 715.5625 138.476562 714.703125 142 712.660156 144.875 C 710.980469 147.222656 711.074219 147.109375 708.746094 148.828125 L 708.9375 148.828125 C 713.636719 149.925781 719.117188 152.042969 721.609375 156.171875 C 723.542969 159.421875 723.542969 163.554688 722.371094 167.152344 C 721.195312 170.757812 718.886719 174.613281 716.539062 177.589844 C 721.296875 180.371094 724.84375 185.183594 726.09375 190.550781 C 726.996094 194.449219 726.761719 198.558594 727.875 202.417969 C 729.402344 207.664062 734.300781 210.996094 738.859375 214.421875 C 735.921875 219.277344 734.6875 224.957031 733.828125 230.558594 C 732.96875 236.160156 732.421875 241.859375 730.695312 247.261719 C 728.972656 252.664062 725.621094 257.953125 720.808594 260.96875 C 726.3125 264.648438 729.308594 271.722656 728.148438 278.222656 C 726.992188 284.722656 721.726562 290.324219 715.285156 291.871094 C 714.933594 291.421875 713.050781 291.90625 712.757812 292.398438 C 712.46875 292.890625 712.503906 293.496094 712.542969 294.082031 C 713.050781 299.894531 713.582031 305.730469 715.050781 311.371094 C 715.578125 313.386719 716.265625 315.421875 717.636719 316.992188 C 719.160156 318.734375 721.375 319.691406 723.511719 320.59375 C 720.453125 324.082031 719.4375 329.332031 720.769531 333.773438 C 721.929688 337.671875 724.769531 340.882812 726.039062 344.738281 C 727.171875 348.164062 727.289062 352.472656 726.878906 356.078125 C 726.113281 358.210938 726.960938 360.660156 728.367188 362.441406 C 729.773438 364.222656 731.699219 365.515625 733.480469 366.941406 C 736.125 369.058594 738.527344 371.484375 740.605469 374.167969 C 741.878906 375.8125 743.054688 377.617188 743.425781 379.652344 C 743.824219 382.332031 742.828125 385.089844 741.394531 387.445312 Z M 741.394531 387.445312 " fill-opacity="1" fill-rule="nonzero"/></g></g></g><g clip-path="url(#c0cbf145db)"><g clip-path="url(#9fee4bb85d)"><g clip-path="url(#e882fb1c29)"><path fill="#222222" d="M 41.402344 27.089844 L 749.988281 27.089844 L 749.988281 735.675781 L 41.402344 735.675781 Z M 41.402344 27.089844 " fill-opacity="1" fill-rule="nonzero"/></g></g></g><g clip-path="url(#7c6069174e)"><g clip-path="url(#68e52f3f53)"><g clip-path="url(#b24f34fc77)"><path stroke-linecap="butt" transform="matrix(0.75, 0, 0, 0.75, 41.402885, 27.089848)" fill="none" stroke-linejoin="miter" d="M -0.000722243 169.994794 L -0.000722243 774.78649 C -0.000722243 868.671911 76.108656 944.78129 169.999286 944.78129 L 774.785774 944.78129 C 868.671195 944.78129 944.780574 868.671911 944.780574 774.78649 L 944.780574 169.994794 C 944.780574 76.109373 868.671195 -0.00000603976 774.785774 -0.00000603976 L 169.999286 -0.00000603976 C 76.108656 -0.00000603976 -0.000722243 76.109373 -0.000722243 169.994794 Z M -0.000722243 169.994794 " stroke="#222222" stroke-width="68" stroke-opacity="1" stroke-miterlimit="4"/></g></g></g><g clip-path="url(#15df85a2b3)"><g clip-path="url(#b7d418cd91)"><path fill="#2e2d2d" d="M 655.050781 413.515625 C 651.871094 418.734375 646.46875 421.8125 641.132812 424.792969 C 643.390625 428.054688 643.308594 432.429688 642.300781 436.265625 C 641.296875 440.105469 639.46875 443.691406 638.449219 447.527344 C 637.429688 451.367188 637.691406 456.4375 639.914062 459.710938 C 636.851562 459.84375 634.28125 462.296875 633.03125 465.113281 C 631.796875 467.929688 631.597656 471.058594 631.335938 474.121094 C 631.074219 477.183594 630.660156 480.34375 629.0625 482.960938 L 629.128906 482.976562 C 633.527344 484.722656 638.101562 486.585938 641.21875 490.15625 C 642.125 491.210938 642.898438 492.398438 643.375 493.679688 C 644.464844 496.644531 644.019531 500.003906 642.796875 502.898438 C 641.578125 505.816406 639.652344 508.367188 637.761719 510.882812 C 640.234375 513.339844 644.28125 516.105469 645.402344 519.414062 C 646.109375 521.523438 646.175781 523.792969 646.488281 526 C 647.578125 533.804688 651.726562 541.148438 651.460938 549.035156 L 651.460938 549.050781 C 651.445312 549.855469 650.855469 550.53125 650.164062 550.945312 C 649.472656 551.359375 648.699219 551.589844 647.992188 551.949219 C 645.535156 553.203125 644.238281 555.984375 643.722656 558.703125 C 643.210938 561.421875 643.296875 564.21875 642.71875 566.917969 C 641.550781 572.414062 637.335938 576.878906 633.679688 581.164062 C 635.671875 583.664062 637.695312 586.199219 638.832031 589.183594 C 639.964844 592.164062 640.097656 595.703125 638.402344 598.402344 C 636.328125 601.710938 631.339844 603.292969 627.566406 604.28125 C 630.347656 606.984375 633.296875 609.960938 633.851562 613.800781 C 634.230469 616.46875 633.40625 619.183594 633.753906 621.851562 C 634.050781 624.15625 635.21875 626.28125 636.71875 628.042969 C 638.214844 629.808594 640.042969 631.289062 641.835938 632.753906 C 638.574219 637.644531 638.90625 644.644531 640.4375 650.324219 C 641.972656 656.003906 644.6875 661.308594 646.1875 667.003906 C 648.113281 674.265625 647.984375 682.054688 645.839844 689.25 C 636.078125 691.570312 624.765625 691.589844 615.261719 688.34375 C 610.902344 686.847656 606.71875 684.789062 602.207031 683.816406 C 597.691406 682.84375 592.257812 682.992188 588.589844 685.773438 C 586.90625 683.007812 584.320312 680.800781 581.328125 679.601562 C 577.851562 678.203125 573.996094 678.152344 570.296875 677.558594 C 566.59375 676.96875 562.472656 675.371094 560.382812 672.257812 C 559.496094 676.15625 557.667969 679.847656 555.082031 682.910156 C 554.160156 684 553.039062 685.066406 551.625 685.28125 C 550.558594 685.429688 549.5 685.066406 548.496094 684.675781 C 544.710938 683.191406 540.972656 680.921875 537.644531 678.582031 C 535.667969 678.480469 533.890625 679.765625 532.523438 681.183594 C 531.15625 682.597656 529.96875 684.261719 528.308594 685.3125 C 524.042969 688 518.246094 685.90625 513.554688 687.734375 C 509.703125 689.230469 506.441406 692.867188 504.335938 696.429688 C 502.984375 695.277344 501.171875 694.878906 499.414062 694.730469 C 497.648438 694.585938 495.875 694.648438 494.144531 694.253906 C 491.558594 693.679688 489.289062 692.144531 486.769531 691.339844 C 483.199219 690.1875 479.277344 690.53125 475.722656 689.367188 C 471.6875 688.046875 468.527344 684.921875 465.527344 681.90625 C 461.789062 684.707031 460.0625 685.328125 455.714844 687.058594 C 453.96875 687.75 452.074219 688.355469 450.246094 687.914062 C 448.734375 687.539062 447.484375 686.480469 446.378906 685.382812 C 443.132812 682.15625 440.515625 678.003906 438.703125 673.789062 C 433.960938 676.226562 428.066406 674.417969 422.976562 676.03125 C 419.421875 677.167969 416.242188 680.179688 415.007812 683.71875 C 412.4375 681.265625 408.339844 681.25 404.945312 682.304688 C 401.554688 683.359375 398.492188 685.285156 395.097656 686.34375 C 390.503906 687.757812 385.398438 687.460938 381.003906 685.503906 L 381.019531 684.550781 C 379.355469 690.875 374.828125 696.386719 368.953125 699.242188 C 367.289062 700.046875 365.445312 700.65625 363.632812 700.375 C 362.105469 700.128906 360.734375 699.289062 359.484375 698.382812 C 354.886719 695.105469 350.96875 690.875 348.039062 686.03125 C 342.820312 686.921875 337.5 687.8125 332.640625 685.703125 C 330.15625 684.632812 328 682.839844 325.464844 681.898438 C 321.480469 680.429688 316.707031 681.386719 313.574219 684.253906 C 312.945312 681.207031 310.328125 678.671875 307.496094 677.40625 C 304.648438 676.136719 301.503906 675.792969 298.410156 675.460938 C 295.3125 675.132812 292.167969 674.769531 289.335938 673.46875 C 288.84375 677.996094 287.03125 681.472656 283.96875 684.84375 C 282.734375 686.210938 281.234375 687.460938 279.425781 687.746094 C 278.257812 687.925781 277.054688 687.675781 275.917969 687.367188 C 271.765625 686.246094 267.832031 684.371094 264.359375 681.851562 C 258.691406 683.792969 255.332031 689.71875 249.488281 691.023438 C 246.738281 691.628906 243.808594 691.089844 241.058594 691.695312 C 238.902344 692.171875 236.976562 693.308594 234.851562 693.9375 C 231.113281 695.042969 226.867188 694.53125 223.523438 696.523438 C 221.757812 692.523438 217.464844 689.261719 213.265625 688.058594 C 210.792969 687.351562 208.175781 687.300781 205.65625 686.757812 C 200.851562 685.738281 195.597656 682.03125 192.683594 678.082031 C 190.527344 680.078125 190.128906 680.457031 187.578125 681.9375 C 185.027344 683.417969 182.03125 684.292969 179.136719 683.863281 C 176.484375 683.46875 174.0625 681.953125 172.367188 679.894531 C 170.652344 677.835938 169.273438 674.414062 168.925781 671.761719 C 166.703125 675.316406 162.617188 677.507812 158.453125 677.933594 C 155.605469 678.230469 152.707031 677.769531 149.894531 678.292969 C 145.957031 679.039062 141.792969 682.394531 140.144531 686.03125 C 136.671875 683.460938 131.996094 683.132812 127.695312 683.730469 C 120.796875 684.683594 114.378906 687.695312 107.65625 689.492188 C 99.902344 691.566406 89.066406 691.617188 82.941406 689.261719 C 80.785156 682.066406 80.667969 674.277344 82.59375 667.015625 C 84.109375 661.335938 86.824219 656.015625 88.34375 650.335938 C 89.875 644.65625 90.222656 637.65625 86.945312 632.765625 C 88.757812 631.300781 90.566406 629.835938 92.066406 628.054688 C 93.5625 626.277344 94.734375 624.171875 95.027344 621.863281 C 95.375 619.195312 94.535156 616.480469 94.929688 613.8125 C 95.488281 609.972656 98.4375 606.996094 101.21875 604.292969 C 97.433594 603.320312 92.457031 601.722656 90.378906 598.414062 C 88.683594 595.714844 88.816406 592.175781 89.953125 589.195312 C 91.085938 586.214844 93.113281 583.660156 95.105469 581.175781 C 91.449219 576.890625 87.234375 572.449219 86.0625 566.929688 C 85.488281 564.230469 85.585938 561.433594 85.058594 558.714844 C 84.546875 555.996094 83.246094 553.21875 80.792969 551.960938 C 80.085938 551.601562 79.292969 551.371094 78.617188 550.957031 C 77.925781 550.542969 77.335938 549.867188 77.320312 549.0625 L 77.320312 549.046875 C 77.042969 541.175781 81.1875 533.816406 82.292969 526.011719 C 82.605469 523.804688 82.671875 521.535156 83.382812 519.425781 C 84.5 516.117188 88.535156 513.367188 91.019531 510.894531 C 89.109375 508.378906 87.199219 505.824219 85.984375 502.910156 C 84.769531 500 84.304688 496.640625 85.40625 493.691406 C 85.882812 492.394531 86.660156 491.203125 87.5625 490.167969 C 90.660156 486.59375 95.253906 484.71875 99.652344 482.988281 L 99.71875 482.972656 C 98.121094 480.339844 97.726562 477.195312 97.449219 474.132812 C 97.183594 471.070312 96.988281 467.921875 95.75 465.125 C 94.515625 462.324219 91.945312 459.859375 88.867188 459.722656 C 91.09375 456.429688 91.355469 451.375 90.332031 447.542969 C 89.3125 443.707031 87.484375 440.117188 86.480469 436.28125 C 85.476562 432.441406 85.390625 428.066406 87.648438 424.804688 C 82.3125 421.824219 76.910156 418.746094 73.734375 413.527344 C 72.527344 411.566406 71.707031 409.226562 72.121094 406.972656 C 72.433594 405.257812 73.417969 403.746094 74.492188 402.359375 C 76.234375 400.101562 78.246094 398.0625 80.484375 396.28125 C 81.984375 395.097656 83.597656 393.992188 84.785156 392.496094 C 85.96875 391 86.679688 388.957031 86.035156 387.144531 C 85.6875 384.128906 85.789062 380.507812 86.742188 377.613281 C 87.8125 374.367188 90.199219 371.667969 91.171875 368.390625 C 92.292969 364.652344 91.433594 360.242188 88.867188 357.308594 C 90.664062 356.550781 92.523438 355.746094 93.808594 354.277344 C 94.960938 352.960938 95.535156 351.246094 95.980469 349.550781 C 97.234375 344.808594 97.660156 339.886719 98.089844 335.011719 C 98.140625 334.535156 98.175781 334.007812 97.910156 333.597656 C 97.660156 333.183594 96.082031 332.777344 95.78125 333.152344 C 90.378906 331.855469 85.953125 327.160156 84.964844 321.675781 C 83.976562 316.195312 86.515625 310.265625 91.140625 307.171875 C 87.105469 304.636719 84.269531 300.1875 82.824219 295.644531 C 81.378906 291.097656 80.914062 286.308594 80.191406 281.597656 C 79.46875 276.886719 78.410156 272.109375 75.960938 268.027344 C 79.796875 265.148438 83.929688 262.363281 85.195312 257.933594 C 86.132812 254.707031 85.917969 251.230469 86.695312 247.953125 C 87.746094 243.425781 90.730469 239.394531 94.730469 237.054688 C 92.757812 234.550781 90.808594 231.304688 89.824219 228.28125 C 88.835938 225.25 88.820312 221.777344 90.46875 219.042969 C 92.542969 215.566406 97.167969 213.792969 101.121094 212.871094 L 101.285156 212.871094 C 99.328125 211.421875 99.40625 211.519531 97.992188 209.546875 C 96.28125 207.144531 95.535156 204.164062 95.09375 201.230469 C 94.648438 198.300781 94.449219 195.320312 93.625 192.472656 C 93.695312 190.445312 92.605469 188.042969 90.910156 186.9375 C 89.789062 186.214844 88.324219 185.753906 87.777344 184.535156 C 87.433594 183.746094 87.597656 182.808594 88.042969 182.082031 C 88.484375 181.359375 89.292969 180.683594 90.050781 180.269531 C 89.804688 172.148438 86.496094 164.480469 84.402344 156.625 C 81.816406 146.992188 81.027344 136.898438 82.082031 126.988281 C 88.222656 124.632812 99.949219 125.210938 107.703125 127.285156 C 114.421875 129.082031 120.84375 132.09375 127.746094 133.050781 C 132.027344 133.640625 136.703125 133.3125 140.195312 130.746094 C 141.84375 134.402344 146.003906 137.761719 149.941406 138.484375 C 152.757812 139.011719 155.65625 138.550781 158.503906 138.847656 C 162.683594 139.273438 166.753906 141.464844 168.972656 145.019531 C 169.335938 142.371094 170.71875 138.960938 172.414062 136.882812 C 174.125 134.828125 176.542969 133.328125 179.183594 132.914062 C 182.097656 132.46875 185.078125 133.359375 187.628906 134.84375 C 190.183594 136.308594 190.574219 136.683594 192.730469 138.695312 C 195.664062 134.742188 200.898438 131.035156 205.707031 130.015625 C 208.222656 129.488281 210.84375 129.425781 213.3125 128.714844 C 217.527344 127.511719 221.808594 124.273438 223.570312 120.25 C 226.929688 122.246094 231.160156 121.71875 234.898438 122.835938 C 237.007812 123.464844 238.949219 124.601562 241.105469 125.078125 C 243.871094 125.6875 246.789062 125.144531 249.535156 125.753906 C 255.382812 127.050781 258.742188 133 264.40625 134.925781 C 267.882812 132.40625 271.8125 130.511719 275.964844 129.40625 C 277.117188 129.09375 278.304688 128.847656 279.472656 129.03125 C 281.285156 129.308594 282.796875 130.5625 284.015625 131.929688 C 287.0625 135.308594 288.890625 138.777344 289.382812 143.308594 C 292.214844 142.007812 295.363281 141.644531 298.457031 141.3125 C 301.550781 140.984375 304.695312 140.636719 307.542969 139.371094 C 310.394531 138.101562 312.996094 135.566406 313.621094 132.523438 C 316.753906 135.402344 321.527344 136.34375 325.511719 134.878906 C 328.0625 133.941406 330.203125 132.144531 332.691406 131.074219 C 337.546875 128.984375 342.867188 129.867188 348.085938 130.742188 C 351.019531 125.898438 354.933594 121.6875 359.53125 118.394531 C 360.796875 117.488281 362.148438 116.648438 363.683594 116.398438 C 365.507812 116.121094 367.351562 116.726562 369 117.535156 C 374.878906 120.382812 379.410156 125.898438 381.070312 132.222656 L 381.054688 131.269531 C 385.449219 129.3125 390.554688 129.015625 395.148438 130.433594 C 398.539062 131.484375 401.601562 133.410156 404.996094 134.46875 C 408.386719 135.519531 412.46875 135.488281 415.054688 133.054688 C 416.277344 136.578125 419.453125 139.609375 423.023438 140.746094 C 428.113281 142.359375 434.007812 140.546875 438.75 142.984375 C 440.5625 138.769531 443.179688 134.636719 446.425781 131.394531 C 447.53125 130.289062 448.78125 129.238281 450.296875 128.859375 C 452.121094 128.414062 454.015625 129.023438 455.761719 129.71875 C 460.089844 131.445312 461.839844 132.074219 465.578125 134.871094 C 468.570312 131.855469 471.71875 128.746094 475.769531 127.410156 C 479.324219 126.242188 483.261719 126.585938 486.816406 125.4375 C 489.335938 124.628906 491.609375 123.097656 494.195312 122.519531 C 495.921875 122.140625 497.699219 122.207031 499.460938 122.042969 C 501.222656 121.894531 503.035156 121.484375 504.382812 120.347656 C 506.492188 123.902344 509.734375 127.5625 513.601562 129.042969 C 518.3125 130.855469 524.109375 128.765625 528.355469 131.460938 C 530.035156 132.515625 531.203125 134.179688 532.570312 135.59375 C 533.9375 137.007812 535.714844 138.292969 537.691406 138.195312 C 541.015625 135.875 544.769531 133.597656 548.542969 132.101562 C 549.546875 131.707031 550.601562 131.34375 551.671875 131.492188 C 553.085938 131.691406 554.207031 132.761719 555.128906 133.863281 C 557.714844 136.925781 559.542969 140.617188 560.433594 144.519531 C 562.523438 141.410156 566.640625 139.808594 570.34375 139.214844 C 574.050781 138.625 577.882812 138.570312 581.375 137.175781 C 584.371094 135.96875 586.957031 133.765625 588.636719 131 C 592.304688 133.800781 597.742188 133.949219 602.253906 132.960938 C 606.765625 131.984375 610.949219 129.914062 615.308594 128.429688 C 624.8125 125.183594 637.011719 124.660156 646.792969 126.980469 C 647.847656 136.890625 647.058594 146.984375 644.476562 156.617188 C 642.367188 164.472656 639.058594 172.128906 638.828125 180.261719 C 639.585938 180.65625 640.375 181.332031 640.835938 182.074219 C 641.296875 182.816406 641.445312 183.753906 641.097656 184.527344 C 640.554688 185.761719 639.089844 186.207031 637.96875 186.929688 C 636.273438 188.035156 635.183594 190.4375 635.25 192.464844 C 634.445312 195.3125 634.246094 198.292969 633.785156 201.222656 C 633.324219 204.15625 632.601562 207.117188 630.886719 209.539062 C 629.472656 211.511719 629.550781 211.417969 627.59375 212.863281 L 627.753906 212.863281 C 631.707031 213.785156 636.316406 215.5625 638.410156 219.035156 C 640.039062 221.769531 640.039062 225.246094 639.054688 228.273438 C 638.0625 231.300781 636.121094 234.542969 634.148438 237.046875 C 638.148438 239.386719 641.128906 243.433594 642.183594 247.945312 C 642.941406 251.222656 642.742188 254.679688 643.679688 257.925781 C 644.964844 262.339844 649.082031 265.140625 652.917969 268.019531 C 650.445312 272.101562 649.410156 276.878906 648.6875 281.589844 C 647.960938 286.300781 647.503906 291.089844 646.050781 295.632812 C 644.601562 300.179688 641.785156 304.625 637.738281 307.164062 C 642.367188 310.257812 644.882812 316.203125 643.910156 321.667969 C 642.9375 327.136719 638.507812 331.847656 633.09375 333.144531 C 632.796875 332.769531 631.214844 333.175781 630.96875 333.589844 C 630.722656 334.003906 630.753906 334.511719 630.785156 335.003906 C 631.214844 339.894531 631.660156 344.800781 632.894531 349.542969 C 633.339844 351.238281 633.917969 352.953125 635.070312 354.269531 C 636.351562 355.734375 638.214844 356.542969 640.011719 357.300781 C 637.441406 360.234375 636.585938 364.644531 637.707031 368.382812 C 638.679688 371.660156 641.066406 374.363281 642.136719 377.605469 C 643.089844 380.484375 643.1875 384.105469 642.84375 387.136719 C 642.199219 388.933594 642.910156 390.992188 644.09375 392.488281 C 645.277344 393.984375 646.894531 395.074219 648.390625 396.273438 C 650.617188 398.054688 652.636719 400.09375 654.386719 402.351562 C 655.453125 403.734375 656.445312 405.25 656.757812 406.964844 C 657.089844 409.214844 656.253906 411.535156 655.050781 413.515625 Z M 655.050781 413.515625 " fill-opacity="1" fill-rule="nonzero"/></g></g><g clip-path="url(#5f573b01af)"><g clip-path="url(#8edadb13ba)"><path fill="#2e2d2d" d="M 66.421875 110.492188 L 662.273438 110.492188 L 662.273438 706.34375 L 66.421875 706.34375 Z M 66.421875 110.492188 " fill-opacity="1" fill-rule="nonzero"/></g></g><g fill="#0e0e0e" fill-opacity="1"><g transform="translate(160.46676, 617.033783)"><g><path d="M 316.960938 -256.636719 C 348.761719 -262.738281 376.304688 -293.558594 385.203125 -337.804688 C 396.90625 -397.78125 363.753906 -445.886719 301.507812 -459.996094 L 315.265625 -520.207031 L 216.089844 -523.09375 L 203.011719 -466.085938 L 112.320312 -468.726562 L 7.019531 0.203125 L 106.488281 3.101562 L 91.03125 71.457031 L 190.207031 74.34375 L 205.664062 5.988281 C 306.613281 8.339844 375.6875 -51.136719 390.902344 -131.214844 C 405.4375 -208.089844 362.574219 -254.429688 316.960938 -256.636719 Z M 213.007812 -356.871094 L 233.777344 -356.269531 C 263.035156 -355.417969 277.492188 -339.183594 272.46875 -317.371094 C 266.089844 -289.445312 240.984375 -281.980469 218.167969 -282.644531 L 196.515625 -283.273438 Z M 270.460938 -147.898438 C 264.765625 -123.175781 242.035156 -106.855469 205.46875 -107.917969 L 157.488281 -109.316406 L 177.355469 -198.332031 L 226.789062 -196.601562 C 258.089844 -195.691406 277.128906 -175.8125 270.460938 -147.898438 Z M 270.460938 -147.898438 "/></g></g></g><g fill="#ffffff" fill-opacity="1"><g transform="translate(200.201038, 588.86641)"><g><path d="M 316.960938 -256.636719 C 348.761719 -262.738281 376.304688 -293.558594 385.203125 -337.804688 C 396.90625 -397.78125 363.753906 -445.886719 301.507812 -459.996094 L 315.265625 -520.207031 L 216.089844 -523.09375 L 203.011719 -466.085938 L 112.320312 -468.726562 L 7.019531 0.203125 L 106.488281 3.101562 L 91.03125 71.457031 L 190.207031 74.34375 L 205.664062 5.988281 C 306.613281 8.339844 375.6875 -51.136719 390.902344 -131.214844 C 405.4375 -208.089844 362.574219 -254.429688 316.960938 -256.636719 Z M 213.007812 -356.871094 L 233.777344 -356.269531 C 263.035156 -355.417969 277.492188 -339.183594 272.46875 -317.371094 C 266.089844 -289.445312 240.984375 -281.980469 218.167969 -282.644531 L 196.515625 -283.273438 Z M 270.460938 -147.898438 C 264.765625 -123.175781 242.035156 -106.855469 205.46875 -107.917969 L 157.488281 -109.316406 L 177.355469 -198.332031 L 226.789062 -196.601562 C 258.089844 -195.691406 277.128906 -175.8125 270.460938 -147.898438 Z M 270.460938 -147.898438 "/></g></g></g><path stroke-linecap="butt" transform="matrix(6.905866, 0.201032, -0.201032, 6.905866, 227.580592, -54.172818)" fill="none" stroke-linejoin="miter" d="M 42.662182 54.351814 C 47.021108 53.383249 50.69364 49.024407 51.743059 42.889446 C 53.115357 34.574717 48.352979 28.07667 39.715491 26.381735 L 41.370564 18.026532 L 27.68768 18.026634 L 26.113575 25.937713 L 13.601566 25.937668 L 0.968733 91.000188 L 14.691777 91.000049 L 12.834852 100.485059 L 26.517171 100.484974 L 28.374096 90.999964 C 42.298427 90.9193 51.581629 82.44329 53.357625 71.34403 C 55.052652 60.688894 48.958476 54.472843 42.662182 54.351814 Z M 27.930243 40.951843 L 30.795796 40.952141 C 34.831642 40.951744 36.890107 43.131199 36.284759 46.158604 C 35.517985 50.033515 32.087449 51.163414 28.939084 51.163429 L 25.952488 51.163261 Z M 36.688441 69.527678 C 36.00207 72.958481 32.934866 75.299591 27.889896 75.299384 L 21.270179 75.299203 L 23.651752 62.948648 L 30.472886 62.989349 C 34.791561 62.989204 37.495956 65.653278 36.688441 69.527678 Z M 36.688441 69.527678 " stroke="#030712" stroke-width="11.056671" stroke-opacity="1" stroke-miterlimit="4"/><g fill="#d9d9d9" fill-opacity="1"><g transform="translate(209.286663, 574.260986)"><g><path d="M 301.984375 -244.511719 C 332.28125 -250.324219 358.523438 -279.6875 367.003906 -321.84375 C 378.152344 -378.988281 346.566406 -424.820312 287.261719 -438.261719 L 300.367188 -495.625 L 205.878906 -498.378906 L 193.417969 -444.0625 L 107.011719 -446.578125 L 6.691406 0.195312 L 101.457031 2.953125 L 86.730469 68.082031 L 181.21875 70.832031 L 195.945312 5.703125 C 292.125 7.945312 357.9375 -48.722656 372.433594 -125.015625 C 386.28125 -198.257812 345.441406 -242.410156 301.984375 -244.511719 Z M 202.941406 -340.011719 L 222.730469 -339.433594 C 250.605469 -338.621094 264.382812 -323.15625 259.59375 -302.375 C 253.519531 -275.769531 229.597656 -268.65625 207.859375 -269.289062 L 187.230469 -269.890625 Z M 257.683594 -140.910156 C 252.253906 -117.355469 230.601562 -101.804688 195.757812 -102.820312 L 150.046875 -104.148438 L 168.976562 -188.960938 L 216.070312 -187.3125 C 245.894531 -186.445312 264.035156 -167.503906 257.683594 -140.910156 Z M 257.683594 -140.910156 "/></g></g></g><g fill="#ffffff" fill-opacity="1"><g transform="translate(217.255718, 575.112239)"><g><path d="M 289.679688 -234.546875 C 318.742188 -240.125 343.914062 -268.292969 352.050781 -308.730469 C 362.742188 -363.542969 332.445312 -407.511719 275.554688 -420.40625 L 288.128906 -475.433594 L 197.488281 -478.070312 L 185.539062 -425.96875 L 102.652344 -428.382812 L 6.417969 0.1875 L 97.324219 2.832031 L 83.195312 65.308594 L 173.835938 67.945312 L 187.964844 5.472656 C 280.222656 7.621094 343.351562 -46.734375 357.257812 -119.921875 C 370.542969 -190.179688 331.367188 -232.53125 289.679688 -234.546875 Z M 194.671875 -326.15625 L 213.65625 -325.605469 C 240.394531 -324.824219 253.609375 -309.992188 249.015625 -290.054688 C 243.1875 -264.535156 220.242188 -257.710938 199.386719 -258.316406 L 179.601562 -258.894531 Z M 247.183594 -135.167969 C 241.976562 -112.574219 221.203125 -97.65625 187.78125 -98.628906 L 143.933594 -99.90625 L 162.089844 -181.261719 L 207.269531 -179.679688 C 235.878906 -178.847656 253.277344 -160.679688 247.183594 -135.167969 Z M 247.183594 -135.167969 "/></g></g></g></svg>