<svg width="1236" height="1096" viewBox="0 0 1236 1096" fill="none" xmlns="http://www.w3.org/2000/svg">
<mask id="mask0_1_216" style="mask-type:luminance" maskUnits="userSpaceOnUse" x="22" y="176" width="897" height="894">
<path d="M22.6669 176H918.667V1069.33H22.6669V176Z" fill="white"/>
</mask>
<g mask="url(#mask0_1_216)">
<mask id="mask1_1_216" style="mask-type:luminance" maskUnits="userSpaceOnUse" x="15" y="167" width="911" height="911">
<path d="M15.0783 317.177V927.938C15.0783 1010.78 82.2346 1077.94 165.078 1077.94H775.839C858.682 1077.94 925.839 1010.78 925.839 927.938V317.177C925.839 234.333 858.682 167.177 775.839 167.177H165.078C82.2346 167.177 15.0783 234.333 15.0783 317.177Z" fill="white"/>
</mask>
<g mask="url(#mask1_1_216)">
<path d="M915.031 630.469C910.172 638.448 901.912 643.156 893.755 647.714C897.203 652.698 897.078 659.391 895.542 665.255C894.005 671.125 891.214 676.609 889.651 682.474C888.089 688.344 888.49 696.099 891.891 701.104C887.209 701.302 883.281 705.057 881.365 709.365C879.479 713.667 879.172 718.448 878.771 723.13C878.37 727.812 877.74 732.646 875.297 736.651L875.401 736.672C882.125 739.339 889.12 742.187 893.886 747.651C895.266 749.26 896.453 751.073 897.183 753.036C898.844 757.568 898.167 762.703 896.302 767.13C894.438 771.589 891.49 775.49 888.599 779.339C892.375 783.094 898.568 787.318 900.276 792.38C901.36 795.604 901.464 799.078 901.943 802.448C903.61 814.38 909.948 825.609 909.547 837.667V837.693C909.521 838.927 908.62 839.958 907.563 840.589C906.505 841.219 905.318 841.573 904.24 842.125C900.485 844.036 898.5 848.297 897.714 852.448C896.933 856.604 897.058 860.885 896.177 865.01C894.396 873.417 887.948 880.24 882.354 886.786C885.406 890.615 888.495 894.49 890.235 899.052C891.969 903.604 892.172 909.016 889.578 913.146C886.406 918.208 878.781 920.625 873.011 922.135C877.266 926.266 881.771 930.818 882.625 936.687C883.198 940.771 881.943 944.917 882.474 949C882.927 952.521 884.714 955.771 887 958.464C889.292 961.161 892.084 963.427 894.834 965.667C889.844 973.146 890.349 983.849 892.693 992.531C895.037 1001.22 899.188 1009.32 901.479 1018.03C904.427 1029.14 904.224 1041.05 900.953 1052.04C886.026 1055.59 868.729 1055.62 854.198 1050.66C847.531 1048.37 841.136 1045.22 834.24 1043.73C827.339 1042.25 819.031 1042.48 813.417 1046.73C810.849 1042.51 806.896 1039.12 802.318 1037.29C797 1035.16 791.11 1035.07 785.448 1034.17C779.792 1033.27 773.49 1030.82 770.297 1026.06C768.938 1032.03 766.141 1037.67 762.188 1042.35C760.781 1044.02 759.068 1045.65 756.906 1045.98C755.271 1046.2 753.656 1045.65 752.12 1045.05C746.334 1042.78 740.615 1039.31 735.526 1035.73C732.511 1035.58 729.787 1037.54 727.698 1039.71C725.61 1041.87 723.792 1044.42 721.255 1046.03C714.735 1050.13 705.87 1046.93 698.698 1049.72C692.807 1052.02 687.823 1057.58 684.604 1063.02C682.537 1061.26 679.766 1060.65 677.078 1060.43C674.38 1060.2 671.667 1060.3 669.026 1059.7C665.073 1058.82 661.599 1056.47 657.745 1055.24C652.287 1053.48 646.292 1054.01 640.854 1052.22C634.688 1050.2 629.86 1045.42 625.271 1040.81C619.557 1045.09 616.917 1046.05 610.266 1048.69C607.599 1049.75 604.703 1050.68 601.906 1050.01C599.594 1049.43 597.682 1047.81 595.995 1046.13C591.031 1041.2 587.026 1034.85 584.261 1028.41C577.005 1032.13 567.995 1029.36 560.214 1031.83C554.781 1033.57 549.922 1038.18 548.031 1043.59C544.104 1039.84 537.834 1039.81 532.646 1041.43C527.464 1043.04 522.776 1045.98 517.594 1047.6C510.563 1049.76 502.761 1049.31 496.042 1046.32L496.068 1044.86C493.521 1054.53 486.599 1062.96 477.615 1067.32C475.073 1068.55 472.255 1069.48 469.485 1069.06C467.146 1068.68 465.052 1067.39 463.141 1066.01C456.11 1060.99 450.125 1054.53 445.641 1047.12C437.662 1048.48 429.526 1049.84 422.099 1046.62C418.297 1044.98 415 1042.24 411.125 1040.8C405.037 1038.56 397.735 1040.02 392.948 1044.41C391.99 1039.74 387.985 1035.87 383.656 1033.93C379.302 1031.99 374.49 1031.47 369.761 1030.96C365.031 1030.46 360.219 1029.91 355.891 1027.92C355.136 1034.84 352.365 1040.15 347.682 1045.31C345.797 1047.4 343.505 1049.31 340.735 1049.74C338.953 1050.02 337.11 1049.64 335.375 1049.17C329.026 1047.45 323.016 1044.58 317.698 1040.73C309.042 1043.7 303.901 1052.76 294.969 1054.76C290.766 1055.68 286.281 1054.85 282.078 1055.79C278.781 1056.52 275.839 1058.25 272.589 1059.21C266.87 1060.9 260.38 1060.11 255.266 1063.17C252.568 1057.05 246.005 1052.06 239.584 1050.22C235.807 1049.14 231.807 1049.06 227.953 1048.23C220.604 1046.68 212.573 1041.01 208.12 1034.97C204.823 1038.02 204.214 1038.6 200.313 1040.86C196.412 1043.13 191.828 1044.46 187.401 1043.81C183.354 1043.21 179.646 1040.89 177.052 1037.74C174.438 1034.59 172.323 1029.36 171.797 1025.3C168.396 1030.74 162.151 1034.09 155.787 1034.74C151.432 1035.2 146.995 1034.49 142.698 1035.29C136.677 1036.43 130.313 1041.56 127.792 1047.12C122.479 1043.19 115.328 1042.69 108.761 1043.6C98.2085 1045.06 88.396 1049.67 78.12 1052.42C66.2658 1055.58 49.6981 1055.66 40.3335 1052.06C37.0314 1041.06 36.8596 1029.15 39.8023 1018.05C42.1148 1009.36 46.271 1001.23 48.5887 992.552C50.9377 983.865 51.4637 973.161 46.4533 965.687C49.2241 963.448 51.9898 961.203 54.2814 958.484C56.5731 955.766 58.3648 952.547 58.8127 949.016C59.3387 944.932 58.0575 940.786 58.6616 936.703C59.5158 930.839 64.021 926.281 68.2762 922.151C62.4846 920.667 54.8804 918.224 51.7085 913.167C49.1148 909.036 49.3127 903.625 51.0523 899.068C52.7866 894.516 55.8856 890.609 58.9273 886.807C53.3387 880.26 46.896 873.464 45.1044 865.026C44.2241 860.896 44.3752 856.62 43.5679 852.469C42.7866 848.312 40.7971 844.062 37.0471 842.146C35.9637 841.589 34.7554 841.24 33.7241 840.609C32.6669 839.974 31.7606 838.943 31.7398 837.708V837.687C31.3127 825.656 37.6512 814.401 39.3387 802.469C39.8231 799.094 39.9169 795.62 41.0054 792.396C42.7189 787.339 48.8804 783.135 52.6825 779.359C49.7606 775.505 46.8439 771.604 44.9846 767.151C43.1252 762.698 42.4169 757.562 44.1044 753.052C44.8335 751.068 46.0158 749.25 47.4012 747.667C52.1304 742.203 59.1564 739.333 65.8804 736.693L65.9846 736.667C63.5419 732.641 62.9377 727.833 62.5106 723.151C62.1096 718.464 61.8075 713.656 59.9169 709.38C58.0314 705.099 54.0991 701.328 49.3908 701.12C52.7919 696.089 53.1929 688.354 51.6356 682.495C50.0731 676.635 47.2814 671.141 45.745 665.276C44.2085 659.411 44.0783 652.719 47.5262 647.729C39.37 643.177 31.1096 638.469 26.2554 630.49C24.4116 627.495 23.1564 623.917 23.7866 620.469C24.2658 617.849 25.771 615.536 27.4116 613.417C30.0783 609.964 33.1512 606.844 36.5783 604.125C38.87 602.312 41.3335 600.625 43.1512 598.333C44.9585 596.047 46.0471 592.922 45.0627 590.156C44.5314 585.547 44.6877 580.005 46.1408 575.578C47.7762 570.615 51.4273 566.495 52.9169 561.484C54.6252 555.766 53.3179 549.021 49.3908 544.536C52.1356 543.38 54.9794 542.146 56.9481 539.906C58.7085 537.885 59.5887 535.271 60.271 532.677C62.1825 525.427 62.8387 517.901 63.495 510.448C63.5679 509.719 63.62 508.911 63.2137 508.286C62.8387 507.656 60.4221 507.031 59.9637 507.604C51.7085 505.62 44.9325 498.443 43.4273 490.062C41.9169 481.677 45.7971 472.609 52.8648 467.88C46.6981 464.005 42.3648 457.203 40.1564 450.255C37.9429 443.307 37.2346 435.984 36.1304 428.781C35.021 421.578 33.4064 414.276 29.6616 408.031C35.5262 403.63 41.8439 399.375 43.7814 392.599C45.2137 387.672 44.8856 382.354 46.0679 377.344C47.6825 370.422 52.2398 364.255 58.3544 360.682C55.3387 356.854 52.3648 351.891 50.8544 347.266C49.3439 342.63 49.3179 337.323 51.8387 333.146C55.0106 327.828 62.0835 325.115 68.1304 323.703H68.3804C65.3856 321.49 65.5054 321.641 63.3439 318.62C60.7241 314.948 59.5887 310.391 58.9116 305.911C58.2294 301.427 57.9273 296.875 56.6669 292.521C56.771 289.422 55.1096 285.745 52.5158 284.057C50.8023 282.953 48.5627 282.25 47.7294 280.385C47.1981 279.177 47.4481 277.745 48.1304 276.63C48.8075 275.526 50.0419 274.495 51.2033 273.859C50.8283 261.448 45.7658 249.719 42.5679 237.714C38.6148 222.984 37.4012 207.552 39.021 192.401C48.4064 188.797 66.3387 189.677 78.1929 192.854C88.4637 195.599 98.2814 200.203 108.834 201.667C115.38 202.573 122.526 202.068 127.865 198.146C130.386 203.734 136.75 208.87 142.771 209.974C147.078 210.786 151.505 210.078 155.86 210.531C162.255 211.187 168.474 214.531 171.87 219.969C172.422 215.917 174.531 210.703 177.125 207.531C179.745 204.38 183.443 202.094 187.474 201.464C191.932 200.781 196.49 202.141 200.386 204.406C204.292 206.646 204.896 207.224 208.193 210.297C212.672 204.255 220.677 198.589 228.026 197.026C231.88 196.219 235.88 196.125 239.656 195.042C246.104 193.203 252.651 188.245 255.339 182.099C260.479 185.151 266.943 184.339 272.662 186.052C275.886 187.016 278.854 188.75 282.151 189.479C286.38 190.406 290.839 189.583 295.042 190.51C303.979 192.495 309.115 201.589 317.771 204.536C323.089 200.682 329.099 197.786 335.448 196.099C337.209 195.62 339.026 195.245 340.807 195.521C343.578 195.948 345.891 197.865 347.755 199.953C352.417 205.12 355.209 210.427 355.964 217.349C360.292 215.365 365.104 214.802 369.834 214.302C374.563 213.797 379.375 213.266 383.729 211.328C388.084 209.396 392.063 205.51 393.021 200.859C397.807 205.266 405.11 206.703 411.198 204.464C415.099 203.026 418.37 200.281 422.172 198.646C429.599 195.448 437.735 196.802 445.714 198.141C450.198 190.734 456.182 184.292 463.214 179.255C465.151 177.875 467.214 176.594 469.557 176.208C472.349 175.781 475.172 176.714 477.688 177.948C486.677 182.302 493.604 190.734 496.141 200.406L496.115 198.948C502.839 195.953 510.646 195.5 517.667 197.667C522.849 199.276 527.531 202.219 532.719 203.839C537.906 205.448 544.151 205.396 548.104 201.672C549.969 207.062 554.828 211.693 560.287 213.432C568.068 215.896 577.078 213.13 584.334 216.859C587.099 210.411 591.104 204.094 596.068 199.135C597.755 197.448 599.667 195.839 601.979 195.26C604.776 194.578 607.672 195.51 610.339 196.573C616.959 199.214 619.63 200.172 625.344 204.448C629.922 199.839 634.735 195.083 640.927 193.042C646.365 191.26 652.386 191.786 657.818 190.026C661.672 188.792 665.146 186.448 669.099 185.568C671.74 184.99 674.459 185.089 677.151 184.839C679.849 184.615 682.615 183.984 684.677 182.245C687.901 187.682 692.854 193.276 698.771 195.542C705.974 198.307 714.834 195.115 721.328 199.24C723.896 200.849 725.682 203.391 727.771 205.557C729.86 207.719 732.584 209.682 735.599 209.531C740.682 205.984 746.422 202.505 752.193 200.219C753.729 199.615 755.339 199.057 756.979 199.286C759.141 199.589 760.854 201.224 762.261 202.911C766.214 207.594 769.011 213.24 770.37 219.203C773.563 214.448 779.865 212 785.521 211.094C791.188 210.187 797.052 210.109 802.391 207.974C806.969 206.13 810.922 202.76 813.49 198.536C819.104 202.818 827.412 203.042 834.313 201.526C841.209 200.042 847.604 196.87 854.271 194.604C868.802 189.641 887.453 188.839 902.412 192.385C904.021 207.542 902.813 222.974 898.865 237.703C895.641 249.708 890.578 261.417 890.229 273.849C891.386 274.453 892.594 275.484 893.302 276.62C894.005 277.755 894.229 279.187 893.703 280.37C892.87 282.26 890.63 282.943 888.917 284.047C886.323 285.734 884.656 289.411 884.761 292.505C883.526 296.859 883.224 301.417 882.521 305.901C881.818 310.38 880.709 314.911 878.089 318.609C875.927 321.63 876.047 321.484 873.052 323.693H873.302C879.344 325.104 886.391 327.823 889.589 333.13C892.078 337.307 892.078 342.625 890.573 347.25C889.063 351.885 886.094 356.844 883.073 360.667C889.188 364.245 893.75 370.432 895.36 377.333C896.521 382.344 896.214 387.625 897.651 392.589C899.61 399.339 905.906 403.62 911.771 408.021C907.99 414.266 906.406 421.568 905.302 428.766C904.198 435.969 903.49 443.297 901.276 450.245C899.058 457.193 894.75 463.99 888.563 467.87C895.641 472.599 899.49 481.693 898 490.047C896.516 498.406 889.74 505.609 881.464 507.594C881.011 507.016 878.589 507.641 878.214 508.276C877.839 508.906 877.886 509.682 877.933 510.437C878.589 517.911 879.271 525.411 881.162 532.667C881.839 535.26 882.719 537.875 884.485 539.891C886.443 542.135 889.292 543.365 892.037 544.526C888.11 549.01 886.802 555.755 888.516 561.469C890 566.479 893.651 570.609 895.287 575.568C896.745 579.969 896.896 585.51 896.37 590.141C895.386 592.885 896.469 596.036 898.281 598.323C900.089 600.615 902.563 602.276 904.854 604.109C908.255 606.833 911.344 609.953 914.016 613.401C915.651 615.516 917.162 617.839 917.641 620.453C918.151 623.896 916.87 627.443 915.031 630.469Z" fill="black"/>
</g>
</g>
<mask id="mask2_1_216" style="mask-type:luminance" maskUnits="userSpaceOnUse" x="15" y="167" width="912" height="912">
<path d="M15.0784 167.177H926.078V1078.18H15.0784V167.177Z" fill="white"/>
</mask>
<g mask="url(#mask2_1_216)">
<mask id="mask3_1_216" style="mask-type:luminance" maskUnits="userSpaceOnUse" x="15" y="167" width="911" height="911">
<path d="M15.0784 317.177V927.938C15.0784 1010.78 82.2346 1077.94 165.078 1077.94H775.839C858.683 1077.94 925.839 1010.78 925.839 927.938V317.177C925.839 234.333 858.683 167.177 775.839 167.177H165.078C82.2346 167.177 15.0784 234.333 15.0784 317.177Z" fill="white"/>
</mask>
<g mask="url(#mask3_1_216)">
<path d="M15.0784 167.177H926.078V1078.18H15.0784V167.177Z" fill="#37002F"/>
</g>
</g>
<mask id="mask4_1_216" style="mask-type:luminance" maskUnits="userSpaceOnUse" x="48" y="122" width="930" height="929">
<path d="M48.0002 122.667H977.334V1050.67H48.0002V122.667Z" fill="white"/>
</mask>
<g mask="url(#mask4_1_216)">
<mask id="mask5_1_216" style="mask-type:luminance" maskUnits="userSpaceOnUse" x="40" y="114" width="945" height="945">
<path d="M40.1252 284.063V888.854C40.1252 982.745 116.24 1058.85 210.125 1058.85H814.922C908.813 1058.85 984.922 982.745 984.922 888.854V284.063C984.922 190.172 908.813 114.062 814.922 114.062H210.125C116.24 114.062 40.1252 190.172 40.1252 284.063Z" fill="white"/>
</mask>
<g mask="url(#mask5_1_216)">
<mask id="mask6_1_216" style="mask-type:luminance" maskUnits="userSpaceOnUse" x="41" y="115" width="943" height="943">
<path d="M211.328 115.26H813.724C907.61 115.26 983.724 191.37 983.724 285.26V887.656C983.724 981.547 907.61 1057.66 813.724 1057.66H211.328C117.438 1057.66 41.3284 981.547 41.3284 887.656V285.26C41.3284 191.37 117.438 115.26 211.328 115.26Z" fill="white"/>
</mask>
<g mask="url(#mask6_1_216)">
<path d="M973.667 594.641C968.625 602.922 960.058 607.802 951.599 612.526C955.177 617.703 955.042 624.646 953.448 630.729C951.854 636.813 948.959 642.505 947.339 648.589C945.719 654.677 946.136 662.719 949.662 667.912C944.808 668.12 940.729 672.016 938.745 676.479C936.787 680.948 936.469 685.906 936.058 690.76C935.641 695.62 934.985 700.635 932.453 704.787L932.558 704.813C939.532 707.578 946.792 710.531 951.729 716.193C953.167 717.865 954.396 719.75 955.151 721.781C956.875 726.484 956.172 731.813 954.24 736.406C952.302 741.031 949.245 745.073 946.25 749.068C950.167 752.964 956.589 757.349 958.365 762.594C959.485 765.938 959.594 769.542 960.089 773.042C961.818 785.422 968.391 797.068 967.979 809.573V809.599C967.953 810.88 967.016 811.948 965.917 812.604C964.823 813.26 963.594 813.625 962.469 814.198C958.578 816.182 956.516 820.599 955.703 824.906C954.891 829.219 955.026 833.656 954.11 837.938C952.261 846.656 945.573 853.734 939.771 860.526C942.933 864.495 946.141 868.516 947.943 873.25C949.745 877.974 949.953 883.589 947.261 887.87C943.974 893.12 936.063 895.625 930.078 897.193C934.495 901.479 939.167 906.203 940.047 912.286C940.646 916.521 939.344 920.823 939.891 925.057C940.365 928.714 942.219 932.083 944.594 934.88C946.969 937.677 949.865 940.026 952.714 942.354C947.542 950.109 948.063 961.208 950.495 970.219C952.927 979.224 957.229 987.635 959.61 996.672C962.667 1008.19 962.459 1020.54 959.063 1031.95C943.578 1035.63 925.636 1035.66 910.568 1030.52C903.646 1028.14 897.016 1024.88 889.86 1023.33C882.698 1021.79 874.084 1022.03 868.261 1026.44C865.594 1022.05 861.495 1018.55 856.745 1016.65C851.235 1014.43 845.12 1014.35 839.25 1013.41C833.375 1012.47 826.844 1009.94 823.531 1005C822.12 1011.19 819.224 1017.04 815.12 1021.9C813.656 1023.62 811.88 1025.32 809.641 1025.66C807.943 1025.89 806.271 1025.32 804.677 1024.69C798.672 1022.34 792.745 1018.74 787.464 1015.03C784.334 1014.87 781.511 1016.91 779.344 1019.16C777.177 1021.4 775.292 1024.04 772.656 1025.71C765.891 1029.97 756.698 1026.65 749.261 1029.54C743.151 1031.92 737.979 1037.69 734.636 1043.33C732.495 1041.51 729.625 1040.88 726.834 1040.65C724.037 1040.41 721.219 1040.51 718.479 1039.89C714.375 1038.97 710.776 1036.54 706.782 1035.27C701.115 1033.44 694.896 1033.98 689.261 1032.14C682.86 1030.04 677.849 1025.08 673.094 1020.3C667.167 1024.74 664.422 1025.73 657.526 1028.47C654.761 1029.57 651.755 1030.53 648.86 1029.83C646.459 1029.23 644.474 1027.56 642.719 1025.81C637.573 1020.7 633.422 1014.11 630.547 1007.43C623.026 1011.29 613.677 1008.43 605.61 1010.98C599.969 1012.79 594.927 1017.57 592.969 1023.18C588.896 1019.29 582.391 1019.26 577.011 1020.94C571.63 1022.61 566.776 1025.66 561.396 1027.34C554.104 1029.58 546.011 1029.11 539.042 1026.01L539.068 1024.5C536.427 1034.53 529.245 1043.27 519.927 1047.8C517.287 1049.07 514.365 1050.04 511.49 1049.6C509.068 1049.21 506.891 1047.87 504.907 1046.43C497.62 1041.24 491.407 1034.53 486.761 1026.85C478.479 1028.26 470.042 1029.67 462.339 1026.32C458.396 1024.63 454.974 1021.78 450.953 1020.29C444.636 1017.96 437.063 1019.48 432.099 1024.03C431.104 1019.19 426.953 1015.17 422.459 1013.17C417.943 1011.16 412.953 1010.6 408.047 1010.08C403.141 1009.56 398.151 1008.99 393.657 1006.92C392.875 1014.1 390.005 1019.61 385.146 1024.96C383.188 1027.13 380.813 1029.11 377.938 1029.56C376.084 1029.85 374.177 1029.46 372.375 1028.96C365.792 1027.19 359.552 1024.21 354.042 1020.21C345.058 1023.3 339.729 1032.69 330.464 1034.76C326.104 1035.72 321.453 1034.87 317.094 1035.83C313.672 1036.59 310.615 1038.39 307.245 1039.39C301.318 1041.14 294.584 1040.32 289.276 1043.48C286.479 1037.14 279.672 1031.97 273.011 1030.06C269.094 1028.94 264.943 1028.86 260.948 1028C253.323 1026.38 244.99 1020.51 240.37 1014.24C236.948 1017.41 236.323 1018.01 232.276 1020.35C228.224 1022.7 223.474 1024.09 218.88 1023.41C214.683 1022.79 210.839 1020.38 208.146 1017.11C205.433 1013.85 203.24 1008.42 202.693 1004.21C199.162 1009.85 192.688 1013.33 186.084 1014C181.568 1014.47 176.969 1013.74 172.505 1014.57C166.266 1015.76 159.662 1021.08 157.047 1026.85C151.537 1022.77 144.12 1022.25 137.302 1023.19C126.36 1024.71 116.177 1029.49 105.521 1032.33C93.2242 1035.63 76.0367 1035.7 66.3232 1031.97C62.9013 1020.56 62.719 1008.21 65.7711 996.688C68.1721 987.682 72.4846 979.245 74.8909 970.234C77.3232 961.229 77.87 950.125 72.6721 942.37C75.5471 940.047 78.4169 937.724 80.7919 934.901C83.1669 932.078 85.0263 928.74 85.4898 925.078C86.0419 920.844 84.7086 916.542 85.3336 912.307C86.2242 906.224 90.8961 901.495 95.3075 897.214C89.3023 895.672 81.4169 893.135 78.12 887.891C75.4325 883.604 75.6409 877.99 77.443 873.266C79.245 868.542 82.4534 864.49 85.6096 860.547C79.818 853.755 73.1305 846.708 71.2711 837.953C70.3596 833.672 70.5159 829.234 69.6773 824.927C68.8648 820.62 66.8075 816.208 62.9117 814.219C61.7919 813.646 60.5367 813.276 59.469 812.625C58.37 811.969 57.4325 810.896 57.4065 809.62V809.594C56.9638 797.115 63.5419 785.438 65.2971 773.057C65.7919 769.563 65.8909 765.958 67.0211 762.615C68.7971 757.365 75.193 753.005 79.1357 749.089C76.1044 745.094 73.0732 741.042 71.1461 736.422C69.219 731.807 68.4846 726.479 70.2346 721.802C70.9898 719.74 72.219 717.859 73.6565 716.214C78.5628 710.542 85.8492 707.568 92.8232 704.828L92.9325 704.802C90.4013 700.63 89.7711 695.641 89.3284 690.781C88.9117 685.922 88.5992 680.932 86.6409 676.5C84.6773 672.057 80.6044 668.146 75.719 667.932C79.2503 662.708 79.6669 654.688 78.0471 648.609C76.4273 642.531 73.5263 636.833 71.9325 630.75C70.3388 624.662 70.2086 617.719 73.7867 612.547C65.3284 607.823 56.7555 602.938 51.719 594.662C49.8075 591.557 48.5055 587.844 49.1617 584.266C49.6565 581.552 51.219 579.151 52.9221 576.953C55.6878 573.375 58.8753 570.135 62.4273 567.313C64.8023 565.438 67.3596 563.682 69.245 561.307C71.12 558.932 72.2503 555.698 71.2294 552.823C70.6825 548.042 70.8388 542.297 72.3492 537.703C74.0471 532.557 77.8336 528.276 79.3753 523.083C81.1513 517.151 79.7919 510.151 75.719 505.505C78.568 504.302 81.5159 503.021 83.5575 500.698C85.3857 498.604 86.2971 495.891 87.0055 493.198C88.9898 485.677 89.6669 477.87 90.3492 470.141C90.4273 469.385 90.4794 468.547 90.0575 467.901C89.6669 467.245 87.1617 466.594 86.6878 467.193C78.12 465.135 71.0992 457.688 69.5367 448.995C67.9638 440.297 71.9898 430.891 79.3232 425.984C72.9221 421.964 68.4325 414.911 66.1409 407.703C63.844 400.495 63.1096 392.896 61.9638 385.427C60.8128 377.953 59.1409 370.38 55.2503 363.906C61.3388 359.339 67.8909 354.922 69.9013 347.896C71.3857 342.781 71.0471 337.271 72.2763 332.073C73.943 324.891 78.6773 318.495 85.0211 314.786C81.8909 310.818 78.8023 305.667 77.2398 300.87C75.6721 296.063 75.6461 290.552 78.2607 286.219C81.5471 280.708 88.8857 277.891 95.1565 276.432H95.4169C92.3075 274.13 92.4325 274.286 90.193 271.156C87.4794 267.344 86.2971 262.62 85.594 257.969C84.8857 253.323 84.5732 248.599 83.2659 244.078C83.3753 240.865 81.6513 237.057 78.9586 235.302C77.1825 234.156 74.8596 233.427 73.995 231.49C73.4482 230.24 73.7034 228.75 74.4117 227.599C75.1148 226.453 76.3961 225.38 77.5992 224.724C77.2086 211.849 71.9586 199.682 68.6409 187.229C64.5367 171.953 63.2867 155.943 64.9586 140.224C74.6982 136.49 93.2971 137.401 105.594 140.698C116.25 143.542 126.438 148.318 137.38 149.839C144.172 150.776 151.584 150.255 157.125 146.182C159.74 151.979 166.339 157.307 172.584 158.458C177.052 159.292 181.641 158.563 186.162 159.031C192.792 159.708 199.245 163.182 202.766 168.818C203.339 164.62 205.532 159.214 208.224 155.917C210.938 152.656 214.776 150.276 218.959 149.625C223.584 148.917 228.308 150.328 232.349 152.677C236.401 155.005 237.026 155.604 240.448 158.792C245.094 152.521 253.401 146.646 261.021 145.026C265.016 144.188 269.167 144.083 273.089 142.964C279.771 141.057 286.563 135.917 289.354 129.536C294.683 132.703 301.391 131.865 307.323 133.641C310.667 134.635 313.745 136.438 317.167 137.193C321.552 138.156 326.177 137.302 330.537 138.266C339.813 140.323 345.136 149.755 354.12 152.813C359.63 148.818 365.87 145.813 372.453 144.063C374.276 143.563 376.162 143.172 378.016 143.464C380.886 143.901 383.287 145.896 385.219 148.063C390.052 153.417 392.953 158.922 393.735 166.104C398.224 164.042 403.214 163.464 408.12 162.943C413.032 162.417 418.021 161.87 422.537 159.859C427.052 157.849 431.177 153.828 432.177 149C437.141 153.568 444.714 155.063 451.032 152.734C455.073 151.25 458.469 148.401 462.417 146.698C470.12 143.385 478.558 144.792 486.834 146.177C491.485 138.5 497.693 131.813 504.985 126.589C506.995 125.156 509.136 123.823 511.568 123.427C514.464 122.99 517.391 123.953 520.005 125.229C529.328 129.745 536.511 138.5 539.141 148.526L539.12 147.016C546.094 143.911 554.188 143.438 561.469 145.688C566.849 147.354 571.709 150.411 577.089 152.089C582.469 153.755 588.943 153.708 593.047 149.844C594.979 155.432 600.021 160.24 605.683 162.042C613.755 164.599 623.104 161.724 630.625 165.594C633.5 158.911 637.651 152.349 642.797 147.208C644.547 145.458 646.532 143.792 648.933 143.193C651.828 142.484 654.834 143.448 657.599 144.552C664.469 147.292 667.24 148.286 673.167 152.724C677.917 147.943 682.907 143.01 689.334 140.891C694.974 139.042 701.219 139.589 706.854 137.76C710.849 136.479 714.453 134.052 718.552 133.135C721.297 132.536 724.115 132.641 726.907 132.38C729.703 132.146 732.578 131.49 734.714 129.693C738.058 135.328 743.198 141.13 749.334 143.479C756.808 146.354 766 143.042 772.735 147.318C775.401 148.99 777.25 151.625 779.417 153.87C781.584 156.115 784.406 158.151 787.537 157.995C792.813 154.318 798.766 150.708 804.75 148.333C806.344 147.708 808.016 147.13 809.714 147.37C811.959 147.682 813.735 149.38 815.198 151.13C819.297 155.984 822.193 161.839 823.604 168.026C826.922 163.094 833.453 160.552 839.323 159.615C845.203 158.677 851.281 158.594 856.818 156.375C861.568 154.469 865.672 150.974 868.339 146.589C874.156 151.026 882.776 151.26 889.933 149.693C897.089 148.151 903.724 144.859 910.641 142.51C925.709 137.365 945.058 136.531 960.573 140.214C962.245 155.932 960.99 171.938 956.896 187.214C953.552 199.672 948.302 211.818 947.938 224.714C949.141 225.339 950.396 226.406 951.125 227.583C951.854 228.766 952.089 230.25 951.542 231.479C950.677 233.438 948.354 234.146 946.578 235.292C943.886 237.042 942.162 240.854 942.266 244.068C940.99 248.583 940.672 253.307 939.943 257.958C939.214 262.609 938.063 267.307 935.344 271.146C933.099 274.276 933.224 274.125 930.12 276.417H930.38C936.646 277.88 943.953 280.703 947.276 286.208C949.86 290.542 949.86 296.052 948.297 300.854C946.729 305.661 943.646 310.802 940.516 314.771C946.86 318.484 951.589 324.901 953.261 332.057C954.464 337.255 954.151 342.74 955.636 347.885C957.672 354.885 964.203 359.323 970.282 363.891C966.365 370.37 964.719 377.943 963.573 385.411C962.427 392.885 961.698 400.484 959.396 407.693C957.099 414.896 952.63 421.948 946.209 425.974C953.552 430.88 957.547 440.313 956 448.979C954.459 457.651 947.433 465.12 938.844 467.182C938.375 466.583 935.865 467.229 935.474 467.885C935.084 468.542 935.136 469.349 935.188 470.13C935.865 477.885 936.573 485.667 938.532 493.188C939.235 495.88 940.151 498.594 941.979 500.682C944.011 503.01 946.969 504.287 949.813 505.49C945.74 510.141 944.386 517.141 946.162 523.068C947.703 528.266 951.49 532.552 953.183 537.693C954.698 542.26 954.854 548.005 954.308 552.813C953.287 555.656 954.412 558.922 956.292 561.297C958.167 563.672 960.735 565.396 963.11 567.302C966.636 570.125 969.844 573.359 972.615 576.938C974.308 579.13 975.875 581.537 976.375 584.255C976.907 587.828 975.573 591.505 973.667 594.641Z" fill="black"/>
</g>
</g>
</g>
<mask id="mask7_1_216" style="mask-type:luminance" maskUnits="userSpaceOnUse" x="41" y="115" width="944" height="944">
<path d="M41.1252 115.062H984V1058.06H41.1252V115.062Z" fill="white"/>
</mask>
<g mask="url(#mask7_1_216)">
<mask id="mask8_1_216" style="mask-type:luminance" maskUnits="userSpaceOnUse" x="40" y="114" width="945" height="945">
<path d="M40.1252 284.063V888.854C40.1252 982.745 116.24 1058.85 210.125 1058.85H814.922C908.813 1058.85 984.922 982.745 984.922 888.854V284.063C984.922 190.172 908.813 114.062 814.922 114.062H210.125C116.24 114.062 40.1252 190.172 40.1252 284.063Z" fill="white"/>
</mask>
<g mask="url(#mask8_1_216)">
<mask id="mask9_1_216" style="mask-type:luminance" maskUnits="userSpaceOnUse" x="41" y="115" width="943" height="943">
<path d="M211.328 115.26H813.724C907.61 115.26 983.724 191.37 983.724 285.26V887.656C983.724 981.547 907.61 1057.66 813.724 1057.66H211.328C117.438 1057.66 41.3284 981.547 41.3284 887.656V285.26C41.3284 191.37 117.438 115.26 211.328 115.26Z" fill="white"/>
</mask>
<g mask="url(#mask9_1_216)">
<path d="M40.1252 114.062H985.125V1059.06H40.1252V114.062Z" fill="#E6BC40"/>
</g>
</g>
</g>
<mask id="mask10_1_216" style="mask-type:luminance" maskUnits="userSpaceOnUse" x="40" y="114" width="946" height="946">
<path d="M40.1252 114.062H985.125V1059.06H40.1252V114.062Z" fill="white"/>
</mask>
<g mask="url(#mask10_1_216)">
<mask id="mask11_1_216" style="mask-type:luminance" maskUnits="userSpaceOnUse" x="40" y="114" width="945" height="945">
<path d="M40.1252 284.063V888.854C40.1252 982.745 116.24 1058.85 210.125 1058.85H814.922C908.813 1058.85 984.922 982.745 984.922 888.854V284.063C984.922 190.172 908.813 114.062 814.922 114.062H210.125C116.24 114.062 40.1252 190.172 40.1252 284.063Z" fill="white"/>
</mask>
<g mask="url(#mask11_1_216)">
<mask id="mask12_1_216" style="mask-type:luminance" maskUnits="userSpaceOnUse" x="40" y="114" width="946" height="946">
<path d="M40.1252 284.099V889.021C40.1252 982.932 116.255 1059.06 210.162 1059.06H815.089C909 1059.06 985.125 982.932 985.125 889.021V284.099C985.125 190.188 909 114.062 815.089 114.062H210.162C116.255 114.062 40.1252 190.188 40.1252 284.099Z" fill="white"/>
</mask>
<g mask="url(#mask12_1_216)">
<path d="M40.1252 284.099V889.021C40.1252 982.933 116.255 1059.06 210.162 1059.06H815.089C909.001 1059.06 985.126 982.933 985.126 889.021V284.099C985.126 190.188 909.001 114.062 815.089 114.062H210.162C116.255 114.062 40.1252 190.188 40.1252 284.099Z" stroke="black" stroke-width="68.0158"/>
</g>
</g>
</g>
<mask id="mask13_1_216" style="mask-type:luminance" maskUnits="userSpaceOnUse" x="80" y="232" width="782" height="780">
<path d="M80.0002 232H861.334V1012H80.0002V232Z" fill="white"/>
</mask>
<g mask="url(#mask13_1_216)">
<mask id="mask14_1_216" style="mask-type:luminance" maskUnits="userSpaceOnUse" x="73" y="225" width="795" height="795">
<path d="M73.4846 355.26V889.74C73.4846 961.536 131.688 1019.74 203.485 1019.74H737.964C809.761 1019.74 867.964 961.536 867.964 889.74V355.26C867.964 283.464 809.761 225.26 737.964 225.26H203.485C131.688 225.26 73.4846 283.464 73.4846 355.26Z" fill="white"/>
</mask>
<g mask="url(#mask14_1_216)">
<path d="M857.86 629.052C853.625 636.01 846.427 640.109 839.318 644.083C842.323 648.427 842.214 654.26 840.87 659.375C839.532 664.49 837.099 669.266 835.74 674.38C834.375 679.495 834.724 686.255 837.693 690.615C833.61 690.792 830.183 694.062 828.516 697.812C826.87 701.568 826.604 705.734 826.255 709.812C825.907 713.896 825.36 718.109 823.229 721.599L823.318 721.62C829.177 723.943 835.276 726.427 839.427 731.182C840.636 732.583 841.667 734.167 842.302 735.88C843.75 739.828 843.157 744.307 841.532 748.167C839.907 752.052 837.344 755.448 834.823 758.802C838.115 762.073 843.511 765.76 845 770.167C845.943 772.979 846.032 776.005 846.453 778.943C847.901 789.344 853.427 799.135 853.078 809.641V809.661C853.058 810.734 852.271 811.635 851.349 812.187C850.427 812.74 849.396 813.047 848.453 813.526C845.183 815.193 843.448 818.906 842.766 822.526C842.084 826.146 842.193 829.875 841.427 833.474C839.87 840.797 834.255 846.745 829.38 852.453C832.037 855.786 834.729 859.167 836.245 863.141C837.761 867.109 837.933 871.828 835.672 875.427C832.912 879.833 826.261 881.943 821.235 883.26C824.943 886.859 828.87 890.828 829.615 895.943C830.115 899.5 829.021 903.115 829.479 906.672C829.88 909.745 831.433 912.573 833.427 914.927C835.427 917.276 837.86 919.25 840.25 921.203C835.907 927.719 836.344 937.047 838.391 944.615C840.433 952.188 844.047 959.25 846.047 966.844C848.615 976.521 848.443 986.901 845.589 996.484C832.578 999.578 817.5 999.604 804.839 995.276C799.026 993.281 793.453 990.542 787.443 989.245C781.427 987.948 774.188 988.146 769.297 991.854C767.058 988.167 763.61 985.224 759.62 983.625C754.99 981.766 749.854 981.698 744.922 980.906C739.985 980.12 734.495 977.99 731.714 973.839C730.526 979.036 728.094 983.953 724.646 988.036C723.417 989.49 721.927 990.911 720.042 991.198C718.615 991.391 717.209 990.911 715.87 990.385C710.823 988.411 705.844 985.385 701.407 982.266C698.776 982.135 696.407 983.844 694.584 985.734C692.766 987.62 691.183 989.839 688.969 991.24C683.287 994.818 675.563 992.026 669.308 994.464C664.177 996.458 659.828 1001.31 657.026 1006.05C655.224 1004.52 652.813 1003.98 650.464 1003.79C648.115 1003.59 645.75 1003.68 643.448 1003.16C640 1002.39 636.974 1000.34 633.615 999.271C628.86 997.734 623.636 998.193 618.896 996.641C613.516 994.88 609.308 990.714 605.313 986.698C600.334 990.427 598.032 991.26 592.235 993.563C589.912 994.484 587.386 995.292 584.948 994.708C582.933 994.203 581.266 992.797 579.792 991.328C575.469 987.031 571.979 981.5 569.568 975.885C563.245 979.13 555.391 976.719 548.61 978.87C543.875 980.38 539.641 984.401 537.995 989.115C534.568 985.844 529.104 985.823 524.584 987.234C520.063 988.635 515.985 991.203 511.464 992.609C505.339 994.495 498.537 994.104 492.683 991.495L492.703 990.224C490.485 998.651 484.453 1005.99 476.62 1009.8C474.407 1010.87 471.948 1011.68 469.537 1011.31C467.495 1010.98 465.672 1009.86 464 1008.66C457.88 1004.29 452.657 998.651 448.75 992.198C441.797 993.385 434.709 994.568 428.235 991.76C424.922 990.333 422.047 987.943 418.672 986.688C413.36 984.734 407 986.005 402.828 989.828C401.99 985.766 398.505 982.391 394.729 980.698C390.933 979.01 386.74 978.552 382.62 978.109C378.495 977.672 374.302 977.193 370.526 975.453C369.87 981.49 367.459 986.12 363.375 990.615C361.729 992.438 359.735 994.104 357.323 994.479C355.766 994.724 354.162 994.391 352.646 993.974C347.115 992.484 341.875 989.984 337.245 986.625C329.693 989.214 325.219 997.109 317.433 998.844C313.766 999.656 309.86 998.938 306.198 999.745C303.323 1000.38 300.755 1001.9 297.922 1002.73C292.943 1004.2 287.287 1003.52 282.828 1006.18C280.479 1000.85 274.755 996.5 269.162 994.896C265.87 993.953 262.38 993.885 259.021 993.167C252.62 991.807 245.615 986.865 241.735 981.604C238.86 984.26 238.334 984.766 234.933 986.74C231.532 988.714 227.537 989.88 223.683 989.307C220.151 988.781 216.922 986.76 214.662 984.021C212.38 981.276 210.537 976.714 210.078 973.177C207.11 977.917 201.672 980.839 196.125 981.406C192.328 981.802 188.464 981.188 184.714 981.885C179.469 982.875 173.922 987.349 171.724 992.198C167.094 988.771 160.865 988.333 155.136 989.125C145.943 990.396 137.386 994.417 128.433 996.807C118.099 999.573 103.657 999.641 95.4951 996.5C92.6201 986.917 92.469 976.536 95.0367 966.859C97.0523 959.286 100.672 952.203 102.698 944.63C104.74 937.063 105.198 927.734 100.834 921.219C103.245 919.266 105.662 917.313 107.657 914.943C109.651 912.568 111.214 909.766 111.604 906.687C112.063 903.13 110.948 899.516 111.474 895.958C112.219 890.844 116.146 886.875 119.849 883.276C114.808 881.979 108.177 879.854 105.412 875.443C103.151 871.844 103.323 867.125 104.839 863.156C106.354 859.187 109.052 855.781 111.703 852.469C106.834 846.766 101.219 840.839 99.6565 833.49C98.8909 829.885 99.0211 826.161 98.318 822.542C97.6357 818.922 95.9065 815.214 92.6305 813.542C91.693 813.062 90.6357 812.755 89.7398 812.203C88.818 811.651 88.0263 810.75 88.0055 809.677V809.656C87.6357 799.172 93.1617 789.365 94.6357 778.958C95.0523 776.021 95.1357 772.995 96.0836 770.182C97.5784 765.776 102.948 762.115 106.266 758.818C103.719 755.464 101.172 752.062 99.5523 748.182C97.9326 744.302 97.3128 739.823 98.7815 735.896C99.4169 734.161 100.453 732.578 101.657 731.198C105.782 726.437 111.907 723.937 117.766 721.635L117.854 721.615C115.729 718.104 115.198 713.911 114.828 709.828C114.479 705.75 114.214 701.557 112.568 697.828C110.922 694.099 107.495 690.812 103.396 690.63C106.36 686.245 106.709 679.505 105.349 674.396C103.985 669.286 101.552 664.505 100.214 659.391C98.8753 654.276 98.7607 648.443 101.771 644.099C94.6617 640.125 87.4638 636.026 83.2242 629.068C81.6253 626.458 80.5263 623.344 81.0784 620.333C81.4951 618.052 82.8076 616.036 84.2398 614.187C86.5628 611.182 89.2398 608.464 92.2242 606.094C94.219 604.516 96.3701 603.042 97.9534 601.047C99.5315 599.052 100.479 596.328 99.6201 593.917C99.1617 589.901 99.2919 585.073 100.563 581.214C101.985 576.885 105.167 573.292 106.464 568.927C107.959 563.948 106.813 558.062 103.396 554.156C105.787 553.146 108.266 552.073 109.979 550.12C111.516 548.365 112.282 546.078 112.875 543.823C114.542 537.5 115.115 530.943 115.688 524.448C115.75 523.812 115.797 523.109 115.443 522.562C115.115 522.01 113.005 521.469 112.61 521.969C105.412 520.24 99.5107 513.984 98.1982 506.677C96.8805 499.37 100.261 491.469 106.422 487.344C101.042 483.969 97.2711 478.042 95.344 471.984C93.4169 465.927 92.7971 459.547 91.8336 453.266C90.8701 446.99 89.4638 440.625 86.1982 435.187C91.3076 431.349 96.8128 427.635 98.5055 421.734C99.7503 417.437 99.469 412.807 100.5 408.437C101.901 402.406 105.875 397.031 111.209 393.911C108.578 390.578 105.985 386.255 104.672 382.219C103.354 378.182 103.328 373.557 105.526 369.911C108.292 365.281 114.459 362.917 119.724 361.687H119.943C117.334 359.755 117.438 359.885 115.552 357.255C113.271 354.052 112.282 350.083 111.688 346.177C111.094 342.271 110.834 338.302 109.735 334.505C109.823 331.807 108.375 328.604 106.115 327.13C104.62 326.167 102.667 325.557 101.943 323.932C101.485 322.875 101.698 321.625 102.292 320.656C102.886 319.698 103.959 318.797 104.974 318.245C104.646 307.427 100.235 297.203 97.443 286.74C94.0003 273.901 92.943 260.453 94.3544 247.245C102.537 244.104 118.162 244.875 128.495 247.641C137.448 250.036 146.005 254.047 155.198 255.323C160.907 256.109 167.136 255.672 171.792 252.255C173.985 257.125 179.532 261.599 184.782 262.562C188.532 263.271 192.391 262.656 196.188 263.047C201.761 263.62 207.183 266.536 210.141 271.271C210.62 267.74 212.464 263.198 214.724 260.432C217.005 257.687 220.229 255.693 223.745 255.141C227.63 254.552 231.599 255.734 234.995 257.708C238.401 259.661 238.927 260.167 241.797 262.844C245.703 257.578 252.683 252.641 259.089 251.281C262.443 250.573 265.933 250.49 269.224 249.547C274.839 247.943 280.547 243.625 282.891 238.266C287.37 240.927 293.005 240.219 297.99 241.714C300.797 242.552 303.386 244.062 306.261 244.698C309.943 245.51 313.828 244.792 317.495 245.599C325.287 247.328 329.761 255.255 337.308 257.823C341.938 254.464 347.177 251.943 352.709 250.469C354.245 250.052 355.828 249.724 357.386 249.969C359.797 250.339 361.813 252.01 363.438 253.828C367.5 258.328 369.933 262.958 370.589 268.99C374.365 267.26 378.558 266.771 382.683 266.333C386.802 265.896 390.995 265.432 394.792 263.745C398.589 262.057 402.052 258.672 402.891 254.62C407.063 258.458 413.427 259.714 418.735 257.76C422.13 256.51 424.985 254.115 428.297 252.687C434.771 249.901 441.86 251.083 448.818 252.25C452.724 245.797 457.943 240.177 464.068 235.792C465.755 234.583 467.552 233.469 469.599 233.135C472.032 232.76 474.49 233.573 476.688 234.646C484.521 238.443 490.552 245.797 492.766 254.224L492.745 252.953C498.604 250.344 505.407 249.943 511.526 251.833C516.047 253.24 520.13 255.807 524.646 257.214C529.167 258.615 534.61 258.573 538.058 255.328C539.683 260.026 543.917 264.062 548.677 265.578C555.453 267.724 563.313 265.312 569.63 268.562C572.047 262.948 575.532 257.437 579.86 253.115C581.328 251.646 582.995 250.24 585.016 249.74C587.448 249.146 589.974 249.958 592.297 250.88C598.068 253.182 600.396 254.021 605.375 257.75C609.37 253.729 613.563 249.583 618.959 247.807C623.698 246.25 628.943 246.708 633.683 245.177C637.037 244.099 640.063 242.057 643.511 241.292C645.813 240.786 648.183 240.87 650.532 240.656C652.88 240.458 655.292 239.911 657.089 238.396C659.896 243.13 664.219 248.005 669.375 249.984C675.651 252.396 683.375 249.609 689.032 253.208C691.271 254.609 692.828 256.828 694.651 258.708C696.469 260.594 698.844 262.312 701.474 262.177C705.901 259.089 710.907 256.052 715.933 254.057C717.271 253.536 718.677 253.047 720.104 253.25C721.99 253.51 723.479 254.937 724.709 256.406C728.157 260.49 730.589 265.406 731.776 270.604C734.563 266.458 740.052 264.328 744.985 263.536C749.922 262.75 755.032 262.682 759.683 260.818C763.672 259.214 767.12 256.276 769.36 252.594C774.25 256.323 781.49 256.521 787.505 255.203C793.516 253.906 799.094 251.141 804.901 249.167C817.568 244.844 833.823 244.146 846.86 247.234C848.261 260.443 847.209 273.891 843.766 286.729C840.959 297.193 836.547 307.401 836.24 318.234C837.25 318.76 838.302 319.656 838.917 320.646C839.532 321.641 839.729 322.885 839.266 323.922C838.542 325.568 836.589 326.156 835.099 327.12C832.839 328.594 831.386 331.797 831.474 334.495C830.401 338.292 830.136 342.26 829.521 346.167C828.912 350.073 827.948 354.021 825.662 357.245C823.776 359.875 823.88 359.75 821.271 361.677H821.49C826.755 362.906 832.896 365.276 835.683 369.901C837.854 373.547 837.854 378.177 836.542 382.208C835.224 386.25 832.636 390.568 830.005 393.901C835.334 397.021 839.313 402.417 840.714 408.427C841.724 412.797 841.459 417.401 842.709 421.724C844.417 427.604 849.907 431.339 855.016 435.177C851.724 440.615 850.344 446.979 849.38 453.255C848.417 459.536 847.802 465.917 845.87 471.974C843.938 478.031 840.183 483.953 834.792 487.333C840.959 491.458 844.313 499.385 843.016 506.667C841.719 513.948 835.818 520.229 828.604 521.958C828.203 521.458 826.099 522 825.771 522.552C825.443 523.104 825.485 523.781 825.526 524.437C826.099 530.953 826.693 537.49 828.339 543.807C828.933 546.068 829.698 548.349 831.235 550.109C832.943 552.062 835.427 553.135 837.818 554.146C834.391 558.052 833.255 563.937 834.75 568.917C836.047 573.281 839.224 576.88 840.651 581.203C841.922 585.042 842.052 589.865 841.594 593.906C840.735 596.297 841.683 599.042 843.261 601.036C844.839 603.031 846.99 604.484 848.985 606.078C851.953 608.453 854.646 611.172 856.974 614.177C858.396 616.021 859.719 618.042 860.136 620.323C860.578 623.328 859.464 626.417 857.86 629.052Z" fill="#F7CC4E"/>
</g>
</g>
<mask id="mask15_1_216" style="mask-type:luminance" maskUnits="userSpaceOnUse" x="73" y="225" width="795" height="795">
<path d="M73.4846 225.26H867.485V1019.26H73.4846V225.26Z" fill="white"/>
</mask>
<g mask="url(#mask15_1_216)">
<mask id="mask16_1_216" style="mask-type:luminance" maskUnits="userSpaceOnUse" x="73" y="225" width="795" height="795">
<path d="M73.4846 355.26V889.74C73.4846 961.536 131.688 1019.74 203.485 1019.74H737.964C809.761 1019.74 867.964 961.536 867.964 889.74V355.26C867.964 283.464 809.761 225.26 737.964 225.26H203.485C131.688 225.26 73.4846 283.464 73.4846 355.26Z" fill="white"/>
</mask>
<g mask="url(#mask16_1_216)">
<path d="M73.4846 225.26H867.485V1019.26H73.4846V225.26Z" fill="#F7CC4E"/>
</g>
</g>
<path d="M612.623 588.86C652.732 581.167 687.472 542.292 698.701 486.485C713.456 410.839 671.644 350.162 593.133 332.365L610.487 256.422L485.399 252.781L468.899 324.688L354.513 321.354L221.701 912.808L347.159 916.464L327.665 1002.68L452.753 1006.32L472.248 920.104C599.571 923.073 686.696 848.052 705.888 747.052C724.222 650.089 670.154 591.641 612.623 588.86ZM481.508 462.433L507.706 463.198C544.607 464.271 562.847 484.745 556.503 512.255C548.461 547.479 516.8 556.896 488.019 556.058L460.711 555.266L481.508 462.433ZM553.977 726.011C546.79 757.193 518.123 777.782 471.998 776.438L411.482 774.677L436.54 662.396L498.888 664.584C538.373 665.729 562.388 690.802 553.977 726.011Z" fill="#37002F"/>
<path d="M662.739 553.333C702.848 545.64 737.588 506.765 748.817 450.958C763.572 375.312 721.76 314.635 643.25 296.838L660.604 220.895L535.515 217.254L519.015 289.161L404.63 285.827L271.817 877.28L397.276 880.937L377.781 967.155L502.869 970.796L522.364 884.577C649.687 887.546 736.812 812.525 756.005 711.525C774.338 614.562 720.27 556.114 662.739 553.333ZM531.625 426.905L557.822 427.671C594.723 428.744 612.963 449.218 606.619 476.728C598.578 511.952 566.916 521.369 538.135 520.53L510.828 519.739L531.625 426.905ZM604.093 690.484C596.906 721.666 568.239 742.254 522.114 740.911L461.598 739.15L486.656 626.869L549.005 629.056C588.489 630.202 612.505 655.275 604.093 690.484Z" fill="white"/>
<path d="M655.313 550.208C693.526 542.875 726.62 505.838 737.318 452.667C751.38 380.594 711.542 322.786 636.74 305.828L653.271 233.479L534.094 230.005L518.375 298.516L409.396 295.338L282.86 858.849L402.391 862.328L383.813 944.474L502.99 947.943L521.568 865.797C642.875 868.625 725.88 797.151 744.167 700.922C761.636 608.542 710.125 552.859 655.313 550.208ZM530.391 429.755L555.349 430.479C590.505 431.505 607.886 451.01 601.844 477.224C594.183 510.776 564.011 519.75 536.589 518.953L510.573 518.198L530.391 429.755ZM599.433 680.875C592.589 710.583 565.276 730.198 521.328 728.917L463.672 727.24L487.547 620.266L546.953 622.349C584.568 623.443 607.448 647.333 599.433 680.875Z" stroke="black" stroke-width="50.4248"/>
<path d="M655.313 550.208C693.527 542.874 726.62 505.838 737.318 452.666C751.381 380.593 711.542 322.786 636.74 305.827L653.271 233.478L534.094 230.01L518.376 298.515L409.396 295.343L282.86 858.848L402.391 862.327L383.813 944.473L502.99 947.942L521.568 865.796C642.876 868.624 725.881 797.15 744.167 700.926C761.631 608.541 710.126 552.859 655.313 550.208ZM530.391 429.755L555.35 430.478C590.506 431.505 607.886 451.01 601.844 477.223C594.183 510.781 564.011 519.749 536.589 518.952L510.574 518.197L530.391 429.755ZM599.433 680.88C592.589 710.588 565.277 730.197 521.329 728.921L463.672 727.239L487.547 620.27L546.949 622.348C584.568 623.442 607.449 647.333 599.433 680.88Z" fill="#D9D9D9"/>
<path d="M649.844 563.844C686.5 556.813 718.25 521.287 728.51 470.281C742 401.146 703.786 345.693 632.031 329.427L647.885 260.021L533.567 256.693L518.489 322.406L413.948 319.365L292.567 859.912L407.229 863.25L389.406 942.047L503.729 945.375L521.547 866.578C637.916 869.292 717.541 800.729 735.078 708.422C751.833 619.807 702.422 566.391 649.844 563.844ZM530.01 448.302L553.958 449C587.677 449.979 604.349 468.693 598.552 493.839C591.203 526.026 562.265 534.63 535.958 533.865L511.005 533.141L530.01 448.302ZM596.239 689.193C589.677 717.693 563.474 736.505 521.323 735.276L466.015 733.667L488.916 631.052L545.896 633.047C581.984 634.099 603.927 657.016 596.239 689.193Z" fill="white"/>
<path d="M961 68.75V245.523H756.898C763.161 202.234 783.024 162.057 813.617 130.797C820.522 123.678 827.963 117.098 835.875 111.117C871.777 83.5954 915.763 68.7017 961 68.75Z" fill="#142359"/>
<path d="M1105.29 127.703H961V68.75C1014.97 68.716 1066.79 89.8882 1105.29 127.703Z" fill="#BF2121"/>
<path d="M1147.31 186.57H961V127.703H1105.29C1122.67 144.68 1136.9 164.613 1147.31 186.57Z" fill="white"/>
<path d="M1165.1 245.523H961V186.57H1147.31C1156.23 205.193 1162.23 225.077 1165.1 245.523Z" fill="#BF2121"/>
<path d="M1167.25 275C1167.28 284.866 1166.56 294.719 1165.1 304.477H756.898C754.033 284.93 754.033 265.07 756.898 245.523H1165.1C1166.56 255.281 1167.28 265.134 1167.25 275Z" fill="white"/>
<path d="M1165.1 304.477C1162.23 324.923 1156.23 344.807 1147.31 363.43H774.687C765.77 344.807 759.77 324.923 756.898 304.477H1165.1Z" fill="#BF2121"/>
<path d="M1105.29 422.297C1066.74 460.036 1014.94 481.171 961 481.171C907.055 481.171 855.257 460.036 816.711 422.297H1105.29Z" fill="#BF2121"/>
<path d="M1147.31 363.43C1136.9 385.387 1122.67 405.32 1105.29 422.297H816.711C799.326 405.32 785.097 385.387 774.688 363.43H1147.31Z" fill="white"/>
<path d="M898.352 92.7266L904.367 111.117H923.703L908.062 122.461L914.078 140.852L898.352 129.508L882.711 140.852L888.727 122.461L873 111.117H892.422L898.352 92.7266Z" fill="white"/>
<path d="M898.352 166.633L904.367 185.023H923.703L908.062 196.453L914.078 214.844L898.352 203.5L882.711 214.844L888.727 196.453L873 185.023H892.422L898.352 166.633Z" fill="white"/>
<path d="M825.992 166.633L831.922 185.023H851.344L835.617 196.453L841.633 214.844L825.992 203.5L810.266 214.844L816.281 196.453L800.641 185.023H819.977L825.992 166.633Z" fill="white"/>
<path d="M835.617 122.461L841.633 140.852L825.992 129.508L810.352 140.852L813.617 130.797C820.522 123.678 827.963 117.098 835.875 111.117H851.344L835.617 122.461Z" fill="white"/>
</svg>
